ISO-10303-21;
HEADER;
FILE_DESCRIPTION(('CATIA V5 STEP Exchange','CAx-IF Rec.Pracs.--- Composite Materials ---3.4---2017-06-13'),'2;1');

FILE_NAME('C:\\Users\\PH\\Desktop\\\X2\75358D5B\X0\\\lianjie2.stp','2026-07-29T07:52:49+00:00',('none'),('none'),'CATIA Version 5-6 Release 2021 SP7','CATIA V5 STEP AP203 v2','none');

FILE_SCHEMA(('CONFIG_CONTROL_DESIGN'));

ENDSEC;
DATA;
#5=PRODUCT('Product5','','',(#2)) ;
#55=PRODUCT('Part3','','',(#2)) ;
#1=APPLICATION_CONTEXT('configuration controlled 3D design of mechanical parts and assemblies') ;
#17=PRODUCT_DEFINITION('',' ',#6,#3) ;
#19=SECURITY_CLASSIFICATION(' ',' ',#18) ;
#18=SECURITY_CLASSIFICATION_LEVEL('unclassified') ;
#62=CARTESIAN_POINT('Axis2P3D Location',(35.4406283832,-10.2988933602,0.)) ;
#67=CARTESIAN_POINT('Line Origine',(36.9406283832,-10.2988933602,0.)) ;
#71=CARTESIAN_POINT('Vertex',(36.9406283832,-15.2988933602,0.)) ;
#73=CARTESIAN_POINT('Vertex',(36.9406283832,-5.29889336016,0.)) ;
#76=CARTESIAN_POINT('Axis2P3D Location',(35.4406283832,-15.2988933602,0.)) ;
#80=CARTESIAN_POINT('Vertex',(33.9406283832,-15.2988933602,1.83697019872E-16)) ;
#83=CARTESIAN_POINT('Line Origine',(33.9406283832,-10.2988933602,1.83697019872E-16)) ;
#87=CARTESIAN_POINT('Vertex',(33.9406283832,-5.29889336016,1.83697019872E-16)) ;
#90=CARTESIAN_POINT('Axis2P3D Location',(35.4406283832,-5.29889336016,0.)) ;
#102=CARTESIAN_POINT('Axis2P3D Location',(35.4406283832,-15.2988933602,0.)) ;
#107=CARTESIAN_POINT('Axis2P3D Location',(35.4406283832,-5.29889336016,0.)) ;
#119=CARTESIAN_POINT('Axis2P3D Location',(0.,-15.2988933602,0.)) ;
#124=CARTESIAN_POINT('Axis2P3D Location',(35.4406283832,-15.2988933602,0.)) ;
#128=CARTESIAN_POINT('Vertex',(37.9406283832,-15.2988933602,0.)) ;
#130=CARTESIAN_POINT('Vertex',(32.9406283832,-15.2988933602,3.06161699787E-16)) ;
#133=CARTESIAN_POINT('Axis2P3D Location',(35.4406283832,-15.2988933602,0.)) ;
#147=CARTESIAN_POINT('Axis2P3D Location',(0.,-5.29889336016,0.)) ;
#152=CARTESIAN_POINT('Axis2P3D Location',(35.4406283832,-5.29889336016,0.)) ;
#156=CARTESIAN_POINT('Vertex',(32.9406283832,-5.29889336016,3.06161699787E-16)) ;
#158=CARTESIAN_POINT('Vertex',(37.9406283832,-5.29889336016,0.)) ;
#161=CARTESIAN_POINT('Axis2P3D Location',(35.4406283832,-5.29889336016,0.)) ;
#175=CARTESIAN_POINT('Axis2P3D Location',(35.4406283832,-10.2988933602,0.)) ;
#180=CARTESIAN_POINT('Line Origine',(32.9406283832,-10.2988933602,3.06161699787E-16)) ;
#185=CARTESIAN_POINT('Line Origine',(37.9406283832,-10.2988933602,-6.12323399574E-16)) ;
#214=CARTESIAN_POINT('NONE',(0.,0.,0.)) ;
#215=CARTESIAN_POINT('NONE',(-6.74384769912,0.,1.69406589451E-21)) ;
#63=DIRECTION('Axis2P3D Direction',(0.,-1.,0.)) ;
#64=DIRECTION('Axis2P3D XDirection',(1.,0.,0.)) ;
#68=DIRECTION('Vector Direction',(0.,-1.,0.)) ;
#77=DIRECTION('Axis2P3D Direction',(0.,-1.,0.)) ;
#84=DIRECTION('Vector Direction',(0.,-1.,0.)) ;
#91=DIRECTION('Axis2P3D Direction',(0.,-1.,0.)) ;
#103=DIRECTION('Axis2P3D Direction',(0.,-1.,0.)) ;
#108=DIRECTION('Axis2P3D Direction',(0.,-1.,0.)) ;
#120=DIRECTION('Axis2P3D Direction',(0.,-1.,0.)) ;
#121=DIRECTION('Axis2P3D XDirection',(1.,0.,-0.)) ;
#125=DIRECTION('Axis2P3D Direction',(0.,-1.,0.)) ;
#134=DIRECTION('Axis2P3D Direction',(0.,-1.,0.)) ;
#148=DIRECTION('Axis2P3D Direction',(0.,-1.,0.)) ;
#149=DIRECTION('Axis2P3D XDirection',(1.,0.,-0.)) ;
#153=DIRECTION('Axis2P3D Direction',(0.,-1.,0.)) ;
#162=DIRECTION('Axis2P3D Direction',(0.,-1.,0.)) ;
#176=DIRECTION('Axis2P3D Direction',(0.,-1.,0.)) ;
#177=DIRECTION('Axis2P3D XDirection',(1.,0.,0.)) ;
#181=DIRECTION('Vector Direction',(0.,-1.,0.)) ;
#186=DIRECTION('Vector Direction',(0.,-1.,0.)) ;
#216=DIRECTION('NONE',(1.,0.,0.)) ;
#217=DIRECTION('NONE',(0.,0.,1.)) ;
#218=DIRECTION('NONE',(1.,0.,0.)) ;
#219=DIRECTION('NONE',(0.,0.,1.)) ;
#65=AXIS2_PLACEMENT_3D('Cylinder Axis2P3D',#62,#63,#64) ;
#78=AXIS2_PLACEMENT_3D('Circle Axis2P3D',#76,#77,$) ;
#92=AXIS2_PLACEMENT_3D('Circle Axis2P3D',#90,#91,$) ;
#104=AXIS2_PLACEMENT_3D('Circle Axis2P3D',#102,#103,$) ;
#109=AXIS2_PLACEMENT_3D('Circle Axis2P3D',#107,#108,$) ;
#122=AXIS2_PLACEMENT_3D('Plane Axis2P3D',#119,#120,#121) ;
#126=AXIS2_PLACEMENT_3D('Circle Axis2P3D',#124,#125,$) ;
#135=AXIS2_PLACEMENT_3D('Circle Axis2P3D',#133,#134,$) ;
#150=AXIS2_PLACEMENT_3D('Plane Axis2P3D',#147,#148,#149) ;
#154=AXIS2_PLACEMENT_3D('Circle Axis2P3D',#152,#153,$) ;
#163=AXIS2_PLACEMENT_3D('Circle Axis2P3D',#161,#162,$) ;
#178=AXIS2_PLACEMENT_3D('Cylinder Axis2P3D',#175,#176,#177) ;
#212=AXIS2_PLACEMENT_3D(' ',#215,#219,#218) ;
#213=AXIS2_PLACEMENT_3D(' ',#214,#217,#216) ;
#45=PRODUCT_DEFINITION_SHAPE(' ',' ',#17) ;
#60=PRODUCT_DEFINITION_SHAPE(' ',' ',#57) ;
#208=PRODUCT_DEFINITION_SHAPE(' ',' ',#207) ;
#34=APPROVAL_PERSON_ORGANIZATION(#28,#24,#22) ;
#28=PERSON_AND_ORGANIZATION(#25,#26) ;
#25=PERSON(' ',' ',' ',$,$,$) ;
#26=ORGANIZATION(' ',' ',' ') ;
#24=APPROVAL(#23,' ') ;
#23=APPROVAL_STATUS('not_yet_approved') ;
#22=APPROVAL_ROLE('APPROVER') ;
#13=DATE_AND_TIME(#11,#12) ;
#12=LOCAL_TIME(15,52,49.,#10) ;
#10=COORDINATED_UNIVERSAL_TIME_OFFSET(0,0,.AHEAD.) ;
#96=ORIENTED_EDGE('',*,*,#75,.F.) ;
#97=ORIENTED_EDGE('',*,*,#82,.T.) ;
#98=ORIENTED_EDGE('',*,*,#89,.T.) ;
#99=ORIENTED_EDGE('',*,*,#94,.F.) ;
#113=ORIENTED_EDGE('',*,*,#89,.F.) ;
#114=ORIENTED_EDGE('',*,*,#106,.T.) ;
#115=ORIENTED_EDGE('',*,*,#75,.T.) ;
#116=ORIENTED_EDGE('',*,*,#111,.F.) ;
#139=ORIENTED_EDGE('',*,*,#132,.T.) ;
#140=ORIENTED_EDGE('',*,*,#137,.T.) ;
#143=ORIENTED_EDGE('',*,*,#82,.F.) ;
#144=ORIENTED_EDGE('',*,*,#106,.F.) ;
#167=ORIENTED_EDGE('',*,*,#160,.F.) ;
#168=ORIENTED_EDGE('',*,*,#165,.F.) ;
#171=ORIENTED_EDGE('',*,*,#111,.T.) ;
#172=ORIENTED_EDGE('',*,*,#94,.T.) ;
#191=ORIENTED_EDGE('',*,*,#184,.F.) ;
#192=ORIENTED_EDGE('',*,*,#160,.T.) ;
#193=ORIENTED_EDGE('',*,*,#189,.T.) ;
#194=ORIENTED_EDGE('',*,*,#137,.F.) ;
#198=ORIENTED_EDGE('',*,*,#189,.F.) ;
#199=ORIENTED_EDGE('',*,*,#165,.T.) ;
#200=ORIENTED_EDGE('',*,*,#184,.T.) ;
#201=ORIENTED_EDGE('',*,*,#132,.F.) ;
#145=FACE_BOUND('',#142,.T.) ;
#173=FACE_BOUND('',#170,.T.) ;
#61=CLOSED_SHELL('Closed Shell',(#101,#118,#146,#174,#196,#203)) ;
#211=ITEM_DEFINED_TRANSFORMATION(' ',' ',#213,#212) ;
#69=VECTOR('Line Direction',#68,1.) ;
#85=VECTOR('Line Direction',#84,1.) ;
#182=VECTOR('Line Direction',#181,1.) ;
#187=VECTOR('Line Direction',#186,1.) ;
#205=ADVANCED_BREP_SHAPE_REPRESENTATION('NONE',(#204),#52) ;
#44=SHAPE_REPRESENTATION(' ',(#212),#50) ;
#53=SHAPE_REPRESENTATION(' ',(#213),#52) ;
#101=ADVANCED_FACE('\X2\96F64EF651E04F554F53\X0\',(#100),#66,.F.) ;
#118=ADVANCED_FACE('\X2\96F64EF651E04F554F53\X0\',(#117),#66,.F.) ;
#146=ADVANCED_FACE('\X2\96F64EF651E04F554F53\X0\',(#141,#145),#123,.T.) ;
#174=ADVANCED_FACE('\X2\96F64EF651E04F554F53\X0\',(#169,#173),#151,.F.) ;
#196=ADVANCED_FACE('\X2\96F64EF651E04F554F53\X0\',(#195),#179,.T.) ;
#203=ADVANCED_FACE('\X2\96F64EF651E04F554F53\X0\',(#202),#179,.T.) ;
#4=APPLICATION_PROTOCOL_DEFINITION('international standard','config_control_design',1994,#1) ;
#35=APPROVAL_DATE_TIME(#13,#24) ;
#204=MANIFOLD_SOLID_BREP('\X2\96F64EF651E04F554F53\X0\',#61) ;
#11=CALENDAR_DATE(2026,29,7) ;
#33=CC_DESIGN_APPROVAL(#24,(#19,#6,#17)) ;
#21=CC_DESIGN_DATE_AND_TIME_ASSIGNMENT(#13,#20,(#19)) ;
#32=CC_DESIGN_DATE_AND_TIME_ASSIGNMENT(#13,#31,(#17)) ;
#20=DATE_TIME_ROLE('classification_date') ;
#31=DATE_TIME_ROLE('creation_date') ;
#30=CC_DESIGN_PERSON_AND_ORGANIZATION_ASSIGNMENT(#28,#29,(#19)) ;
#36=CC_DESIGN_PERSON_AND_ORGANIZATION_ASSIGNMENT(#28,#37,(#6)) ;
#38=CC_DESIGN_PERSON_AND_ORGANIZATION_ASSIGNMENT(#28,#39,(#6,#17)) ;
#40=CC_DESIGN_PERSON_AND_ORGANIZATION_ASSIGNMENT(#28,#41,(#5)) ;
#29=PERSON_AND_ORGANIZATION_ROLE('classification_officer') ;
#37=PERSON_AND_ORGANIZATION_ROLE('design_supplier') ;
#39=PERSON_AND_ORGANIZATION_ROLE('creator') ;
#41=PERSON_AND_ORGANIZATION_ROLE('design_owner') ;
#42=CC_DESIGN_SECURITY_CLASSIFICATION(#19,(#6,#207)) ;
#59=DOCUMENT('8','Part3.CATPart','CATPart document',#58) ;
#58=DOCUMENT_TYPE('') ;
#79=CIRCLE('generated circle',#78,1.5) ;
#93=CIRCLE('generated circle',#92,1.5) ;
#105=CIRCLE('generated circle',#104,1.5) ;
#110=CIRCLE('generated circle',#109,1.5) ;
#127=CIRCLE('generated circle',#126,2.5) ;
#136=CIRCLE('generated circle',#135,2.5) ;
#155=CIRCLE('generated circle',#154,2.5) ;
#164=CIRCLE('generated circle',#163,2.5) ;
#209=CONTEXT_DEPENDENT_SHAPE_REPRESENTATION(#210,#208) ;
#206=SHAPE_REPRESENTATION_RELATIONSHIP(' ',' ',#53,#205) ;
#66=CYLINDRICAL_SURFACE('generated cylinder',#65,1.5) ;
#179=CYLINDRICAL_SURFACE('generated cylinder',#178,2.5) ;
#3=DESIGN_CONTEXT(' ',#1,'design') ;
#75=EDGE_CURVE('',#72,#74,#70,.F.) ;
#82=EDGE_CURVE('',#72,#81,#79,.T.) ;
#89=EDGE_CURVE('',#81,#88,#86,.F.) ;
#94=EDGE_CURVE('',#74,#88,#93,.T.) ;
#106=EDGE_CURVE('',#81,#72,#105,.T.) ;
#111=EDGE_CURVE('',#88,#74,#110,.T.) ;
#132=EDGE_CURVE('',#129,#131,#127,.T.) ;
#137=EDGE_CURVE('',#131,#129,#136,.T.) ;
#160=EDGE_CURVE('',#157,#159,#155,.T.) ;
#165=EDGE_CURVE('',#159,#157,#164,.T.) ;
#184=EDGE_CURVE('',#157,#131,#183,.T.) ;
#189=EDGE_CURVE('',#159,#129,#188,.T.) ;
#95=EDGE_LOOP('',(#96,#97,#98,#99)) ;
#112=EDGE_LOOP('',(#113,#114,#115,#116)) ;
#138=EDGE_LOOP('',(#139,#140)) ;
#142=EDGE_LOOP('',(#143,#144)) ;
#166=EDGE_LOOP('',(#167,#168)) ;
#170=EDGE_LOOP('',(#171,#172)) ;
#190=EDGE_LOOP('',(#191,#192,#193,#194)) ;
#197=EDGE_LOOP('',(#198,#199,#200,#201)) ;
#100=FACE_OUTER_BOUND('',#95,.T.) ;
#117=FACE_OUTER_BOUND('',#112,.T.) ;
#141=FACE_OUTER_BOUND('',#138,.T.) ;
#169=FACE_OUTER_BOUND('',#166,.T.) ;
#195=FACE_OUTER_BOUND('',#190,.T.) ;
#202=FACE_OUTER_BOUND('',#197,.T.) ;
#49=UNCERTAINTY_MEASURE_WITH_UNIT(LENGTH_MEASURE(0.005),#46,'distance_accuracy_value','CONFUSED CURVE UNCERTAINTY') ;
#51=UNCERTAINTY_MEASURE_WITH_UNIT(LENGTH_MEASURE(0.005),#46,'distance_accuracy_value','CONFUSED CURVE UNCERTAINTY') ;
#70=LINE('Line',#67,#69) ;
#86=LINE('Line',#83,#85) ;
#183=LINE('Line',#180,#182) ;
#188=LINE('Line',#185,#187) ;
#2=MECHANICAL_CONTEXT(' ',#1,'mechanical') ;
#207=NEXT_ASSEMBLY_USAGE_OCCURRENCE('Part3.1','Part3.1','',#17,#57,'Part3.1') ;
#27=PERSONAL_ADDRESS(' ',' ',' ',' ',' ',' ',' ',' ',' ',' ',' ',' ',(#25),' ') ;
#123=PLANE('',#122) ;
#151=PLANE('',#150) ;
#7=PRODUCT_CATEGORY('part',$) ;
#14=PRODUCT_CATEGORY('part',$) ;
#9=PRODUCT_CATEGORY_RELATIONSHIP(' ',' ',#7,#8) ;
#16=PRODUCT_CATEGORY_RELATIONSHIP(' ',' ',#14,#15) ;
#6=PRODUCT_DEFINITION_FORMATION_WITH_SPECIFIED_SOURCE('',' ',#5,.NOT_KNOWN.) ;
#56=PRODUCT_DEFINITION_FORMATION_WITH_SPECIFIED_SOURCE('',' ',#55,.NOT_KNOWN.) ;
#57=PRODUCT_DEFINITION_WITH_ASSOCIATED_DOCUMENTS('',' ',#56,#3,(#59)) ;
#8=PRODUCT_RELATED_PRODUCT_CATEGORY('detail',$,(#55)) ;
#15=PRODUCT_RELATED_PRODUCT_CATEGORY('part',$,(#5)) ;
#43=SHAPE_DEFINITION_REPRESENTATION(#45,#44) ;
#54=SHAPE_DEFINITION_REPRESENTATION(#60,#53) ;
#72=VERTEX_POINT('',#71) ;
#74=VERTEX_POINT('',#73) ;
#81=VERTEX_POINT('',#80) ;
#88=VERTEX_POINT('',#87) ;
#129=VERTEX_POINT('',#128) ;
#131=VERTEX_POINT('',#130) ;
#157=VERTEX_POINT('',#156) ;
#159=VERTEX_POINT('',#158) ;
#46=(LENGTH_UNIT()NAMED_UNIT(*)SI_UNIT(.MILLI.,.METRE.)) ;
#47=(NAMED_UNIT(*)PLANE_ANGLE_UNIT()SI_UNIT($,.RADIAN.)) ;
#48=(NAMED_UNIT(*)SI_UNIT($,.STERADIAN.)SOLID_ANGLE_UNIT()) ;
#50=(GEOMETRIC_REPRESENTATION_CONTEXT(3)GLOBAL_UNCERTAINTY_ASSIGNED_CONTEXT((#49))GLOBAL_UNIT_ASSIGNED_CONTEXT((#46,#47,#48))REPRESENTATION_CONTEXT(' ',' ')) ;
#52=(GEOMETRIC_REPRESENTATION_CONTEXT(3)GLOBAL_UNCERTAINTY_ASSIGNED_CONTEXT((#51))GLOBAL_UNIT_ASSIGNED_CONTEXT((#46,#47,#48))REPRESENTATION_CONTEXT(' ',' ')) ;
#210=(REPRESENTATION_RELATIONSHIP(' ',' ',#53,#44)REPRESENTATION_RELATIONSHIP_WITH_TRANSFORMATION(#211)SHAPE_REPRESENTATION_RELATIONSHIP()) ;
ENDSEC;
END-ISO-10303-21;
