ISO-10303-21;
HEADER;
FILE_DESCRIPTION(('CATIA V5 STEP Exchange','CAx-IF Rec.Pracs.--- Composite Materials ---3.4---2017-06-13'),'2;1');

FILE_NAME('C:\\Users\\PH\\Desktop\\\X2\75358D5B\X0\\\lianjie1.stp','2026-07-29T07:46:01+00:00',('none'),('none'),'CATIA Version 5-6 Release 2021 SP7','CATIA V5 STEP AP203 v2','none');

FILE_SCHEMA(('CONFIG_CONTROL_DESIGN'));

ENDSEC;
DATA;
#5=PRODUCT('Product5','','',(#2)) ;
#55=PRODUCT('Part2','','',(#2)) ;
#1=APPLICATION_CONTEXT('configuration controlled 3D design of mechanical parts and assemblies') ;
#17=PRODUCT_DEFINITION('',' ',#6,#3) ;
#19=SECURITY_CLASSIFICATION(' ',' ',#18) ;
#18=SECURITY_CLASSIFICATION_LEVEL('unclassified') ;
#62=CARTESIAN_POINT('Axis2P3D Location',(28.6967806841,-10.2988933602,1.69406589451E-21)) ;
#67=CARTESIAN_POINT('Line Origine',(31.2967806841,-10.2988933602,1.69406589451E-21)) ;
#71=CARTESIAN_POINT('Vertex',(31.2967806841,-12.2988933602,1.69406589451E-21)) ;
#73=CARTESIAN_POINT('Vertex',(31.2967806841,-8.29889336016,1.69406589451E-21)) ;
#76=CARTESIAN_POINT('Axis2P3D Location',(28.6967806841,-12.2988933602,1.69406589451E-21)) ;
#80=CARTESIAN_POINT('Vertex',(26.0967806841,-12.2988933602,3.18409861844E-16)) ;
#83=CARTESIAN_POINT('Line Origine',(26.0967806841,-10.2988933602,3.18409861844E-16)) ;
#87=CARTESIAN_POINT('Vertex',(26.0967806841,-8.29889336016,3.18409861844E-16)) ;
#90=CARTESIAN_POINT('Axis2P3D Location',(28.6967806841,-8.29889336016,1.69406589451E-21)) ;
#102=CARTESIAN_POINT('Axis2P3D Location',(28.6967806841,-12.2988933602,1.69406589451E-21)) ;
#107=CARTESIAN_POINT('Axis2P3D Location',(28.6967806841,-8.29889336016,1.69406589451E-21)) ;
#119=CARTESIAN_POINT('Axis2P3D Location',(0.,-8.29889336016,0.)) ;
#124=CARTESIAN_POINT('Line Origine',(15.8842806841,-8.29889336016,8.47215106983)) ;
#128=CARTESIAN_POINT('Vertex',(29.9467806841,-8.29889336016,4.84122918276)) ;
#130=CARTESIAN_POINT('Vertex',(1.8217806841,-8.29889336016,12.1030729569)) ;
#133=CARTESIAN_POINT('Axis2P3D Location',(28.6967806841,-8.29889336016,1.69406589451E-21)) ;
#137=CARTESIAN_POINT('Vertex',(29.9467806841,-8.29889336016,-4.84122918276)) ;
#140=CARTESIAN_POINT('Line Origine',(15.8842806841,-8.29889336016,-8.47215106983)) ;
#144=CARTESIAN_POINT('Vertex',(1.8217806841,-8.29889336016,-12.1030729569)) ;
#147=CARTESIAN_POINT('Axis2P3D Location',(-1.3032193159,-8.29889336016,4.39648317752E-14)) ;
#162=CARTESIAN_POINT('Axis2P3D Location',(-1.3032193159,-8.29889336016,8.)) ;
#166=CARTESIAN_POINT('Vertex',(-1.3032193159,-8.29889336016,6.5)) ;
#168=CARTESIAN_POINT('Vertex',(-1.3032193159,-8.29889336016,9.5)) ;
#171=CARTESIAN_POINT('Axis2P3D Location',(-1.3032193159,-8.29889336016,8.)) ;
#180=CARTESIAN_POINT('Axis2P3D Location',(6.6967806841,-8.29889336016,4.43180041521E-14)) ;
#184=CARTESIAN_POINT('Vertex',(6.6967806841,-8.29889336016,-1.5)) ;
#186=CARTESIAN_POINT('Vertex',(6.6967806841,-8.29889336016,1.5)) ;
#189=CARTESIAN_POINT('Axis2P3D Location',(6.6967806841,-8.29889336016,4.39849372447E-14)) ;
#198=CARTESIAN_POINT('Axis2P3D Location',(-1.3032193159,-8.29889336016,4.43180041521E-14)) ;
#202=CARTESIAN_POINT('Vertex',(-1.3032193159,-8.29889336016,-1.5)) ;
#204=CARTESIAN_POINT('Vertex',(-1.3032193159,-8.29889336016,1.5)) ;
#207=CARTESIAN_POINT('Axis2P3D Location',(-1.3032193159,-8.29889336016,4.39849372447E-14)) ;
#216=CARTESIAN_POINT('Axis2P3D Location',(-9.3032193159,-8.29889336016,4.43180041521E-14)) ;
#220=CARTESIAN_POINT('Vertex',(-9.3032193159,-8.29889336016,-1.5)) ;
#222=CARTESIAN_POINT('Vertex',(-9.3032193159,-8.29889336016,1.5)) ;
#225=CARTESIAN_POINT('Axis2P3D Location',(-9.3032193159,-8.29889336016,4.39849372447E-14)) ;
#234=CARTESIAN_POINT('Axis2P3D Location',(-1.3032193159,-8.29889336016,-8.)) ;
#238=CARTESIAN_POINT('Vertex',(-1.3032193159,-8.29889336016,-9.5)) ;
#240=CARTESIAN_POINT('Vertex',(-1.3032193159,-8.29889336016,-6.5)) ;
#243=CARTESIAN_POINT('Axis2P3D Location',(-1.3032193159,-8.29889336016,-8.)) ;
#253=CARTESIAN_POINT('Axis2P3D Location',(0.,-12.2988933602,0.)) ;
#258=CARTESIAN_POINT('Axis2P3D Location',(-1.3032193159,-12.2988933602,4.39648317752E-14)) ;
#262=CARTESIAN_POINT('Vertex',(1.8217806841,-12.2988933602,12.1030729569)) ;
#264=CARTESIAN_POINT('Vertex',(1.8217806841,-12.2988933602,-12.1030729569)) ;
#267=CARTESIAN_POINT('Line Origine',(15.8842806841,-12.2988933602,-8.47215106983)) ;
#271=CARTESIAN_POINT('Vertex',(29.9467806841,-12.2988933602,-4.84122918276)) ;
#274=CARTESIAN_POINT('Axis2P3D Location',(28.6967806841,-12.2988933602,1.69406589451E-21)) ;
#278=CARTESIAN_POINT('Vertex',(29.9467806841,-12.2988933602,4.84122918276)) ;
#281=CARTESIAN_POINT('Line Origine',(15.8842806841,-12.2988933602,8.47215106983)) ;
#296=CARTESIAN_POINT('Axis2P3D Location',(-1.3032193159,-12.2988933602,8.)) ;
#300=CARTESIAN_POINT('Vertex',(-1.3032193159,-12.2988933602,9.5)) ;
#302=CARTESIAN_POINT('Vertex',(-1.3032193159,-12.2988933602,6.5)) ;
#305=CARTESIAN_POINT('Axis2P3D Location',(-1.3032193159,-12.2988933602,8.)) ;
#314=CARTESIAN_POINT('Axis2P3D Location',(6.6967806841,-12.2988933602,4.39849372447E-14)) ;
#318=CARTESIAN_POINT('Vertex',(6.6967806841,-12.2988933602,1.5)) ;
#320=CARTESIAN_POINT('Vertex',(6.6967806841,-12.2988933602,-1.5)) ;
#323=CARTESIAN_POINT('Axis2P3D Location',(6.6967806841,-12.2988933602,4.43180041521E-14)) ;
#332=CARTESIAN_POINT('Axis2P3D Location',(-1.3032193159,-12.2988933602,4.39849372447E-14)) ;
#336=CARTESIAN_POINT('Vertex',(-1.3032193159,-12.2988933602,1.5)) ;
#338=CARTESIAN_POINT('Vertex',(-1.3032193159,-12.2988933602,-1.5)) ;
#341=CARTESIAN_POINT('Axis2P3D Location',(-1.3032193159,-12.2988933602,4.43180041521E-14)) ;
#350=CARTESIAN_POINT('Axis2P3D Location',(-9.3032193159,-12.2988933602,4.39849372447E-14)) ;
#354=CARTESIAN_POINT('Vertex',(-9.3032193159,-12.2988933602,1.5)) ;
#356=CARTESIAN_POINT('Vertex',(-9.3032193159,-12.2988933602,-1.5)) ;
#359=CARTESIAN_POINT('Axis2P3D Location',(-9.3032193159,-12.2988933602,4.43180041521E-14)) ;
#368=CARTESIAN_POINT('Axis2P3D Location',(-1.3032193159,-12.2988933602,-8.)) ;
#372=CARTESIAN_POINT('Vertex',(-1.3032193159,-12.2988933602,-6.5)) ;
#374=CARTESIAN_POINT('Vertex',(-1.3032193159,-12.2988933602,-9.5)) ;
#377=CARTESIAN_POINT('Axis2P3D Location',(-1.3032193159,-12.2988933602,-8.)) ;
#387=CARTESIAN_POINT('Axis2P3D Location',(-1.3032193159,-10.2988933602,4.39648317752E-14)) ;
#392=CARTESIAN_POINT('Line Origine',(1.8217806841,-10.2988933602,12.1030729569)) ;
#397=CARTESIAN_POINT('Line Origine',(1.8217806841,-10.2988933602,-12.1030729569)) ;
#409=CARTESIAN_POINT('Axis2P3D Location',(1.8217806841,-8.29889336016,-12.1030729569)) ;
#414=CARTESIAN_POINT('Line Origine',(29.9467806841,-10.2988933602,-4.84122918276)) ;
#426=CARTESIAN_POINT('Axis2P3D Location',(28.6967806841,-10.2988933602,1.69406589451E-21)) ;
#431=CARTESIAN_POINT('Line Origine',(29.9467806841,-10.2988933602,4.84122918276)) ;
#443=CARTESIAN_POINT('Axis2P3D Location',(1.8217806841,-8.29889336016,12.1030729569)) ;
#455=CARTESIAN_POINT('Axis2P3D Location',(-1.3032193159,-10.2988933602,-8.)) ;
#460=CARTESIAN_POINT('Line Origine',(-1.3032193159,-10.2988933602,-6.5)) ;
#465=CARTESIAN_POINT('Line Origine',(-1.3032193159,-10.2988933602,-9.5)) ;
#477=CARTESIAN_POINT('Axis2P3D Location',(-1.3032193159,-10.2988933602,-8.)) ;
#489=CARTESIAN_POINT('Axis2P3D Location',(-9.3032193159,-10.2988933602,4.43180041521E-14)) ;
#494=CARTESIAN_POINT('Line Origine',(-9.3032193159,-10.2988933602,1.5)) ;
#499=CARTESIAN_POINT('Line Origine',(-9.3032193159,-10.2988933602,-1.5)) ;
#511=CARTESIAN_POINT('Axis2P3D Location',(-9.3032193159,-10.2988933602,4.39849372447E-14)) ;
#523=CARTESIAN_POINT('Axis2P3D Location',(-1.3032193159,-10.2988933602,4.43180041521E-14)) ;
#528=CARTESIAN_POINT('Line Origine',(-1.3032193159,-10.2988933602,1.5)) ;
#533=CARTESIAN_POINT('Line Origine',(-1.3032193159,-10.2988933602,-1.5)) ;
#545=CARTESIAN_POINT('Axis2P3D Location',(-1.3032193159,-10.2988933602,4.39849372447E-14)) ;
#557=CARTESIAN_POINT('Axis2P3D Location',(6.6967806841,-10.2988933602,4.43180041521E-14)) ;
#562=CARTESIAN_POINT('Line Origine',(6.6967806841,-10.2988933602,1.5)) ;
#567=CARTESIAN_POINT('Line Origine',(6.6967806841,-10.2988933602,-1.5)) ;
#579=CARTESIAN_POINT('Axis2P3D Location',(6.6967806841,-10.2988933602,4.39849372447E-14)) ;
#591=CARTESIAN_POINT('Axis2P3D Location',(-1.3032193159,-10.2988933602,8.)) ;
#596=CARTESIAN_POINT('Line Origine',(-1.3032193159,-10.2988933602,9.5)) ;
#601=CARTESIAN_POINT('Line Origine',(-1.3032193159,-10.2988933602,6.5)) ;
#613=CARTESIAN_POINT('Axis2P3D Location',(-1.3032193159,-10.2988933602,8.)) ;
#635=CARTESIAN_POINT('NONE',(0.,0.,0.)) ;
#636=CARTESIAN_POINT('NONE',(0.,0.,0.)) ;
#63=DIRECTION('Axis2P3D Direction',(0.,-1.,0.)) ;
#64=DIRECTION('Axis2P3D XDirection',(1.,0.,0.)) ;
#68=DIRECTION('Vector Direction',(0.,-1.,0.)) ;
#77=DIRECTION('Axis2P3D Direction',(0.,-1.,0.)) ;
#84=DIRECTION('Vector Direction',(0.,-1.,0.)) ;
#91=DIRECTION('Axis2P3D Direction',(0.,-1.,0.)) ;
#103=DIRECTION('Axis2P3D Direction',(0.,-1.,0.)) ;
#108=DIRECTION('Axis2P3D Direction',(0.,-1.,0.)) ;
#120=DIRECTION('Axis2P3D Direction',(0.,-1.,0.)) ;
#121=DIRECTION('Axis2P3D XDirection',(1.,0.,-0.)) ;
#125=DIRECTION('Vector Direction',(0.968245836552,0.,-0.25)) ;
#134=DIRECTION('Axis2P3D Direction',(0.,-1.,0.)) ;
#141=DIRECTION('Vector Direction',(0.968245836552,0.,0.25)) ;
#148=DIRECTION('Axis2P3D Direction',(0.,-1.,0.)) ;
#163=DIRECTION('Axis2P3D Direction',(0.,-1.,0.)) ;
#172=DIRECTION('Axis2P3D Direction',(0.,-1.,0.)) ;
#181=DIRECTION('Axis2P3D Direction',(0.,-1.,0.)) ;
#190=DIRECTION('Axis2P3D Direction',(0.,-1.,0.)) ;
#199=DIRECTION('Axis2P3D Direction',(0.,-1.,0.)) ;
#208=DIRECTION('Axis2P3D Direction',(0.,-1.,0.)) ;
#217=DIRECTION('Axis2P3D Direction',(0.,-1.,0.)) ;
#226=DIRECTION('Axis2P3D Direction',(0.,-1.,0.)) ;
#235=DIRECTION('Axis2P3D Direction',(0.,-1.,0.)) ;
#244=DIRECTION('Axis2P3D Direction',(0.,-1.,0.)) ;
#254=DIRECTION('Axis2P3D Direction',(0.,-1.,0.)) ;
#255=DIRECTION('Axis2P3D XDirection',(1.,0.,-0.)) ;
#259=DIRECTION('Axis2P3D Direction',(0.,-1.,0.)) ;
#268=DIRECTION('Vector Direction',(0.968245836552,0.,0.25)) ;
#275=DIRECTION('Axis2P3D Direction',(0.,-1.,0.)) ;
#282=DIRECTION('Vector Direction',(0.968245836552,0.,-0.25)) ;
#297=DIRECTION('Axis2P3D Direction',(0.,-1.,0.)) ;
#306=DIRECTION('Axis2P3D Direction',(0.,-1.,0.)) ;
#315=DIRECTION('Axis2P3D Direction',(0.,-1.,0.)) ;
#324=DIRECTION('Axis2P3D Direction',(0.,-1.,0.)) ;
#333=DIRECTION('Axis2P3D Direction',(0.,-1.,0.)) ;
#342=DIRECTION('Axis2P3D Direction',(0.,-1.,0.)) ;
#351=DIRECTION('Axis2P3D Direction',(0.,-1.,0.)) ;
#360=DIRECTION('Axis2P3D Direction',(0.,-1.,0.)) ;
#369=DIRECTION('Axis2P3D Direction',(0.,-1.,0.)) ;
#378=DIRECTION('Axis2P3D Direction',(0.,-1.,0.)) ;
#388=DIRECTION('Axis2P3D Direction',(0.,-1.,0.)) ;
#389=DIRECTION('Axis2P3D XDirection',(0.25,0.,0.968245836552)) ;
#393=DIRECTION('Vector Direction',(0.,-1.,0.)) ;
#398=DIRECTION('Vector Direction',(0.,-1.,0.)) ;
#410=DIRECTION('Axis2P3D Direction',(0.25,0.,-0.968245836552)) ;
#411=DIRECTION('Axis2P3D XDirection',(0.968245836552,0.,0.25)) ;
#415=DIRECTION('Vector Direction',(0.,-1.,0.)) ;
#427=DIRECTION('Axis2P3D Direction',(0.,-1.,0.)) ;
#428=DIRECTION('Axis2P3D XDirection',(0.25,0.,-0.968245836552)) ;
#432=DIRECTION('Vector Direction',(0.,-1.,0.)) ;
#444=DIRECTION('Axis2P3D Direction',(-0.25,-0.,-0.968245836552)) ;
#445=DIRECTION('Axis2P3D XDirection',(0.968245836552,0.,-0.25)) ;
#456=DIRECTION('Axis2P3D Direction',(0.,-1.,0.)) ;
#457=DIRECTION('Axis2P3D XDirection',(-1.83697019872E-16,-0.,-1.)) ;
#461=DIRECTION('Vector Direction',(0.,-1.,0.)) ;
#466=DIRECTION('Vector Direction',(0.,-1.,0.)) ;
#478=DIRECTION('Axis2P3D Direction',(0.,-1.,0.)) ;
#479=DIRECTION('Axis2P3D XDirection',(5.05321549807E-16,0.,1.)) ;
#490=DIRECTION('Axis2P3D Direction',(0.,-1.,0.)) ;
#491=DIRECTION('Axis2P3D XDirection',(-1.83697019872E-16,-0.,-1.)) ;
#495=DIRECTION('Vector Direction',(0.,-1.,0.)) ;
#500=DIRECTION('Vector Direction',(0.,-1.,0.)) ;
#512=DIRECTION('Axis2P3D Direction',(0.,-1.,0.)) ;
#513=DIRECTION('Axis2P3D XDirection',(-1.04899068467E-15,0.,1.)) ;
#524=DIRECTION('Axis2P3D Direction',(0.,-1.,0.)) ;
#525=DIRECTION('Axis2P3D XDirection',(7.04481399828E-16,0.,-1.)) ;
#529=DIRECTION('Vector Direction',(0.,-1.,0.)) ;
#534=DIRECTION('Vector Direction',(0.,-1.,0.)) ;
#546=DIRECTION('Axis2P3D Direction',(0.,-1.,0.)) ;
#547=DIRECTION('Axis2P3D XDirection',(-6.04901474818E-16,0.,1.)) ;
#558=DIRECTION('Axis2P3D Direction',(0.,-1.,0.)) ;
#559=DIRECTION('Axis2P3D XDirection',(-1.83697019872E-16,-0.,-1.)) ;
#563=DIRECTION('Vector Direction',(0.,-1.,0.)) ;
#568=DIRECTION('Vector Direction',(0.,-1.,0.)) ;
#580=DIRECTION('Axis2P3D Direction',(0.,-1.,0.)) ;
#581=DIRECTION('Axis2P3D XDirection',(6.12323399574E-17,0.,1.)) ;
#592=DIRECTION('Axis2P3D Direction',(0.,-1.,0.)) ;
#593=DIRECTION('Axis2P3D XDirection',(-1.83697019872E-16,-0.,-1.)) ;
#597=DIRECTION('Vector Direction',(0.,-1.,0.)) ;
#602=DIRECTION('Vector Direction',(0.,-1.,0.)) ;
#614=DIRECTION('Axis2P3D Direction',(0.,-1.,0.)) ;
#615=DIRECTION('Axis2P3D XDirection',(-1.04899068467E-15,0.,1.)) ;
#637=DIRECTION('NONE',(1.,0.,0.)) ;
#638=DIRECTION('NONE',(0.,0.,1.)) ;
#639=DIRECTION('NONE',(1.,0.,0.)) ;
#640=DIRECTION('NONE',(0.,0.,1.)) ;
#65=AXIS2_PLACEMENT_3D('Cylinder Axis2P3D',#62,#63,#64) ;
#78=AXIS2_PLACEMENT_3D('Circle Axis2P3D',#76,#77,$) ;
#92=AXIS2_PLACEMENT_3D('Circle Axis2P3D',#90,#91,$) ;
#104=AXIS2_PLACEMENT_3D('Circle Axis2P3D',#102,#103,$) ;
#109=AXIS2_PLACEMENT_3D('Circle Axis2P3D',#107,#108,$) ;
#122=AXIS2_PLACEMENT_3D('Plane Axis2P3D',#119,#120,#121) ;
#135=AXIS2_PLACEMENT_3D('Circle Axis2P3D',#133,#134,$) ;
#149=AXIS2_PLACEMENT_3D('Circle Axis2P3D',#147,#148,$) ;
#164=AXIS2_PLACEMENT_3D('Circle Axis2P3D',#162,#163,$) ;
#173=AXIS2_PLACEMENT_3D('Circle Axis2P3D',#171,#172,$) ;
#182=AXIS2_PLACEMENT_3D('Circle Axis2P3D',#180,#181,$) ;
#191=AXIS2_PLACEMENT_3D('Circle Axis2P3D',#189,#190,$) ;
#200=AXIS2_PLACEMENT_3D('Circle Axis2P3D',#198,#199,$) ;
#209=AXIS2_PLACEMENT_3D('Circle Axis2P3D',#207,#208,$) ;
#218=AXIS2_PLACEMENT_3D('Circle Axis2P3D',#216,#217,$) ;
#227=AXIS2_PLACEMENT_3D('Circle Axis2P3D',#225,#226,$) ;
#236=AXIS2_PLACEMENT_3D('Circle Axis2P3D',#234,#235,$) ;
#245=AXIS2_PLACEMENT_3D('Circle Axis2P3D',#243,#244,$) ;
#256=AXIS2_PLACEMENT_3D('Plane Axis2P3D',#253,#254,#255) ;
#260=AXIS2_PLACEMENT_3D('Circle Axis2P3D',#258,#259,$) ;
#276=AXIS2_PLACEMENT_3D('Circle Axis2P3D',#274,#275,$) ;
#298=AXIS2_PLACEMENT_3D('Circle Axis2P3D',#296,#297,$) ;
#307=AXIS2_PLACEMENT_3D('Circle Axis2P3D',#305,#306,$) ;
#316=AXIS2_PLACEMENT_3D('Circle Axis2P3D',#314,#315,$) ;
#325=AXIS2_PLACEMENT_3D('Circle Axis2P3D',#323,#324,$) ;
#334=AXIS2_PLACEMENT_3D('Circle Axis2P3D',#332,#333,$) ;
#343=AXIS2_PLACEMENT_3D('Circle Axis2P3D',#341,#342,$) ;
#352=AXIS2_PLACEMENT_3D('Circle Axis2P3D',#350,#351,$) ;
#361=AXIS2_PLACEMENT_3D('Circle Axis2P3D',#359,#360,$) ;
#370=AXIS2_PLACEMENT_3D('Circle Axis2P3D',#368,#369,$) ;
#379=AXIS2_PLACEMENT_3D('Circle Axis2P3D',#377,#378,$) ;
#390=AXIS2_PLACEMENT_3D('Cylinder Axis2P3D',#387,#388,#389) ;
#412=AXIS2_PLACEMENT_3D('Plane Axis2P3D',#409,#410,#411) ;
#429=AXIS2_PLACEMENT_3D('Cylinder Axis2P3D',#426,#427,#428) ;
#446=AXIS2_PLACEMENT_3D('Plane Axis2P3D',#443,#444,#445) ;
#458=AXIS2_PLACEMENT_3D('Cylinder Axis2P3D',#455,#456,#457) ;
#480=AXIS2_PLACEMENT_3D('Cylinder Axis2P3D',#477,#478,#479) ;
#492=AXIS2_PLACEMENT_3D('Cylinder Axis2P3D',#489,#490,#491) ;
#514=AXIS2_PLACEMENT_3D('Cylinder Axis2P3D',#511,#512,#513) ;
#526=AXIS2_PLACEMENT_3D('Cylinder Axis2P3D',#523,#524,#525) ;
#548=AXIS2_PLACEMENT_3D('Cylinder Axis2P3D',#545,#546,#547) ;
#560=AXIS2_PLACEMENT_3D('Cylinder Axis2P3D',#557,#558,#559) ;
#582=AXIS2_PLACEMENT_3D('Cylinder Axis2P3D',#579,#580,#581) ;
#594=AXIS2_PLACEMENT_3D('Cylinder Axis2P3D',#591,#592,#593) ;
#616=AXIS2_PLACEMENT_3D('Cylinder Axis2P3D',#613,#614,#615) ;
#633=AXIS2_PLACEMENT_3D(' ',#636,#640,#639) ;
#634=AXIS2_PLACEMENT_3D(' ',#635,#638,#637) ;
#45=PRODUCT_DEFINITION_SHAPE(' ',' ',#17) ;
#60=PRODUCT_DEFINITION_SHAPE(' ',' ',#57) ;
#629=PRODUCT_DEFINITION_SHAPE(' ',' ',#628) ;
#34=APPROVAL_PERSON_ORGANIZATION(#28,#24,#22) ;
#28=PERSON_AND_ORGANIZATION(#25,#26) ;
#25=PERSON(' ',' ',' ',$,$,$) ;
#26=ORGANIZATION(' ',' ',' ') ;
#24=APPROVAL(#23,' ') ;
#23=APPROVAL_STATUS('not_yet_approved') ;
#22=APPROVAL_ROLE('APPROVER') ;
#13=DATE_AND_TIME(#11,#12) ;
#12=LOCAL_TIME(15,46,1.,#10) ;
#10=COORDINATED_UNIVERSAL_TIME_OFFSET(0,0,.AHEAD.) ;
#96=ORIENTED_EDGE('',*,*,#75,.F.) ;
#97=ORIENTED_EDGE('',*,*,#82,.T.) ;
#98=ORIENTED_EDGE('',*,*,#89,.T.) ;
#99=ORIENTED_EDGE('',*,*,#94,.F.) ;
#113=ORIENTED_EDGE('',*,*,#89,.F.) ;
#114=ORIENTED_EDGE('',*,*,#106,.T.) ;
#115=ORIENTED_EDGE('',*,*,#75,.T.) ;
#116=ORIENTED_EDGE('',*,*,#111,.F.) ;
#153=ORIENTED_EDGE('',*,*,#132,.F.) ;
#154=ORIENTED_EDGE('',*,*,#139,.F.) ;
#155=ORIENTED_EDGE('',*,*,#146,.F.) ;
#156=ORIENTED_EDGE('',*,*,#151,.F.) ;
#159=ORIENTED_EDGE('',*,*,#111,.T.) ;
#160=ORIENTED_EDGE('',*,*,#94,.T.) ;
#177=ORIENTED_EDGE('',*,*,#170,.T.) ;
#178=ORIENTED_EDGE('',*,*,#175,.T.) ;
#195=ORIENTED_EDGE('',*,*,#188,.T.) ;
#196=ORIENTED_EDGE('',*,*,#193,.T.) ;
#213=ORIENTED_EDGE('',*,*,#206,.T.) ;
#214=ORIENTED_EDGE('',*,*,#211,.T.) ;
#231=ORIENTED_EDGE('',*,*,#224,.T.) ;
#232=ORIENTED_EDGE('',*,*,#229,.T.) ;
#249=ORIENTED_EDGE('',*,*,#242,.T.) ;
#250=ORIENTED_EDGE('',*,*,#247,.T.) ;
#287=ORIENTED_EDGE('',*,*,#266,.T.) ;
#288=ORIENTED_EDGE('',*,*,#273,.T.) ;
#289=ORIENTED_EDGE('',*,*,#280,.T.) ;
#290=ORIENTED_EDGE('',*,*,#285,.T.) ;
#293=ORIENTED_EDGE('',*,*,#82,.F.) ;
#294=ORIENTED_EDGE('',*,*,#106,.F.) ;
#311=ORIENTED_EDGE('',*,*,#304,.F.) ;
#312=ORIENTED_EDGE('',*,*,#309,.F.) ;
#329=ORIENTED_EDGE('',*,*,#322,.F.) ;
#330=ORIENTED_EDGE('',*,*,#327,.F.) ;
#347=ORIENTED_EDGE('',*,*,#340,.F.) ;
#348=ORIENTED_EDGE('',*,*,#345,.F.) ;
#365=ORIENTED_EDGE('',*,*,#358,.F.) ;
#366=ORIENTED_EDGE('',*,*,#363,.F.) ;
#383=ORIENTED_EDGE('',*,*,#376,.F.) ;
#384=ORIENTED_EDGE('',*,*,#381,.F.) ;
#403=ORIENTED_EDGE('',*,*,#396,.F.) ;
#404=ORIENTED_EDGE('',*,*,#151,.T.) ;
#405=ORIENTED_EDGE('',*,*,#401,.T.) ;
#406=ORIENTED_EDGE('',*,*,#266,.F.) ;
#420=ORIENTED_EDGE('',*,*,#401,.F.) ;
#421=ORIENTED_EDGE('',*,*,#146,.T.) ;
#422=ORIENTED_EDGE('',*,*,#418,.T.) ;
#423=ORIENTED_EDGE('',*,*,#273,.F.) ;
#437=ORIENTED_EDGE('',*,*,#418,.F.) ;
#438=ORIENTED_EDGE('',*,*,#139,.T.) ;
#439=ORIENTED_EDGE('',*,*,#435,.T.) ;
#440=ORIENTED_EDGE('',*,*,#280,.F.) ;
#449=ORIENTED_EDGE('',*,*,#435,.F.) ;
#450=ORIENTED_EDGE('',*,*,#132,.T.) ;
#451=ORIENTED_EDGE('',*,*,#396,.T.) ;
#452=ORIENTED_EDGE('',*,*,#285,.F.) ;
#471=ORIENTED_EDGE('',*,*,#381,.T.) ;
#472=ORIENTED_EDGE('',*,*,#464,.F.) ;
#473=ORIENTED_EDGE('',*,*,#242,.F.) ;
#474=ORIENTED_EDGE('',*,*,#469,.T.) ;
#483=ORIENTED_EDGE('',*,*,#376,.T.) ;
#484=ORIENTED_EDGE('',*,*,#469,.F.) ;
#485=ORIENTED_EDGE('',*,*,#247,.F.) ;
#486=ORIENTED_EDGE('',*,*,#464,.T.) ;
#505=ORIENTED_EDGE('',*,*,#363,.T.) ;
#506=ORIENTED_EDGE('',*,*,#498,.F.) ;
#507=ORIENTED_EDGE('',*,*,#224,.F.) ;
#508=ORIENTED_EDGE('',*,*,#503,.T.) ;
#517=ORIENTED_EDGE('',*,*,#358,.T.) ;
#518=ORIENTED_EDGE('',*,*,#503,.F.) ;
#519=ORIENTED_EDGE('',*,*,#229,.F.) ;
#520=ORIENTED_EDGE('',*,*,#498,.T.) ;
#539=ORIENTED_EDGE('',*,*,#345,.T.) ;
#540=ORIENTED_EDGE('',*,*,#532,.F.) ;
#541=ORIENTED_EDGE('',*,*,#206,.F.) ;
#542=ORIENTED_EDGE('',*,*,#537,.T.) ;
#551=ORIENTED_EDGE('',*,*,#340,.T.) ;
#552=ORIENTED_EDGE('',*,*,#537,.F.) ;
#553=ORIENTED_EDGE('',*,*,#211,.F.) ;
#554=ORIENTED_EDGE('',*,*,#532,.T.) ;
#573=ORIENTED_EDGE('',*,*,#327,.T.) ;
#574=ORIENTED_EDGE('',*,*,#566,.F.) ;
#575=ORIENTED_EDGE('',*,*,#188,.F.) ;
#576=ORIENTED_EDGE('',*,*,#571,.T.) ;
#585=ORIENTED_EDGE('',*,*,#322,.T.) ;
#586=ORIENTED_EDGE('',*,*,#571,.F.) ;
#587=ORIENTED_EDGE('',*,*,#193,.F.) ;
#588=ORIENTED_EDGE('',*,*,#566,.T.) ;
#607=ORIENTED_EDGE('',*,*,#309,.T.) ;
#608=ORIENTED_EDGE('',*,*,#600,.F.) ;
#609=ORIENTED_EDGE('',*,*,#170,.F.) ;
#610=ORIENTED_EDGE('',*,*,#605,.T.) ;
#619=ORIENTED_EDGE('',*,*,#304,.T.) ;
#620=ORIENTED_EDGE('',*,*,#605,.F.) ;
#621=ORIENTED_EDGE('',*,*,#175,.F.) ;
#622=ORIENTED_EDGE('',*,*,#600,.T.) ;
#161=FACE_BOUND('',#158,.T.) ;
#179=FACE_BOUND('',#176,.T.) ;
#197=FACE_BOUND('',#194,.T.) ;
#215=FACE_BOUND('',#212,.T.) ;
#233=FACE_BOUND('',#230,.T.) ;
#251=FACE_BOUND('',#248,.T.) ;
#295=FACE_BOUND('',#292,.T.) ;
#313=FACE_BOUND('',#310,.T.) ;
#331=FACE_BOUND('',#328,.T.) ;
#349=FACE_BOUND('',#346,.T.) ;
#367=FACE_BOUND('',#364,.T.) ;
#385=FACE_BOUND('',#382,.T.) ;
#61=CLOSED_SHELL('Closed Shell',(#101,#118,#252,#386,#408,#425,#442,#454,#476,#488,#510,#522,#544,#556,#578,#590,#612,#624)) ;
#632=ITEM_DEFINED_TRANSFORMATION(' ',' ',#634,#633) ;
#69=VECTOR('Line Direction',#68,1.) ;
#85=VECTOR('Line Direction',#84,1.) ;
#126=VECTOR('Line Direction',#125,1.) ;
#142=VECTOR('Line Direction',#141,1.) ;
#269=VECTOR('Line Direction',#268,1.) ;
#283=VECTOR('Line Direction',#282,1.) ;
#394=VECTOR('Line Direction',#393,1.) ;
#399=VECTOR('Line Direction',#398,1.) ;
#416=VECTOR('Line Direction',#415,1.) ;
#433=VECTOR('Line Direction',#432,1.) ;
#462=VECTOR('Line Direction',#461,1.) ;
#467=VECTOR('Line Direction',#466,1.) ;
#496=VECTOR('Line Direction',#495,1.) ;
#501=VECTOR('Line Direction',#500,1.) ;
#530=VECTOR('Line Direction',#529,1.) ;
#535=VECTOR('Line Direction',#534,1.) ;
#564=VECTOR('Line Direction',#563,1.) ;
#569=VECTOR('Line Direction',#568,1.) ;
#598=VECTOR('Line Direction',#597,1.) ;
#603=VECTOR('Line Direction',#602,1.) ;
#626=ADVANCED_BREP_SHAPE_REPRESENTATION('NONE',(#625),#52) ;
#44=SHAPE_REPRESENTATION(' ',(#633),#50) ;
#53=SHAPE_REPRESENTATION(' ',(#634),#52) ;
#101=ADVANCED_FACE('\X2\96F64EF651E04F554F53\X0\',(#100),#66,.F.) ;
#118=ADVANCED_FACE('\X2\96F64EF651E04F554F53\X0\',(#117),#66,.F.) ;
#252=ADVANCED_FACE('\X2\96F64EF651E04F554F53\X0\',(#157,#161,#179,#197,#215,#233,#251),#123,.F.) ;
#386=ADVANCED_FACE('\X2\96F64EF651E04F554F53\X0\',(#291,#295,#313,#331,#349,#367,#385),#257,.T.) ;
#408=ADVANCED_FACE('\X2\96F64EF651E04F554F53\X0\',(#407),#391,.T.) ;
#425=ADVANCED_FACE('\X2\96F64EF651E04F554F53\X0\',(#424),#413,.T.) ;
#442=ADVANCED_FACE('\X2\96F64EF651E04F554F53\X0\',(#441),#430,.T.) ;
#454=ADVANCED_FACE('\X2\96F64EF651E04F554F53\X0\',(#453),#447,.F.) ;
#476=ADVANCED_FACE('\X2\96F64EF651E04F554F53\X0\',(#475),#459,.F.) ;
#488=ADVANCED_FACE('\X2\96F64EF651E04F554F53\X0\',(#487),#481,.F.) ;
#510=ADVANCED_FACE('\X2\96F64EF651E04F554F53\X0\',(#509),#493,.F.) ;
#522=ADVANCED_FACE('\X2\96F64EF651E04F554F53\X0\',(#521),#515,.F.) ;
#544=ADVANCED_FACE('\X2\96F64EF651E04F554F53\X0\',(#543),#527,.F.) ;
#556=ADVANCED_FACE('\X2\96F64EF651E04F554F53\X0\',(#555),#549,.F.) ;
#578=ADVANCED_FACE('\X2\96F64EF651E04F554F53\X0\',(#577),#561,.F.) ;
#590=ADVANCED_FACE('\X2\96F64EF651E04F554F53\X0\',(#589),#583,.F.) ;
#612=ADVANCED_FACE('\X2\96F64EF651E04F554F53\X0\',(#611),#595,.F.) ;
#624=ADVANCED_FACE('\X2\96F64EF651E04F554F53\X0\',(#623),#617,.F.) ;
#4=APPLICATION_PROTOCOL_DEFINITION('international standard','config_control_design',1994,#1) ;
#35=APPROVAL_DATE_TIME(#13,#24) ;
#625=MANIFOLD_SOLID_BREP('\X2\96F64EF651E04F554F53\X0\',#61) ;
#11=CALENDAR_DATE(2026,29,7) ;
#33=CC_DESIGN_APPROVAL(#24,(#19,#6,#17)) ;
#21=CC_DESIGN_DATE_AND_TIME_ASSIGNMENT(#13,#20,(#19)) ;
#32=CC_DESIGN_DATE_AND_TIME_ASSIGNMENT(#13,#31,(#17)) ;
#20=DATE_TIME_ROLE('classification_date') ;
#31=DATE_TIME_ROLE('creation_date') ;
#30=CC_DESIGN_PERSON_AND_ORGANIZATION_ASSIGNMENT(#28,#29,(#19)) ;
#36=CC_DESIGN_PERSON_AND_ORGANIZATION_ASSIGNMENT(#28,#37,(#6)) ;
#38=CC_DESIGN_PERSON_AND_ORGANIZATION_ASSIGNMENT(#28,#39,(#6,#17)) ;
#40=CC_DESIGN_PERSON_AND_ORGANIZATION_ASSIGNMENT(#28,#41,(#5)) ;
#29=PERSON_AND_ORGANIZATION_ROLE('classification_officer') ;
#37=PERSON_AND_ORGANIZATION_ROLE('design_supplier') ;
#39=PERSON_AND_ORGANIZATION_ROLE('creator') ;
#41=PERSON_AND_ORGANIZATION_ROLE('design_owner') ;
#42=CC_DESIGN_SECURITY_CLASSIFICATION(#19,(#6,#628)) ;
#59=DOCUMENT('5','Part2.CATPart','CATPart document',#58) ;
#58=DOCUMENT_TYPE('') ;
#79=CIRCLE('generated circle',#78,2.6) ;
#93=CIRCLE('generated circle',#92,2.6) ;
#105=CIRCLE('generated circle',#104,2.6) ;
#110=CIRCLE('generated circle',#109,2.6) ;
#136=CIRCLE('generated circle',#135,5.) ;
#150=CIRCLE('generated circle',#149,12.5) ;
#165=CIRCLE('generated circle',#164,1.5) ;
#174=CIRCLE('generated circle',#173,1.5) ;
#183=CIRCLE('generated circle',#182,1.5) ;
#192=CIRCLE('generated circle',#191,1.5) ;
#201=CIRCLE('generated circle',#200,1.5) ;
#210=CIRCLE('generated circle',#209,1.5) ;
#219=CIRCLE('generated circle',#218,1.5) ;
#228=CIRCLE('generated circle',#227,1.5) ;
#237=CIRCLE('generated circle',#236,1.5) ;
#246=CIRCLE('generated circle',#245,1.5) ;
#261=CIRCLE('generated circle',#260,12.5) ;
#277=CIRCLE('generated circle',#276,5.) ;
#299=CIRCLE('generated circle',#298,1.5) ;
#308=CIRCLE('generated circle',#307,1.5) ;
#317=CIRCLE('generated circle',#316,1.5) ;
#326=CIRCLE('generated circle',#325,1.5) ;
#335=CIRCLE('generated circle',#334,1.5) ;
#344=CIRCLE('generated circle',#343,1.5) ;
#353=CIRCLE('generated circle',#352,1.5) ;
#362=CIRCLE('generated circle',#361,1.5) ;
#371=CIRCLE('generated circle',#370,1.5) ;
#380=CIRCLE('generated circle',#379,1.5) ;
#630=CONTEXT_DEPENDENT_SHAPE_REPRESENTATION(#631,#629) ;
#627=SHAPE_REPRESENTATION_RELATIONSHIP(' ',' ',#53,#626) ;
#66=CYLINDRICAL_SURFACE('generated cylinder',#65,2.6) ;
#391=CYLINDRICAL_SURFACE('generated cylinder',#390,12.5) ;
#430=CYLINDRICAL_SURFACE('generated cylinder',#429,5.) ;
#459=CYLINDRICAL_SURFACE('generated cylinder',#458,1.5) ;
#481=CYLINDRICAL_SURFACE('generated cylinder',#480,1.5) ;
#493=CYLINDRICAL_SURFACE('generated cylinder',#492,1.5) ;
#515=CYLINDRICAL_SURFACE('generated cylinder',#514,1.5) ;
#527=CYLINDRICAL_SURFACE('generated cylinder',#526,1.5) ;
#549=CYLINDRICAL_SURFACE('generated cylinder',#548,1.5) ;
#561=CYLINDRICAL_SURFACE('generated cylinder',#560,1.5) ;
#583=CYLINDRICAL_SURFACE('generated cylinder',#582,1.5) ;
#595=CYLINDRICAL_SURFACE('generated cylinder',#594,1.5) ;
#617=CYLINDRICAL_SURFACE('generated cylinder',#616,1.5) ;
#3=DESIGN_CONTEXT(' ',#1,'design') ;
#75=EDGE_CURVE('',#72,#74,#70,.F.) ;
#82=EDGE_CURVE('',#72,#81,#79,.T.) ;
#89=EDGE_CURVE('',#81,#88,#86,.F.) ;
#94=EDGE_CURVE('',#74,#88,#93,.T.) ;
#106=EDGE_CURVE('',#81,#72,#105,.T.) ;
#111=EDGE_CURVE('',#88,#74,#110,.T.) ;
#132=EDGE_CURVE('',#129,#131,#127,.F.) ;
#139=EDGE_CURVE('',#138,#129,#136,.T.) ;
#146=EDGE_CURVE('',#145,#138,#143,.T.) ;
#151=EDGE_CURVE('',#131,#145,#150,.T.) ;
#170=EDGE_CURVE('',#167,#169,#165,.T.) ;
#175=EDGE_CURVE('',#169,#167,#174,.T.) ;
#188=EDGE_CURVE('',#185,#187,#183,.T.) ;
#193=EDGE_CURVE('',#187,#185,#192,.T.) ;
#206=EDGE_CURVE('',#203,#205,#201,.T.) ;
#211=EDGE_CURVE('',#205,#203,#210,.T.) ;
#224=EDGE_CURVE('',#221,#223,#219,.T.) ;
#229=EDGE_CURVE('',#223,#221,#228,.T.) ;
#242=EDGE_CURVE('',#239,#241,#237,.T.) ;
#247=EDGE_CURVE('',#241,#239,#246,.T.) ;
#266=EDGE_CURVE('',#263,#265,#261,.T.) ;
#273=EDGE_CURVE('',#265,#272,#270,.T.) ;
#280=EDGE_CURVE('',#272,#279,#277,.T.) ;
#285=EDGE_CURVE('',#279,#263,#284,.F.) ;
#304=EDGE_CURVE('',#301,#303,#299,.T.) ;
#309=EDGE_CURVE('',#303,#301,#308,.T.) ;
#322=EDGE_CURVE('',#319,#321,#317,.T.) ;
#327=EDGE_CURVE('',#321,#319,#326,.T.) ;
#340=EDGE_CURVE('',#337,#339,#335,.T.) ;
#345=EDGE_CURVE('',#339,#337,#344,.T.) ;
#358=EDGE_CURVE('',#355,#357,#353,.T.) ;
#363=EDGE_CURVE('',#357,#355,#362,.T.) ;
#376=EDGE_CURVE('',#373,#375,#371,.T.) ;
#381=EDGE_CURVE('',#375,#373,#380,.T.) ;
#396=EDGE_CURVE('',#131,#263,#395,.T.) ;
#401=EDGE_CURVE('',#145,#265,#400,.T.) ;
#418=EDGE_CURVE('',#138,#272,#417,.T.) ;
#435=EDGE_CURVE('',#129,#279,#434,.T.) ;
#464=EDGE_CURVE('',#241,#373,#463,.T.) ;
#469=EDGE_CURVE('',#239,#375,#468,.T.) ;
#498=EDGE_CURVE('',#223,#355,#497,.T.) ;
#503=EDGE_CURVE('',#221,#357,#502,.T.) ;
#532=EDGE_CURVE('',#205,#337,#531,.T.) ;
#537=EDGE_CURVE('',#203,#339,#536,.T.) ;
#566=EDGE_CURVE('',#187,#319,#565,.T.) ;
#571=EDGE_CURVE('',#185,#321,#570,.T.) ;
#600=EDGE_CURVE('',#169,#301,#599,.T.) ;
#605=EDGE_CURVE('',#167,#303,#604,.T.) ;
#95=EDGE_LOOP('',(#96,#97,#98,#99)) ;
#112=EDGE_LOOP('',(#113,#114,#115,#116)) ;
#152=EDGE_LOOP('',(#153,#154,#155,#156)) ;
#158=EDGE_LOOP('',(#159,#160)) ;
#176=EDGE_LOOP('',(#177,#178)) ;
#194=EDGE_LOOP('',(#195,#196)) ;
#212=EDGE_LOOP('',(#213,#214)) ;
#230=EDGE_LOOP('',(#231,#232)) ;
#248=EDGE_LOOP('',(#249,#250)) ;
#286=EDGE_LOOP('',(#287,#288,#289,#290)) ;
#292=EDGE_LOOP('',(#293,#294)) ;
#310=EDGE_LOOP('',(#311,#312)) ;
#328=EDGE_LOOP('',(#329,#330)) ;
#346=EDGE_LOOP('',(#347,#348)) ;
#364=EDGE_LOOP('',(#365,#366)) ;
#382=EDGE_LOOP('',(#383,#384)) ;
#402=EDGE_LOOP('',(#403,#404,#405,#406)) ;
#419=EDGE_LOOP('',(#420,#421,#422,#423)) ;
#436=EDGE_LOOP('',(#437,#438,#439,#440)) ;
#448=EDGE_LOOP('',(#449,#450,#451,#452)) ;
#470=EDGE_LOOP('',(#471,#472,#473,#474)) ;
#482=EDGE_LOOP('',(#483,#484,#485,#486)) ;
#504=EDGE_LOOP('',(#505,#506,#507,#508)) ;
#516=EDGE_LOOP('',(#517,#518,#519,#520)) ;
#538=EDGE_LOOP('',(#539,#540,#541,#542)) ;
#550=EDGE_LOOP('',(#551,#552,#553,#554)) ;
#572=EDGE_LOOP('',(#573,#574,#575,#576)) ;
#584=EDGE_LOOP('',(#585,#586,#587,#588)) ;
#606=EDGE_LOOP('',(#607,#608,#609,#610)) ;
#618=EDGE_LOOP('',(#619,#620,#621,#622)) ;
#100=FACE_OUTER_BOUND('',#95,.T.) ;
#117=FACE_OUTER_BOUND('',#112,.T.) ;
#157=FACE_OUTER_BOUND('',#152,.T.) ;
#291=FACE_OUTER_BOUND('',#286,.T.) ;
#407=FACE_OUTER_BOUND('',#402,.T.) ;
#424=FACE_OUTER_BOUND('',#419,.T.) ;
#441=FACE_OUTER_BOUND('',#436,.T.) ;
#453=FACE_OUTER_BOUND('',#448,.T.) ;
#475=FACE_OUTER_BOUND('',#470,.T.) ;
#487=FACE_OUTER_BOUND('',#482,.T.) ;
#509=FACE_OUTER_BOUND('',#504,.T.) ;
#521=FACE_OUTER_BOUND('',#516,.T.) ;
#543=FACE_OUTER_BOUND('',#538,.T.) ;
#555=FACE_OUTER_BOUND('',#550,.T.) ;
#577=FACE_OUTER_BOUND('',#572,.T.) ;
#589=FACE_OUTER_BOUND('',#584,.T.) ;
#611=FACE_OUTER_BOUND('',#606,.T.) ;
#623=FACE_OUTER_BOUND('',#618,.T.) ;
#49=UNCERTAINTY_MEASURE_WITH_UNIT(LENGTH_MEASURE(0.005),#46,'distance_accuracy_value','CONFUSED CURVE UNCERTAINTY') ;
#51=UNCERTAINTY_MEASURE_WITH_UNIT(LENGTH_MEASURE(0.005),#46,'distance_accuracy_value','CONFUSED CURVE UNCERTAINTY') ;
#70=LINE('Line',#67,#69) ;
#86=LINE('Line',#83,#85) ;
#127=LINE('Line',#124,#126) ;
#143=LINE('Line',#140,#142) ;
#270=LINE('Line',#267,#269) ;
#284=LINE('Line',#281,#283) ;
#395=LINE('Line',#392,#394) ;
#400=LINE('Line',#397,#399) ;
#417=LINE('Line',#414,#416) ;
#434=LINE('Line',#431,#433) ;
#463=LINE('Line',#460,#462) ;
#468=LINE('Line',#465,#467) ;
#497=LINE('Line',#494,#496) ;
#502=LINE('Line',#499,#501) ;
#531=LINE('Line',#528,#530) ;
#536=LINE('Line',#533,#535) ;
#565=LINE('Line',#562,#564) ;
#570=LINE('Line',#567,#569) ;
#599=LINE('Line',#596,#598) ;
#604=LINE('Line',#601,#603) ;
#2=MECHANICAL_CONTEXT(' ',#1,'mechanical') ;
#628=NEXT_ASSEMBLY_USAGE_OCCURRENCE('Part2.1','Part2.1','',#17,#57,'Part2.1') ;
#27=PERSONAL_ADDRESS(' ',' ',' ',' ',' ',' ',' ',' ',' ',' ',' ',' ',(#25),' ') ;
#123=PLANE('',#122) ;
#257=PLANE('',#256) ;
#413=PLANE('',#412) ;
#447=PLANE('',#446) ;
#7=PRODUCT_CATEGORY('part',$) ;
#14=PRODUCT_CATEGORY('part',$) ;
#9=PRODUCT_CATEGORY_RELATIONSHIP(' ',' ',#7,#8) ;
#16=PRODUCT_CATEGORY_RELATIONSHIP(' ',' ',#14,#15) ;
#6=PRODUCT_DEFINITION_FORMATION_WITH_SPECIFIED_SOURCE('',' ',#5,.NOT_KNOWN.) ;
#56=PRODUCT_DEFINITION_FORMATION_WITH_SPECIFIED_SOURCE('',' ',#55,.NOT_KNOWN.) ;
#57=PRODUCT_DEFINITION_WITH_ASSOCIATED_DOCUMENTS('',' ',#56,#3,(#59)) ;
#8=PRODUCT_RELATED_PRODUCT_CATEGORY('detail',$,(#55)) ;
#15=PRODUCT_RELATED_PRODUCT_CATEGORY('part',$,(#5)) ;
#43=SHAPE_DEFINITION_REPRESENTATION(#45,#44) ;
#54=SHAPE_DEFINITION_REPRESENTATION(#60,#53) ;
#72=VERTEX_POINT('',#71) ;
#74=VERTEX_POINT('',#73) ;
#81=VERTEX_POINT('',#80) ;
#88=VERTEX_POINT('',#87) ;
#129=VERTEX_POINT('',#128) ;
#131=VERTEX_POINT('',#130) ;
#138=VERTEX_POINT('',#137) ;
#145=VERTEX_POINT('',#144) ;
#167=VERTEX_POINT('',#166) ;
#169=VERTEX_POINT('',#168) ;
#185=VERTEX_POINT('',#184) ;
#187=VERTEX_POINT('',#186) ;
#203=VERTEX_POINT('',#202) ;
#205=VERTEX_POINT('',#204) ;
#221=VERTEX_POINT('',#220) ;
#223=VERTEX_POINT('',#222) ;
#239=VERTEX_POINT('',#238) ;
#241=VERTEX_POINT('',#240) ;
#263=VERTEX_POINT('',#262) ;
#265=VERTEX_POINT('',#264) ;
#272=VERTEX_POINT('',#271) ;
#279=VERTEX_POINT('',#278) ;
#301=VERTEX_POINT('',#300) ;
#303=VERTEX_POINT('',#302) ;
#319=VERTEX_POINT('',#318) ;
#321=VERTEX_POINT('',#320) ;
#337=VERTEX_POINT('',#336) ;
#339=VERTEX_POINT('',#338) ;
#355=VERTEX_POINT('',#354) ;
#357=VERTEX_POINT('',#356) ;
#373=VERTEX_POINT('',#372) ;
#375=VERTEX_POINT('',#374) ;
#46=(LENGTH_UNIT()NAMED_UNIT(*)SI_UNIT(.MILLI.,.METRE.)) ;
#47=(NAMED_UNIT(*)PLANE_ANGLE_UNIT()SI_UNIT($,.RADIAN.)) ;
#48=(NAMED_UNIT(*)SI_UNIT($,.STERADIAN.)SOLID_ANGLE_UNIT()) ;
#50=(GEOMETRIC_REPRESENTATION_CONTEXT(3)GLOBAL_UNCERTAINTY_ASSIGNED_CONTEXT((#49))GLOBAL_UNIT_ASSIGNED_CONTEXT((#46,#47,#48))REPRESENTATION_CONTEXT(' ',' ')) ;
#52=(GEOMETRIC_REPRESENTATION_CONTEXT(3)GLOBAL_UNCERTAINTY_ASSIGNED_CONTEXT((#51))GLOBAL_UNIT_ASSIGNED_CONTEXT((#46,#47,#48))REPRESENTATION_CONTEXT(' ',' ')) ;
#631=(REPRESENTATION_RELATIONSHIP(' ',' ',#53,#44)REPRESENTATION_RELATIONSHIP_WITH_TRANSFORMATION(#632)SHAPE_REPRESENTATION_RELATIONSHIP()) ;
ENDSEC;
END-ISO-10303-21;
