ISO-10303-21;
HEADER;
FILE_DESCRIPTION(('CATIA V5 STEP Exchange','CAx-IF Rec.Pracs.--- Composite Materials ---3.4---2017-06-13'),'2;1');

FILE_NAME('C:\\Users\\PH\\Desktop\\\X2\75358D5B\X0\\\zhijia2.stp','2026-07-29T07:23:02+00:00',('none'),('none'),'CATIA Version 5-6 Release 2021 SP7','CATIA V5 STEP AP203 v2','none');

FILE_SCHEMA(('CONFIG_CONTROL_DESIGN'));

ENDSEC;
DATA;
#5=PRODUCT('Product5','','',(#2)) ;
#55=PRODUCT('Part9','','',(#2)) ;
#1=APPLICATION_CONTEXT('configuration controlled 3D design of mechanical parts and assemblies') ;
#17=PRODUCT_DEFINITION('',' ',#6,#3) ;
#19=SECURITY_CLASSIFICATION(' ',' ',#18) ;
#18=SECURITY_CLASSIFICATION_LEVEL('unclassified') ;
#62=CARTESIAN_POINT('Axis2P3D Location',(455.100046396,0.,0.)) ;
#67=CARTESIAN_POINT('Line Origine',(455.100046396,804.,99.5)) ;
#71=CARTESIAN_POINT('Vertex',(455.100046396,804.,103.5)) ;
#73=CARTESIAN_POINT('Vertex',(455.100046396,804.,95.5)) ;
#76=CARTESIAN_POINT('Line Origine',(455.100046396,802.5,103.5)) ;
#80=CARTESIAN_POINT('Vertex',(455.100046396,801.,103.5)) ;
#83=CARTESIAN_POINT('Line Origine',(455.100046396,801.,101.320550528)) ;
#87=CARTESIAN_POINT('Vertex',(455.100046396,801.,99.1411010565)) ;
#90=CARTESIAN_POINT('Axis2P3D Location',(455.100046396,810.,103.5)) ;
#102=CARTESIAN_POINT('Axis2P3D Location',(456.100046396,810.,103.5)) ;
#108=CARTESIAN_POINT('Control Point',(455.100046396,801.000000293,99.1411011199)) ;
#109=CARTESIAN_POINT('Control Point',(455.100046369,801.084021678,98.7534498406)) ;
#110=CARTESIAN_POINT('Control Point',(455.110940058,801.173921664,98.3713190094)) ;
#111=CARTESIAN_POINT('Control Point',(455.137920262,801.26777835,97.9965134198)) ;
#112=CARTESIAN_POINT('Control Point',(455.217131887,801.421386397,97.4103228104)) ;
#113=CARTESIAN_POINT('Control Point',(455.391556189,801.565279289,96.8851895463)) ;
#114=CARTESIAN_POINT('Control Point',(455.473403003,801.616797991,96.6994982527)) ;
#115=CARTESIAN_POINT('Control Point',(455.634056407,801.688076256,96.4444146283)) ;
#116=CARTESIAN_POINT('Control Point',(455.846285823,801.732706697,96.2856233616)) ;
#117=CARTESIAN_POINT('Control Point',(455.928493746,801.744248395,96.2446132184)) ;
#118=CARTESIAN_POINT('Control Point',(456.01426047,801.75000343,96.2241800049)) ;
#119=CARTESIAN_POINT('Control Point',(456.100046396,801.750002846,96.2241806677)) ;
#120=CARTESIAN_POINT('Vertex',(456.100046396,801.75,96.2241838946)) ;
#123=CARTESIAN_POINT('Axis2P3D Location',(456.100046396,810.,103.5)) ;
#127=CARTESIAN_POINT('Vertex',(456.100046396,804.,94.2804555427)) ;
#131=CARTESIAN_POINT('Control Point',(455.100046396,804.,95.5)) ;
#132=CARTESIAN_POINT('Control Point',(455.100046396,804.,95.1512630084)) ;
#133=CARTESIAN_POINT('Control Point',(455.197682163,804.00000044,94.8053248064)) ;
#134=CARTESIAN_POINT('Control Point',(455.398904558,803.999999742,94.468536423)) ;
#135=CARTESIAN_POINT('Control Point',(455.751309405,804.,94.2804555427)) ;
#136=CARTESIAN_POINT('Control Point',(456.100046396,804.,94.2804555427)) ;
#146=CARTESIAN_POINT('Control Point',(454.100045842,800.,99.1411020248)) ;
#147=CARTESIAN_POINT('Control Point',(454.257125479,800.000000006,99.1411019147)) ;
#148=CARTESIAN_POINT('Control Point',(454.414207605,800.030835591,99.1411018045)) ;
#149=CARTESIAN_POINT('Control Point',(454.563204436,800.092553104,99.1411017001)) ;
#150=CARTESIAN_POINT('Control Point',(454.828956728,800.271089067,99.1411015138)) ;
#151=CARTESIAN_POINT('Control Point',(455.007492825,800.536841228,99.1411013886)) ;
#152=CARTESIAN_POINT('Control Point',(455.069210404,800.685838,99.1411013453)) ;
#153=CARTESIAN_POINT('Control Point',(455.100046049,800.842920074,99.1411013237)) ;
#154=CARTESIAN_POINT('Control Point',(455.100046107,800.99999967,99.1411013237)) ;
#155=CARTESIAN_POINT('Control Point',(454.100042982,800.,98.7127625057)) ;
#156=CARTESIAN_POINT('Control Point',(454.265524646,800.000000041,98.7191538395)) ;
#157=CARTESIAN_POINT('Control Point',(454.431009723,800.034132873,98.7255452746)) ;
#158=CARTESIAN_POINT('Control Point',(454.587109761,800.102459585,98.7316077318)) ;
#159=CARTESIAN_POINT('Control Point',(454.861907209,800.299378595,98.7424207958)) ;
#160=CARTESIAN_POINT('Control Point',(455.036498545,800.589175845,98.7496851701)) ;
#161=CARTESIAN_POINT('Control Point',(455.092306947,800.750461023,98.7521963718)) ;
#162=CARTESIAN_POINT('Control Point',(455.113242108,800.91853659,98.7534510358)) ;
#163=CARTESIAN_POINT('Control Point',(455.100044635,801.084018001,98.7534510475)) ;
#164=CARTESIAN_POINT('Control Point',(454.121715163,800.,98.2771675469)) ;
#165=CARTESIAN_POINT('Control Point',(454.295954511,799.999999584,98.2928322766)) ;
#166=CARTESIAN_POINT('Control Point',(454.470198664,800.037881501,98.3084973162)) ;
#167=CARTESIAN_POINT('Control Point',(454.633492392,800.113727576,98.3232685311)) ;
#168=CARTESIAN_POINT('Control Point',(454.916472934,800.331354881,98.3492480265)) ;
#169=CARTESIAN_POINT('Control Point',(455.083982761,800.64736037,98.3656788429)) ;
#170=CARTESIAN_POINT('Control Point',(455.131687137,800.82168747,98.3708934301)) ;
#171=CARTESIAN_POINT('Control Point',(455.140059974,801.000820984,98.3727835804)) ;
#172=CARTESIAN_POINT('Control Point',(455.110880777,801.173888824,98.371422973)) ;
#173=CARTESIAN_POINT('Control Point',(454.175834735,800.,97.8348631231)) ;
#174=CARTESIAN_POINT('Control Point',(454.357842628,800.000005982,97.8638051842)) ;
#175=CARTESIAN_POINT('Control Point',(454.539857074,800.04211843,97.8927482529)) ;
#176=CARTESIAN_POINT('Control Point',(454.70921147,800.12644769,97.9198112207)) ;
#177=CARTESIAN_POINT('Control Point',(454.997546932,800.367152445,97.9664585557)) ;
#178=CARTESIAN_POINT('Control Point',(455.154110053,800.711204598,97.993446162)) ;
#179=CARTESIAN_POINT('Control Point',(455.191531984,800.899013203,98.0008259412)) ;
#180=CARTESIAN_POINT('Control Point',(455.185097492,801.088747537,98.0015960364)) ;
#181=CARTESIAN_POINT('Control Point',(455.137940402,801.267881042,97.9961205423)) ;
#182=CARTESIAN_POINT('Control Point',(454.334193278,800.,97.1191163915)) ;
#183=CARTESIAN_POINT('Control Point',(454.52888974,799.99999645,97.1782445142)) ;
#184=CARTESIAN_POINT('Control Point',(454.723598352,800.04979983,97.2373750461)) ;
#185=CARTESIAN_POINT('Control Point',(454.902052191,800.1495914,97.2920386917)) ;
#186=CARTESIAN_POINT('Control Point',(455.19444285,800.431658418,97.383595531)) ;
#187=CARTESIAN_POINT('Control Point',(455.322780587,800.823107964,97.4290320307)) ;
#188=CARTESIAN_POINT('Control Point',(455.336895671,801.032476831,97.4375149898)) ;
#189=CARTESIAN_POINT('Control Point',(455.299412871,801.236990943,97.4308899375)) ;
#190=CARTESIAN_POINT('Control Point',(455.217119934,801.421325454,97.4105559677)) ;
#191=CARTESIAN_POINT('Control Point',(454.683080284,800.,96.4440527075)) ;
#192=CARTESIAN_POINT('Control Point',(454.869586919,800.000002107,96.557643421)) ;
#193=CARTESIAN_POINT('Control Point',(455.056113293,800.058726732,96.6712456044)) ;
#194=CARTESIAN_POINT('Control Point',(455.224253324,800.176481231,96.7738440621)) ;
#195=CARTESIAN_POINT('Control Point',(455.487820098,800.504990864,96.9355089665)) ;
#196=CARTESIAN_POINT('Control Point',(455.572389958,800.94384967,96.9896685822)) ;
#197=CARTESIAN_POINT('Control Point',(455.561093025,801.172225857,96.9845051285)) ;
#198=CARTESIAN_POINT('Control Point',(455.497295357,801.385243889,96.9475811913)) ;
#199=CARTESIAN_POINT('Control Point',(455.391563283,801.565315457,96.8850511766)) ;
#200=CARTESIAN_POINT('Control Point',(454.846581384,800.,96.2011323254)) ;
#201=CARTESIAN_POINT('Control Point',(455.02593993,799.999999807,96.3386520489)) ;
#202=CARTESIAN_POINT('Control Point',(455.205321359,800.062195213,96.4761878221)) ;
#203=CARTESIAN_POINT('Control Point',(455.365849047,800.186949765,96.5996656105)) ;
#204=CARTESIAN_POINT('Control Point',(455.612460083,800.533338371,96.791067514)) ;
#205=CARTESIAN_POINT('Control Point',(455.678220213,800.989631141,96.8466569678)) ;
#206=CARTESIAN_POINT('Control Point',(455.657395877,801.224593033,96.8339670407)) ;
#207=CARTESIAN_POINT('Control Point',(455.585118504,801.439754026,96.7820698503)) ;
#208=CARTESIAN_POINT('Control Point',(455.4733142,801.61679726,96.6995011313)) ;
#209=CARTESIAN_POINT('Control Point',(455.168165185,800.,95.8613574213)) ;
#210=CARTESIAN_POINT('Control Point',(455.320857863,800.000000107,96.0454568229)) ;
#211=CARTESIAN_POINT('Control Point',(455.473576189,800.067632897,96.2295849876)) ;
#212=CARTESIAN_POINT('Control Point',(455.608703075,800.203366625,96.3930024063)) ;
#213=CARTESIAN_POINT('Control Point',(455.809690851,800.577280892,96.6382238973)) ;
#214=CARTESIAN_POINT('Control Point',(455.845894741,801.058660501,96.6881769079)) ;
#215=CARTESIAN_POINT('Control Point',(455.815693608,801.302206823,96.6557101209)) ;
#216=CARTESIAN_POINT('Control Point',(455.740922635,801.518351652,96.5696799387)) ;
#217=CARTESIAN_POINT('Control Point',(455.634105619,801.688076657,96.4444130494)) ;
#218=CARTESIAN_POINT('Control Point',(455.592470436,800.,95.646416554)) ;
#219=CARTESIAN_POINT('Control Point',(455.682872673,799.999999941,95.87040742)) ;
#220=CARTESIAN_POINT('Control Point',(455.773292503,800.071475607,96.094440743)) ;
#221=CARTESIAN_POINT('Control Point',(455.852768949,800.214980567,96.2916082058)) ;
#222=CARTESIAN_POINT('Control Point',(455.968707219,800.60804933,96.5803093023)) ;
#223=CARTESIAN_POINT('Control Point',(455.983545287,801.105775787,96.6201794773)) ;
#224=CARTESIAN_POINT('Control Point',(455.961555016,801.354313216,96.5676287747)) ;
#225=CARTESIAN_POINT('Control Point',(455.913047293,801.569696499,96.4494367536)) ;
#226=CARTESIAN_POINT('Control Point',(455.846258512,801.732706466,96.2856242667)) ;
#227=CARTESIAN_POINT('Control Point',(455.756755617,800.,95.5905314381)) ;
#228=CARTESIAN_POINT('Control Point',(455.819594889,799.999998966,95.826460891)) ;
#229=CARTESIAN_POINT('Control Point',(455.882446971,800.072526955,96.0624372893)) ;
#230=CARTESIAN_POINT('Control Point',(455.937574468,800.218162485,96.2696480477)) ;
#231=CARTESIAN_POINT('Control Point',(456.017484796,800.616442892,96.5710340714)) ;
#232=CARTESIAN_POINT('Control Point',(456.026354917,801.118482604,96.607243637)) ;
#233=CARTESIAN_POINT('Control Point',(456.010176975,801.368259171,96.5483028989)) ;
#234=CARTESIAN_POINT('Control Point',(455.975556102,801.583262433,96.4201464694)) ;
#235=CARTESIAN_POINT('Control Point',(455.928400882,801.744256409,96.2445905456)) ;
#236=CARTESIAN_POINT('Control Point',(455.928474551,800.,95.5627410037)) ;
#237=CARTESIAN_POINT('Control Point',(455.959846158,800.000000907,95.8046263295)) ;
#238=CARTESIAN_POINT('Control Point',(455.991224146,800.073053965,96.0465608539)) ;
#239=CARTESIAN_POINT('Control Point',(456.018748247,800.219749787,96.2587806626)) ;
#240=CARTESIAN_POINT('Control Point',(456.058656668,800.62062161,96.5664876604)) ;
#241=CARTESIAN_POINT('Control Point',(456.063114488,801.124804004,96.6008590073)) ;
#242=CARTESIAN_POINT('Control Point',(456.055055821,801.375195556,96.5387241205)) ;
#243=CARTESIAN_POINT('Control Point',(456.037789214,801.59000928,96.4055930142)) ;
#244=CARTESIAN_POINT('Control Point',(456.01426054,801.750001258,96.2241793156)) ;
#245=CARTESIAN_POINT('Control Point',(456.100046396,800.,95.5627418362)) ;
#246=CARTESIAN_POINT('Control Point',(456.100046418,800.000000753,95.8046272666)) ;
#247=CARTESIAN_POINT('Control Point',(456.10004644,800.073053677,96.0465618957)) ;
#248=CARTESIAN_POINT('Control Point',(456.100046458,800.219749405,96.2587817877)) ;
#249=CARTESIAN_POINT('Control Point',(456.100046486,800.620621132,96.5664888703)) ;
#250=CARTESIAN_POINT('Control Point',(456.100046489,801.124803587,96.6008601291)) ;
#251=CARTESIAN_POINT('Control Point',(456.100046483,801.375195202,96.5387251516)) ;
#252=CARTESIAN_POINT('Control Point',(456.100046472,801.590009004,96.4055939226)) ;
#253=CARTESIAN_POINT('Control Point',(456.100046455,801.750001058,96.2241800921)) ;
#255=CARTESIAN_POINT('Control Point',(454.100045842,800.,99.1411020248)) ;
#256=CARTESIAN_POINT('Control Point',(454.492744935,800.000000016,99.1411017495)) ;
#257=CARTESIAN_POINT('Control Point',(454.8904767,800.209569091,99.1411014706)) ;
#258=CARTESIAN_POINT('Control Point',(455.100045961,800.607300681,99.1411013237)) ;
#259=CARTESIAN_POINT('Control Point',(455.100046107,800.99999967,99.1411013237)) ;
#260=CARTESIAN_POINT('Vertex',(454.100045842,800.,99.1411020248)) ;
#264=CARTESIAN_POINT('Control Point',(454.100045842,800.,99.1411020248)) ;
#265=CARTESIAN_POINT('Control Point',(454.100044343,800.,98.9166220944)) ;
#266=CARTESIAN_POINT('Control Point',(454.106024337,800.,98.6901349299)) ;
#267=CARTESIAN_POINT('Control Point',(454.119450468,800.,98.4617635985)) ;
#268=CARTESIAN_POINT('Control Point',(454.162691817,800.,98.0221087701)) ;
#269=CARTESIAN_POINT('Control Point',(454.248419805,800.,97.5791534244)) ;
#270=CARTESIAN_POINT('Control Point',(454.300599072,800.,97.3685778311)) ;
#271=CARTESIAN_POINT('Control Point',(454.448949348,800.,96.8969524111)) ;
#272=CARTESIAN_POINT('Control Point',(454.683066176,800.,96.4442317984)) ;
#273=CARTESIAN_POINT('Control Point',(454.846759192,800.,96.2011253945)) ;
#274=CARTESIAN_POINT('Control Point',(455.123061316,800.,95.9089517913)) ;
#275=CARTESIAN_POINT('Control Point',(455.475641625,800.,95.7090781783)) ;
#276=CARTESIAN_POINT('Control Point',(455.569165306,800.,95.6656965323)) ;
#277=CARTESIAN_POINT('Control Point',(455.729846805,800.,95.608049094)) ;
#278=CARTESIAN_POINT('Control Point',(455.898303902,800.,95.5756169752)) ;
#279=CARTESIAN_POINT('Control Point',(455.965276081,800.,95.5670335964)) ;
#280=CARTESIAN_POINT('Control Point',(456.032658312,800.,95.5627415092)) ;
#281=CARTESIAN_POINT('Control Point',(456.100046396,800.,95.5627418362)) ;
#282=CARTESIAN_POINT('Vertex',(456.100046396,800.,95.5627460668)) ;
#286=CARTESIAN_POINT('Control Point',(456.100046396,800.,95.5627418362)) ;
#287=CARTESIAN_POINT('Control Point',(456.100046439,800.000001507,96.0465126969)) ;
#288=CARTESIAN_POINT('Control Point',(456.100046483,800.289675097,96.5354315023)) ;
#289=CARTESIAN_POINT('Control Point',(456.100046503,800.88937344,96.7620961801)) ;
#290=CARTESIAN_POINT('Control Point',(456.100046488,801.430016949,96.587007753)) ;
#291=CARTESIAN_POINT('Control Point',(456.100046455,801.750001058,96.2241800921)) ;
#301=CARTESIAN_POINT('Control Point',(454.100046584,800.,103.5)) ;
#302=CARTESIAN_POINT('Control Point',(454.309486477,799.999999784,103.50000071)) ;
#303=CARTESIAN_POINT('Control Point',(454.518926369,800.054830845,103.500001419)) ;
#304=CARTESIAN_POINT('Control Point',(454.709148383,800.164655489,103.500002064)) ;
#305=CARTESIAN_POINT('Control Point',(454.861353427,800.318620067,103.500002579)) ;
#306=CARTESIAN_POINT('Control Point',(454.966073131,800.500000267,103.500002934)) ;
#307=CARTESIAN_POINT('Control Point',(454.100047167,800.,102.996252643)) ;
#308=CARTESIAN_POINT('Control Point',(454.309486602,799.999999978,102.996253877)) ;
#309=CARTESIAN_POINT('Control Point',(454.518926037,800.054831045,102.996255111)) ;
#310=CARTESIAN_POINT('Control Point',(454.709147702,800.164655493,102.996256231)) ;
#311=CARTESIAN_POINT('Control Point',(454.861352606,800.318619727,102.996257127)) ;
#312=CARTESIAN_POINT('Control Point',(454.966072402,800.499999531,102.996257744)) ;
#313=CARTESIAN_POINT('Control Point',(454.10005118,800.,102.492578747)) ;
#314=CARTESIAN_POINT('Control Point',(454.31315184,800.000000169,102.492571802)) ;
#315=CARTESIAN_POINT('Control Point',(454.526252501,800.056748007,102.492564858)) ;
#316=CARTESIAN_POINT('Control Point',(454.719124158,800.170421803,102.492558608)) ;
#317=CARTESIAN_POINT('Control Point',(454.872004756,800.329388305,102.492553731)) ;
#318=CARTESIAN_POINT('Control Point',(454.975233588,800.515863535,102.492550538)) ;
#319=CARTESIAN_POINT('Control Point',(454.100043072,800.,101.990499876)) ;
#320=CARTESIAN_POINT('Control Point',(454.320479771,799.999999981,101.990506564)) ;
#321=CARTESIAN_POINT('Control Point',(454.540916469,800.060587917,101.990513252)) ;
#322=CARTESIAN_POINT('Control Point',(454.73908929,800.181975896,101.990519246)) ;
#323=CARTESIAN_POINT('Control Point',(454.893308143,800.350939733,101.990523862)) ;
#324=CARTESIAN_POINT('Control Point',(454.993562104,800.547574539,101.990526779)) ;
#325=CARTESIAN_POINT('Control Point',(454.100048623,800.,101.111965378)) ;
#326=CARTESIAN_POINT('Control Point',(454.339071491,800.000000014,101.111962595)) ;
#327=CARTESIAN_POINT('Control Point',(454.578094358,800.070935652,101.111959812)) ;
#328=CARTESIAN_POINT('Control Point',(454.789086138,800.213120268,101.111957271)) ;
#329=CARTESIAN_POINT('Control Point',(454.944905881,800.408651248,101.111955213)) ;
#330=CARTESIAN_POINT('Control Point',(455.034812102,800.631443573,101.111953789)) ;
#331=CARTESIAN_POINT('Control Point',(454.10004491,800.,100.245065625)) ;
#332=CARTESIAN_POINT('Control Point',(454.36716102,799.999999989,100.245066242)) ;
#333=CARTESIAN_POINT('Control Point',(454.634277129,800.088890969,100.245066859)) ;
#334=CARTESIAN_POINT('Control Point',(454.861685622,800.267293194,100.245067479)) ;
#335=CARTESIAN_POINT('Control Point',(455.011777569,800.505968467,100.245068097)) ;
#336=CARTESIAN_POINT('Control Point',(455.075382292,800.766167432,100.245068662)) ;
#337=CARTESIAN_POINT('Control Point',(454.100046654,800.,99.8735770679)) ;
#338=CARTESIAN_POINT('Control Point',(454.380999938,799.999999886,99.8735782876)) ;
#339=CARTESIAN_POINT('Control Point',(454.661953222,800.098259281,99.8735795073)) ;
#340=CARTESIAN_POINT('Control Point',(454.896727492,800.295591434,99.8735804354)) ;
#341=CARTESIAN_POINT('Control Point',(455.042074121,800.556068526,99.8735808105)) ;
#342=CARTESIAN_POINT('Control Point',(455.090349481,800.83398238,99.8735806486)) ;
#343=CARTESIAN_POINT('Control Point',(454.100046396,800.,99.5049962664)) ;
#344=CARTESIAN_POINT('Control Point',(454.396581412,800.,99.5049962664)) ;
#345=CARTESIAN_POINT('Control Point',(454.693116428,800.109528001,99.5049962664)) ;
#346=CARTESIAN_POINT('Control Point',(454.935150182,800.329680245,99.5049962664)) ;
#347=CARTESIAN_POINT('Control Point',(455.07236229,800.615343737,99.5049962664)) ;
#348=CARTESIAN_POINT('Control Point',(455.100046396,800.911878753,99.5049962664)) ;
#349=CARTESIAN_POINT('Control Point',(454.100046396,800.,99.1411010565)) ;
#350=CARTESIAN_POINT('Control Point',(454.414205662,800.,99.1411010565)) ;
#351=CARTESIAN_POINT('Control Point',(454.728364927,800.123370055,99.1411010565)) ;
#352=CARTESIAN_POINT('Control Point',(454.976676341,800.371681469,99.1411010565)) ;
#353=CARTESIAN_POINT('Control Point',(455.100046396,800.685840735,99.1411010565)) ;
#354=CARTESIAN_POINT('Control Point',(455.100046396,801.,99.1411010565)) ;
#356=CARTESIAN_POINT('Control Point',(454.100046584,800.,103.5)) ;
#357=CARTESIAN_POINT('Control Point',(454.100046719,800.,103.383720139)) ;
#358=CARTESIAN_POINT('Control Point',(454.100046948,800.,103.267444955)) ;
#359=CARTESIAN_POINT('Control Point',(454.100047279,800.,103.151192397)) ;
#360=CARTESIAN_POINT('Control Point',(454.100048824,800.,102.647736909)) ;
#361=CARTESIAN_POINT('Control Point',(454.100045234,800.,102.145403809)) ;
#362=CARTESIAN_POINT('Control Point',(454.100044295,800.,101.760277517)) ;
#363=CARTESIAN_POINT('Control Point',(454.10004724,800.,101.186825806)) ;
#364=CARTESIAN_POINT('Control Point',(454.10004606,800.,100.618418902)) ;
#365=CARTESIAN_POINT('Control Point',(454.100046326,800.,100.430551963)) ;
#366=CARTESIAN_POINT('Control Point',(454.10004646,800.,100.057763363)) ;
#367=CARTESIAN_POINT('Control Point',(454.100046337,800.,99.688021879)) ;
#368=CARTESIAN_POINT('Control Point',(454.100046396,800.,99.5046373671)) ;
#369=CARTESIAN_POINT('Control Point',(454.100046396,800.,99.3223116386)) ;
#370=CARTESIAN_POINT('Control Point',(454.100046396,800.,99.1411010565)) ;
#371=CARTESIAN_POINT('Vertex',(454.100046377,800.,103.5)) ;
#375=CARTESIAN_POINT('Control Point',(454.966073131,800.500000267,103.5)) ;
#376=CARTESIAN_POINT('Control Point',(454.966072973,800.500000114,103.383721226)) ;
#377=CARTESIAN_POINT('Control Point',(454.966560671,800.500845065,103.267446861)) ;
#378=CARTESIAN_POINT('Control Point',(454.967536286,800.502534988,103.151194577)) ;
#379=CARTESIAN_POINT('Control Point',(454.973830546,800.513517402,102.647734947)) ;
#380=CARTESIAN_POINT('Control Point',(454.988672783,800.540372171,102.145387429)) ;
#381=CARTESIAN_POINT('Control Point',(455.004362049,800.570439588,101.760307138)) ;
#382=CARTESIAN_POINT('Control Point',(455.031287106,800.629650693,101.18681701)) ;
#383=CARTESIAN_POINT('Control Point',(455.057901582,800.710578668,100.618421033)) ;
#384=CARTESIAN_POINT('Control Point',(455.066394357,800.739829447,100.430555854)) ;
#385=CARTESIAN_POINT('Control Point',(455.08198014,800.802960395,100.057760074)) ;
#386=CARTESIAN_POINT('Control Point',(455.093379168,800.875937595,99.6880246276)) ;
#387=CARTESIAN_POINT('Control Point',(455.097639343,800.914777516,99.5046444035)) ;
#388=CARTESIAN_POINT('Control Point',(455.100046396,800.956117855,99.3223116386)) ;
#389=CARTESIAN_POINT('Control Point',(455.100046396,801.,99.1411010565)) ;
#390=CARTESIAN_POINT('Vertex',(454.966071819,800.500000033,103.5)) ;
#394=CARTESIAN_POINT('Control Point',(454.100046584,800.,103.5)) ;
#395=CARTESIAN_POINT('Control Point',(454.361667847,799.999999731,103.5)) ;
#396=CARTESIAN_POINT('Control Point',(454.625570432,800.092178688,103.5)) ;
#397=CARTESIAN_POINT('Control Point',(454.835262744,800.273429589,103.5)) ;
#398=CARTESIAN_POINT('Control Point',(454.966073131,800.500000267,103.5)) ;
#407=CARTESIAN_POINT('Axis2P3D Location',(454.100046396,801.,96.)) ;
#412=CARTESIAN_POINT('Axis2P3D Location',(454.100046396,801.,103.5)) ;
#423=CARTESIAN_POINT('Axis2P3D Location',(470.100046396,810.,103.5)) ;
#428=CARTESIAN_POINT('Line Origine',(470.100046396,818.25,96.2241838946)) ;
#432=CARTESIAN_POINT('Vertex',(485.100046396,818.25,96.2241838946)) ;
#434=CARTESIAN_POINT('Vertex',(456.100046396,818.25,96.2241838946)) ;
#437=CARTESIAN_POINT('Axis2P3D Location',(456.100046396,810.,103.5)) ;
#441=CARTESIAN_POINT('Vertex',(456.100046396,816.,94.2804555427)) ;
#444=CARTESIAN_POINT('Line Origine',(470.100046396,816.,94.2804555427)) ;
#448=CARTESIAN_POINT('Vertex',(455.100046396,816.,94.2804555426)) ;
#451=CARTESIAN_POINT('Axis2P3D Location',(455.100046396,810.,103.5)) ;
#455=CARTESIAN_POINT('Vertex',(455.100046396,804.,94.2804555427)) ;
#458=CARTESIAN_POINT('Line Origine',(470.100046396,804.,94.2804555427)) ;
#463=CARTESIAN_POINT('Line Origine',(470.100046396,801.75,96.2241838946)) ;
#467=CARTESIAN_POINT('Vertex',(485.100046396,801.75,96.2241838946)) ;
#470=CARTESIAN_POINT('Axis2P3D Location',(485.100046396,810.,103.5)) ;
#486=CARTESIAN_POINT('Axis2P3D Location',(456.234386969,819.,95.5627460668)) ;
#491=CARTESIAN_POINT('Line Origine',(456.234386969,820.,95.5627460668)) ;
#495=CARTESIAN_POINT('Vertex',(485.100046396,820.,95.5627460668)) ;
#497=CARTESIAN_POINT('Vertex',(456.100046396,820.,95.5627460668)) ;
#500=CARTESIAN_POINT('Axis2P3D Location',(456.100046396,819.,95.5627460668)) ;
#505=CARTESIAN_POINT('Axis2P3D Location',(485.100046396,819.,95.5627460668)) ;
#517=CARTESIAN_POINT('Axis2P3D Location',(456.350046396,801.,95.5627460668)) ;
#522=CARTESIAN_POINT('Line Origine',(456.350046396,800.,95.5627460668)) ;
#526=CARTESIAN_POINT('Vertex',(485.100046396,800.,95.5627460668)) ;
#529=CARTESIAN_POINT('Axis2P3D Location',(485.100046396,801.,95.5627460668)) ;
#541=CARTESIAN_POINT('Axis2P3D Location',(456.100046396,810.,103.5)) ;
#547=CARTESIAN_POINT('Control Point',(456.100046396,818.25,96.2241838946)) ;
#548=CARTESIAN_POINT('Control Point',(455.973430596,818.25,96.2241838946)) ;
#549=CARTESIAN_POINT('Control Point',(455.846815577,818.262524657,96.2686823226)) ;
#550=CARTESIAN_POINT('Control Point',(455.733392065,818.287355801,96.3569019879)) ;
#551=CARTESIAN_POINT('Control Point',(455.541215436,818.349366614,96.5779696787)) ;
#552=CARTESIAN_POINT('Control Point',(455.403184729,818.429498832,96.8668788121)) ;
#553=CARTESIAN_POINT('Control Point',(455.346844827,818.471284055,97.0187168599)) ;
#554=CARTESIAN_POINT('Control Point',(455.203763984,818.60296133,97.5025734306)) ;
#555=CARTESIAN_POINT('Control Point',(455.135366411,818.741261087,98.0327033208)) ;
#556=CARTESIAN_POINT('Control Point',(455.110218941,818.832035125,98.3965640313)) ;
#557=CARTESIAN_POINT('Control Point',(455.100045884,818.918807387,98.7665030538)) ;
#558=CARTESIAN_POINT('Control Point',(455.100046396,818.999994287,99.1411022945)) ;
#559=CARTESIAN_POINT('Vertex',(455.100046396,819.,99.1411010565)) ;
#562=CARTESIAN_POINT('Axis2P3D Location',(455.100046396,810.,103.5)) ;
#566=CARTESIAN_POINT('Vertex',(455.100046396,816.,95.4999999999)) ;
#570=CARTESIAN_POINT('Control Point',(455.100046396,816.,95.5)) ;
#571=CARTESIAN_POINT('Control Point',(455.100046396,816.,95.1512630083)) ;
#572=CARTESIAN_POINT('Control Point',(455.197682163,815.99999956,94.805324806)) ;
#573=CARTESIAN_POINT('Control Point',(455.398904559,816.000000258,94.4685364227)) ;
#574=CARTESIAN_POINT('Control Point',(455.751309405,816.,94.2804555427)) ;
#575=CARTESIAN_POINT('Control Point',(456.100046396,816.,94.2804555427)) ;
#585=CARTESIAN_POINT('Control Point',(456.100046396,820.,95.5627460668)) ;
#586=CARTESIAN_POINT('Control Point',(456.100046396,820.,95.8046319074)) ;
#587=CARTESIAN_POINT('Control Point',(456.100046396,819.926947738,96.046566947)) ;
#588=CARTESIAN_POINT('Control Point',(456.100046396,819.780252487,96.2587871613)) ;
#589=CARTESIAN_POINT('Control Point',(456.100046396,819.379381266,96.5664945475)) ;
#590=CARTESIAN_POINT('Control Point',(456.100046396,818.875198545,96.6008653976)) ;
#591=CARTESIAN_POINT('Control Point',(456.100046396,818.624806629,96.5387300252)) ;
#592=CARTESIAN_POINT('Control Point',(456.100046396,818.409992445,96.405598275)) ;
#593=CARTESIAN_POINT('Control Point',(456.100046396,818.25,96.2241838946)) ;
#594=CARTESIAN_POINT('Control Point',(455.846814796,820.,95.5627460668)) ;
#595=CARTESIAN_POINT('Control Point',(455.893117817,820.,95.8046319074)) ;
#596=CARTESIAN_POINT('Control Point',(455.939430255,819.926947738,96.046566947)) ;
#597=CARTESIAN_POINT('Control Point',(455.98005453,819.780252487,96.2587871613)) ;
#598=CARTESIAN_POINT('Control Point',(456.038957446,819.379381266,96.5664945475)) ;
#599=CARTESIAN_POINT('Control Point',(456.045536889,818.875198545,96.6008653976)) ;
#600=CARTESIAN_POINT('Control Point',(456.03364262,818.624806629,96.5387300252)) ;
#601=CARTESIAN_POINT('Control Point',(456.008157862,818.409992445,96.405598275)) ;
#602=CARTESIAN_POINT('Control Point',(455.973430596,818.25,96.2241838946)) ;
#603=CARTESIAN_POINT('Control Point',(455.593192838,820.,95.6236470135)) ;
#604=CARTESIAN_POINT('Control Point',(455.686220273,820.000000295,95.8522171114)) ;
#605=CARTESIAN_POINT('Control Point',(455.779266758,819.928102406,96.0808312923)) ;
#606=CARTESIAN_POINT('Control Point',(455.860860657,819.78374298,96.2818625095)) ;
#607=CARTESIAN_POINT('Control Point',(455.979061655,819.388578941,96.5754939898)) ;
#608=CARTESIAN_POINT('Control Point',(455.99198555,818.889102403,96.6140803065)) ;
#609=CARTESIAN_POINT('Control Point',(455.967908129,818.640052778,96.5591469453)) ;
#610=CARTESIAN_POINT('Control Point',(455.916527977,818.424802845,96.4371874643)) ;
#611=CARTESIAN_POINT('Control Point',(455.846619376,818.262584038,96.2688939881)) ;
#612=CARTESIAN_POINT('Control Point',(455.366624543,820.,95.7436218266)) ;
#613=CARTESIAN_POINT('Control Point',(455.492356635,820.000000007,95.9476250461)) ;
#614=CARTESIAN_POINT('Control Point',(455.618111531,819.930334295,96.1516634361)) ;
#615=CARTESIAN_POINT('Control Point',(455.728985533,819.790491349,96.331987045)) ;
#616=CARTESIAN_POINT('Control Point',(455.892190538,819.406395119,96.5992847295)) ;
#617=CARTESIAN_POINT('Control Point',(455.91699018,818.916144726,96.6449688251)) ;
#618=CARTESIAN_POINT('Control Point',(455.888979157,818.669785128,96.6029349283)) ;
#619=CARTESIAN_POINT('Control Point',(455.824119024,818.453811055,96.5012738928)) ;
#620=CARTESIAN_POINT('Control Point',(455.733335524,818.287396608,96.3570459346)) ;
#621=CARTESIAN_POINT('Control Point',(454.98249456,820.,96.0401786522)) ;
#622=CARTESIAN_POINT('Control Point',(455.151895947,819.999999993,96.1979981611)) ;
#623=CARTESIAN_POINT('Control Point',(455.321321743,819.935315448,96.3558389864)) ;
#624=CARTESIAN_POINT('Control Point',(455.472200674,819.805536994,96.4967810724)) ;
#625=CARTESIAN_POINT('Control Point',(455.70081135,819.44648761,96.7119766443)) ;
#626=CARTESIAN_POINT('Control Point',(455.753309841,818.978421351,96.7658308285)) ;
#627=CARTESIAN_POINT('Control Point',(455.727549349,818.739302378,96.7449678869)) ;
#628=CARTESIAN_POINT('Control Point',(455.652739459,818.523374094,96.6786462771)) ;
#629=CARTESIAN_POINT('Control Point',(455.541270425,818.349326927,96.5778296804)) ;
#630=CARTESIAN_POINT('Control Point',(454.706215996,820.,96.4195477727)) ;
#631=CARTESIAN_POINT('Control Point',(454.891323906,820.000000007,96.5361473985)) ;
#632=CARTESIAN_POINT('Control Point',(455.076451941,819.940883815,96.6527590738)) ;
#633=CARTESIAN_POINT('Control Point',(455.2431898,819.822336647,96.7579699091)) ;
#634=CARTESIAN_POINT('Control Point',(455.503954152,819.49183207,96.9232956556)) ;
#635=CARTESIAN_POINT('Control Point',(455.586061013,819.051147575,96.9774381287)) ;
#636=CARTESIAN_POINT('Control Point',(455.573694071,818.822144305,96.9711963216)) ;
#637=CARTESIAN_POINT('Control Point',(455.509146481,818.609056778,96.9322306599)) ;
#638=CARTESIAN_POINT('Control Point',(455.403131248,818.429537431,96.8670149702)) ;
#639=CARTESIAN_POINT('Control Point',(454.593668068,820.,96.6156290986)) ;
#640=CARTESIAN_POINT('Control Point',(454.782419457,819.999999967,96.7152840096)) ;
#641=CARTESIAN_POINT('Control Point',(454.971188679,819.943546048,96.814948035)) ;
#642=CARTESIAN_POINT('Control Point',(455.142092676,819.830363054,96.9052882215)) ;
#643=CARTESIAN_POINT('Control Point',(455.413188881,819.513668434,97.0490557469)) ;
#644=CARTESIAN_POINT('Control Point',(455.508889896,819.086857912,97.1010702805)) ;
#645=CARTESIAN_POINT('Control Point',(455.503997311,818.863306231,97.0994517595)) ;
#646=CARTESIAN_POINT('Control Point',(455.446779135,818.652436127,97.0703326829)) ;
#647=CARTESIAN_POINT('Control Point',(455.346857256,818.471264175,97.0186385375)) ;
#648=CARTESIAN_POINT('Control Point',(454.307430689,820.,97.2324415205)) ;
#649=CARTESIAN_POINT('Control Point',(454.500054785,820.000000067,97.2865867565)) ;
#650=CARTESIAN_POINT('Control Point',(454.692690046,819.951434734,97.3407341894)) ;
#651=CARTESIAN_POINT('Control Point',(454.869671114,819.854134745,97.3908460738)) ;
#652=CARTESIAN_POINT('Control Point',(455.161477056,819.578718338,97.4750165528)) ;
#653=CARTESIAN_POINT('Control Point',(455.294577176,819.194825165,97.5174881049)) ;
#654=CARTESIAN_POINT('Control Point',(455.312588535,818.988864002,97.5258465897)) ;
#655=CARTESIAN_POINT('Control Point',(455.280255176,818.786630072,97.5205205389)) ;
#656=CARTESIAN_POINT('Control Point',(455.203738494,818.603002104,97.5027340659)) ;
#657=CARTESIAN_POINT('Control Point',(454.170790787,820.,97.8775122622)) ;
#658=CARTESIAN_POINT('Control Point',(454.352210744,819.999999862,97.9051334946)) ;
#659=CARTESIAN_POINT('Control Point',(454.533637175,819.958295988,97.9327556013)) ;
#660=CARTESIAN_POINT('Control Point',(454.702535721,819.87478021,97.9586042359)) ;
#661=CARTESIAN_POINT('Control Point',(454.990485063,819.636285614,98.0032435443)) ;
#662=CARTESIAN_POINT('Control Point',(455.147966611,819.294925099,98.0292725126)) ;
#663=CARTESIAN_POINT('Control Point',(455.186239457,819.108414116,98.0364899327)) ;
#664=CARTESIAN_POINT('Control Point',(455.181043337,818.919708598,98.0374163499)) ;
#665=CARTESIAN_POINT('Control Point',(455.135418692,818.741177463,98.0323738656)) ;
#666=CARTESIAN_POINT('Control Point',(454.120281142,820.,98.3058307234)) ;
#667=CARTESIAN_POINT('Control Point',(454.293928774,820.000000054,98.3208800567)) ;
#668=CARTESIAN_POINT('Control Point',(454.467581111,819.962365317,98.3359296879)) ;
#669=CARTESIAN_POINT('Control Point',(454.630389091,819.887015383,98.3501233009)) ;
#670=CARTESIAN_POINT('Control Point',(454.912818283,819.670753925,98.3750983571)) ;
#671=CARTESIAN_POINT('Control Point',(455.080806144,819.35647412,98.3909269959)) ;
#672=CARTESIAN_POINT('Control Point',(455.129056505,819.183004504,98.3959665802)) ;
#673=CARTESIAN_POINT('Control Point',(455.138273158,819.004595847,98.3978205493)) ;
#674=CARTESIAN_POINT('Control Point',(455.110163672,818.832022392,98.3965574222)) ;
#675=CARTESIAN_POINT('Control Point',(454.100042599,820.,98.7271869211)) ;
#676=CARTESIAN_POINT('Control Point',(454.265241329,819.999999964,98.7333627691)) ;
#677=CARTESIAN_POINT('Control Point',(454.430443441,819.965978178,98.7395387149)) ;
#678=CARTESIAN_POINT('Control Point',(454.586304291,819.897874051,98.7453967888)) ;
#679=CARTESIAN_POINT('Control Point',(454.860797192,819.701574129,98.755845372)) ;
#680=CARTESIAN_POINT('Control Point',(455.035521466,819.412586588,98.7628650477)) ;
#681=CARTESIAN_POINT('Control Point',(455.09152892,819.251715194,98.7652917351)) ;
#682=CARTESIAN_POINT('Control Point',(455.112797542,819.084009769,98.7665042877)) ;
#683=CARTESIAN_POINT('Control Point',(455.100044547,818.918811185,98.7665045161)) ;
#684=CARTESIAN_POINT('Control Point',(454.100040266,820.,99.1411209931)) ;
#685=CARTESIAN_POINT('Control Point',(454.257119674,820.000000026,99.1411187276)) ;
#686=CARTESIAN_POINT('Control Point',(454.414201569,819.96916474,99.1411164621)) ;
#687=CARTESIAN_POINT('Control Point',(454.563198253,819.907447794,99.1411143131)) ;
#688=CARTESIAN_POINT('Control Point',(454.828950575,819.728913377,99.1411104803)) ;
#689=CARTESIAN_POINT('Control Point',(455.007487507,819.463163203,99.1411079053)) ;
#690=CARTESIAN_POINT('Control Point',(455.069205742,819.314167441,99.1411070152)) ;
#691=CARTESIAN_POINT('Control Point',(455.100042279,819.157086266,99.1411065704)) ;
#692=CARTESIAN_POINT('Control Point',(455.100043408,819.000007352,99.1411065704)) ;
#694=CARTESIAN_POINT('Control Point',(456.100046396,820.,95.5627460668)) ;
#695=CARTESIAN_POINT('Control Point',(455.948360619,820.,95.5627460668)) ;
#696=CARTESIAN_POINT('Control Point',(455.796675724,820.,95.5844871265)) ;
#697=CARTESIAN_POINT('Control Point',(455.650386494,820.,95.6279722263)) ;
#698=CARTESIAN_POINT('Control Point',(455.421081566,820.,95.7297458119)) ;
#699=CARTESIAN_POINT('Control Point',(455.219453153,820.,95.8699753015)) ;
#700=CARTESIAN_POINT('Control Point',(455.143294417,820.,95.9313320118)) ;
#701=CARTESIAN_POINT('Control Point',(454.991297438,820.,96.0705289686)) ;
#702=CARTESIAN_POINT('Control Point',(454.85955361,820.,96.2250602865)) ;
#703=CARTESIAN_POINT('Control Point',(454.795141695,820.,96.3102296407)) ;
#704=CARTESIAN_POINT('Control Point',(454.667402801,820.,96.4988387784)) ;
#705=CARTESIAN_POINT('Control Point',(454.561177363,820.,96.6966125069)) ;
#706=CARTESIAN_POINT('Control Point',(454.509916727,820.,96.804256305)) ;
#707=CARTESIAN_POINT('Control Point',(454.40998656,820.,97.0398321582)) ;
#708=CARTESIAN_POINT('Control Point',(454.331554165,820.,97.2796098379)) ;
#709=CARTESIAN_POINT('Control Point',(454.294880861,820.,97.4091216628)) ;
#710=CARTESIAN_POINT('Control Point',(454.225925018,820.,97.6906741636)) ;
#711=CARTESIAN_POINT('Control Point',(454.177566555,820.,97.9723245375)) ;
#712=CARTESIAN_POINT('Control Point',(454.156620282,820.,98.1241540824)) ;
#713=CARTESIAN_POINT('Control Point',(454.124464245,820.,98.4204239434)) ;
#714=CARTESIAN_POINT('Control Point',(454.107549855,820.,98.7139895452)) ;
#715=CARTESIAN_POINT('Control Point',(454.102420843,820.,98.8572364519)) ;
#716=CARTESIAN_POINT('Control Point',(454.100041064,820.,98.9996114879)) ;
#717=CARTESIAN_POINT('Control Point',(454.100040266,820.,99.1411209931)) ;
#718=CARTESIAN_POINT('Vertex',(454.100040266,820.,99.1411209931)) ;
#722=CARTESIAN_POINT('Control Point',(454.100040266,820.,99.1411209931)) ;
#723=CARTESIAN_POINT('Control Point',(454.492738785,820.000000064,99.1411153294)) ;
#724=CARTESIAN_POINT('Control Point',(454.890469893,819.790432954,99.141109593)) ;
#725=CARTESIAN_POINT('Control Point',(455.100040585,819.392704636,99.1411065704)) ;
#726=CARTESIAN_POINT('Control Point',(455.100043408,819.000007352,99.1411065704)) ;
#736=CARTESIAN_POINT('Control Point',(454.100046396,820.,99.1411010565)) ;
#737=CARTESIAN_POINT('Control Point',(454.414205662,820.,99.1411010565)) ;
#738=CARTESIAN_POINT('Control Point',(454.728364927,819.876629945,99.1411010565)) ;
#739=CARTESIAN_POINT('Control Point',(454.976676341,819.628318531,99.1411010565)) ;
#740=CARTESIAN_POINT('Control Point',(455.100046396,819.314159265,99.1411010565)) ;
#741=CARTESIAN_POINT('Control Point',(455.100046396,819.,99.1411010565)) ;
#742=CARTESIAN_POINT('Control Point',(454.100046396,820.,99.4418504076)) ;
#743=CARTESIAN_POINT('Control Point',(454.399639706,820.,99.4418504076)) ;
#744=CARTESIAN_POINT('Control Point',(454.699233015,819.88807002,99.4418504076)) ;
#745=CARTESIAN_POINT('Control Point',(454.942356116,819.663031383,99.4418504076)) ;
#746=CARTESIAN_POINT('Control Point',(455.077166246,819.372423089,99.4418504076)) ;
#747=CARTESIAN_POINT('Control Point',(455.100046396,819.072829779,99.4418504076)) ;
#748=CARTESIAN_POINT('Control Point',(454.100046395,820.,99.7456524579)) ;
#749=CARTESIAN_POINT('Control Point',(454.386473941,820.000001593,99.745665452)) ;
#750=CARTESIAN_POINT('Control Point',(454.672901487,819.897751334,99.745678446)) ;
#751=CARTESIAN_POINT('Control Point',(454.91016521,819.692331353,99.7456889849)) ;
#752=CARTESIAN_POINT('Control Point',(455.052509383,819.42301004,99.7456948193)) ;
#753=CARTESIAN_POINT('Control Point',(455.093416175,819.138665148,99.7456958031)) ;
#754=CARTESIAN_POINT('Control Point',(454.100046402,820.,100.050834965)) ;
#755=CARTESIAN_POINT('Control Point',(454.374565651,820.000000791,100.050836247)) ;
#756=CARTESIAN_POINT('Control Point',(454.6490849,819.906031318,100.050837528)) ;
#757=CARTESIAN_POINT('Control Point',(454.880337841,819.717361784,100.050838729)) ;
#758=CARTESIAN_POINT('Control Point',(455.027630003,819.466963701,100.050839757)) ;
#759=CARTESIAN_POINT('Control Point',(455.082722535,819.197413349,100.0508405)) ;
#760=CARTESIAN_POINT('Control Point',(454.100045314,820.,100.914696903)) ;
#761=CARTESIAN_POINT('Control Point',(454.344381688,819.999998574,100.914695212)) ;
#762=CARTESIAN_POINT('Control Point',(454.588718063,819.926009383,100.914693522)) ;
#763=CARTESIAN_POINT('Control Point',(454.803291104,819.777689494,100.914691896)) ;
#764=CARTESIAN_POINT('Control Point',(454.959305475,819.574347839,100.914690426)) ;
#765=CARTESIAN_POINT('Control Point',(455.045803671,819.34397658,100.914689287)) ;
#766=CARTESIAN_POINT('Control Point',(454.100048603,820.,101.791707927)) ;
#767=CARTESIAN_POINT('Control Point',(454.323581731,820.000002571,101.791708768)) ;
#768=CARTESIAN_POINT('Control Point',(454.547114858,819.937788921,101.791709609)) ;
#769=CARTESIAN_POINT('Control Point',(454.747512184,819.813131055,101.791710626)) ;
#770=CARTESIAN_POINT('Control Point',(454.902269934,819.639952042,101.791711934)) ;
#771=CARTESIAN_POINT('Control Point',(455.001253138,819.439049508,101.791713303)) ;
#772=CARTESIAN_POINT('Control Point',(454.100046395,820.,102.358921039)) ;
#773=CARTESIAN_POINT('Control Point',(454.314180372,820.000004311,102.358930423)) ;
#774=CARTESIAN_POINT('Control Point',(454.528314349,819.942719203,102.358939807)) ;
#775=CARTESIAN_POINT('Control Point',(454.721936031,819.82796177,102.358948349)) ;
#776=CARTESIAN_POINT('Control Point',(454.875010738,819.667579189,102.358955223)) ;
#777=CARTESIAN_POINT('Control Point',(454.977817271,819.479656248,102.358959998)) ;
#778=CARTESIAN_POINT('Control Point',(454.100046396,820.,102.929473891)) ;
#779=CARTESIAN_POINT('Control Point',(454.309485906,820.,102.929473891)) ;
#780=CARTESIAN_POINT('Control Point',(454.518925417,819.945168864,102.929473891)) ;
#781=CARTESIAN_POINT('Control Point',(454.709147133,819.835344305,102.929473891)) ;
#782=CARTESIAN_POINT('Control Point',(454.861352045,819.681379936,102.929473891)) ;
#783=CARTESIAN_POINT('Control Point',(454.9660718,819.5,102.929473891)) ;
#784=CARTESIAN_POINT('Control Point',(454.100046396,820.,103.5)) ;
#785=CARTESIAN_POINT('Control Point',(454.309485906,820.,103.5)) ;
#786=CARTESIAN_POINT('Control Point',(454.518925417,819.945168864,103.5)) ;
#787=CARTESIAN_POINT('Control Point',(454.709147133,819.835344305,103.5)) ;
#788=CARTESIAN_POINT('Control Point',(454.861352045,819.681379936,103.5)) ;
#789=CARTESIAN_POINT('Control Point',(454.9660718,819.5,103.5)) ;
#791=CARTESIAN_POINT('Control Point',(454.100046396,820.,99.1411010565)) ;
#792=CARTESIAN_POINT('Control Point',(454.100046396,820.,99.4418504076)) ;
#793=CARTESIAN_POINT('Control Point',(454.100046395,820.,99.7456524579)) ;
#794=CARTESIAN_POINT('Control Point',(454.100046402,820.,100.050834965)) ;
#795=CARTESIAN_POINT('Control Point',(454.100045314,820.,100.914696903)) ;
#796=CARTESIAN_POINT('Control Point',(454.100048603,820.,101.791707927)) ;
#797=CARTESIAN_POINT('Control Point',(454.100046395,820.,102.358921039)) ;
#798=CARTESIAN_POINT('Control Point',(454.100046396,820.,102.929473891)) ;
#799=CARTESIAN_POINT('Control Point',(454.100046396,820.,103.5)) ;
#800=CARTESIAN_POINT('Vertex',(454.100046396,820.,103.5)) ;
#804=CARTESIAN_POINT('Control Point',(454.100046396,820.,103.5)) ;
#805=CARTESIAN_POINT('Control Point',(454.361841868,820.,103.5)) ;
#806=CARTESIAN_POINT('Control Point',(454.62442563,819.908246953,103.5)) ;
#807=CARTESIAN_POINT('Control Point',(454.835174064,819.726721529,103.5)) ;
#808=CARTESIAN_POINT('Control Point',(454.9660718,819.5,103.5)) ;
#809=CARTESIAN_POINT('Vertex',(454.9660718,819.5,103.5)) ;
#813=CARTESIAN_POINT('Control Point',(455.100046396,819.,99.1411010565)) ;
#814=CARTESIAN_POINT('Control Point',(455.100046396,819.072829779,99.4418504076)) ;
#815=CARTESIAN_POINT('Control Point',(455.093416175,819.138665148,99.7456958031)) ;
#816=CARTESIAN_POINT('Control Point',(455.082722535,819.197413349,100.0508405)) ;
#817=CARTESIAN_POINT('Control Point',(455.045803671,819.34397658,100.914689287)) ;
#818=CARTESIAN_POINT('Control Point',(455.001253138,819.439049508,101.791713303)) ;
#819=CARTESIAN_POINT('Control Point',(454.977817271,819.479656248,102.358959998)) ;
#820=CARTESIAN_POINT('Control Point',(454.9660718,819.5,102.929473891)) ;
#821=CARTESIAN_POINT('Control Point',(454.9660718,819.5,103.5)) ;
#830=CARTESIAN_POINT('Line Origine',(455.100046396,819.,101.320550528)) ;
#834=CARTESIAN_POINT('Vertex',(455.100046396,819.,103.5)) ;
#837=CARTESIAN_POINT('Line Origine',(455.100046396,817.5,103.5)) ;
#841=CARTESIAN_POINT('Vertex',(455.100046396,816.,103.5)) ;
#844=CARTESIAN_POINT('Line Origine',(455.100046396,816.,99.5)) ;
#856=CARTESIAN_POINT('Axis2P3D Location',(454.100046396,819.,96.)) ;
#861=CARTESIAN_POINT('Axis2P3D Location',(454.100046396,819.,103.5)) ;
#873=CARTESIAN_POINT('Control Point',(435.100046396,816.,103.5)) ;
#874=CARTESIAN_POINT('Control Point',(433.921949151,816.,103.5)) ;
#875=CARTESIAN_POINT('Control Point',(432.743851906,816.,103.268681147)) ;
#876=CARTESIAN_POINT('Control Point',(431.626393769,816.,102.805814831)) ;
#877=CARTESIAN_POINT('Control Point',(429.633178408,816.,101.466867989)) ;
#878=CARTESIAN_POINT('Control Point',(428.294231565,816.,99.4736526274)) ;
#879=CARTESIAN_POINT('Control Point',(427.831365249,816.,98.3561944902)) ;
#880=CARTESIAN_POINT('Control Point',(427.368727543,816.,96.)) ;
#881=CARTESIAN_POINT('Control Point',(427.831365249,816.,93.6438055098)) ;
#882=CARTESIAN_POINT('Control Point',(428.294231565,816.,92.5263473726)) ;
#883=CARTESIAN_POINT('Control Point',(429.633178408,816.,90.5331320114)) ;
#884=CARTESIAN_POINT('Control Point',(431.626393769,816.,89.194185169)) ;
#885=CARTESIAN_POINT('Control Point',(432.743851906,816.,88.7313188532)) ;
#886=CARTESIAN_POINT('Control Point',(433.921949151,816.,88.5)) ;
#887=CARTESIAN_POINT('Control Point',(435.100046396,816.,88.5)) ;
#891=CARTESIAN_POINT('Line Origine',(435.100046396,818.,88.5)) ;
#895=CARTESIAN_POINT('Vertex',(435.100046396,816.,88.5)) ;
#897=CARTESIAN_POINT('Vertex',(435.100046396,820.,88.5)) ;
#901=CARTESIAN_POINT('Control Point',(435.100046396,816.,103.5)) ;
#902=CARTESIAN_POINT('Control Point',(433.921949151,816.,103.5)) ;
#903=CARTESIAN_POINT('Control Point',(432.743851906,816.,103.268681147)) ;
#904=CARTESIAN_POINT('Control Point',(431.626393769,816.,102.805814831)) ;
#905=CARTESIAN_POINT('Control Point',(429.633178408,816.,101.466867989)) ;
#906=CARTESIAN_POINT('Control Point',(428.294231565,816.,99.4736526274)) ;
#907=CARTESIAN_POINT('Control Point',(427.831365249,816.,98.3561944902)) ;
#908=CARTESIAN_POINT('Control Point',(427.368727543,816.,96.)) ;
#909=CARTESIAN_POINT('Control Point',(427.831365249,816.,93.6438055098)) ;
#910=CARTESIAN_POINT('Control Point',(428.294231565,816.,92.5263473726)) ;
#911=CARTESIAN_POINT('Control Point',(429.633178408,816.,90.5331320114)) ;
#912=CARTESIAN_POINT('Control Point',(431.626393769,816.,89.194185169)) ;
#913=CARTESIAN_POINT('Control Point',(432.743851906,816.,88.7313188532)) ;
#914=CARTESIAN_POINT('Control Point',(433.921949151,816.,88.5)) ;
#915=CARTESIAN_POINT('Control Point',(435.100046396,816.,88.5)) ;
#916=CARTESIAN_POINT('Vertex',(435.100046396,816.,103.5)) ;
#919=CARTESIAN_POINT('Line Origine',(435.100046396,818.,103.5)) ;
#923=CARTESIAN_POINT('Vertex',(435.100046396,820.,103.5)) ;
#927=CARTESIAN_POINT('Control Point',(435.100046396,820.,103.5)) ;
#928=CARTESIAN_POINT('Control Point',(433.921949151,820.,103.5)) ;
#929=CARTESIAN_POINT('Control Point',(432.743851906,820.,103.268681147)) ;
#930=CARTESIAN_POINT('Control Point',(431.626393769,820.,102.805814831)) ;
#931=CARTESIAN_POINT('Control Point',(429.633178408,820.,101.466867989)) ;
#932=CARTESIAN_POINT('Control Point',(428.294231565,820.,99.4736526274)) ;
#933=CARTESIAN_POINT('Control Point',(427.831365249,820.,98.3561944902)) ;
#934=CARTESIAN_POINT('Control Point',(427.368727543,820.,96.)) ;
#935=CARTESIAN_POINT('Control Point',(427.831365249,820.,93.6438055098)) ;
#936=CARTESIAN_POINT('Control Point',(428.294231565,820.,92.5263473726)) ;
#937=CARTESIAN_POINT('Control Point',(429.633178408,820.,90.5331320114)) ;
#938=CARTESIAN_POINT('Control Point',(431.626393769,820.,89.194185169)) ;
#939=CARTESIAN_POINT('Control Point',(432.743851906,820.,88.7313188532)) ;
#940=CARTESIAN_POINT('Control Point',(433.921949151,820.,88.5)) ;
#941=CARTESIAN_POINT('Control Point',(435.100046396,820.,88.5)) ;
#950=CARTESIAN_POINT('Axis2P3D Location',(0.,820.,6.06921920128E-15)) ;
#955=CARTESIAN_POINT('Line Origine',(485.100046396,820.,92.0313730334)) ;
#959=CARTESIAN_POINT('Vertex',(485.100046396,820.,88.5)) ;
#962=CARTESIAN_POINT('Line Origine',(470.100046396,820.,88.5)) ;
#966=CARTESIAN_POINT('Vertex',(455.100046396,820.,88.5)) ;
#970=CARTESIAN_POINT('Control Point',(435.100046396,820.,88.5)) ;
#971=CARTESIAN_POINT('Control Point',(439.100046396,820.,88.5)) ;
#972=CARTESIAN_POINT('Control Point',(443.100046396,820.,88.5)) ;
#973=CARTESIAN_POINT('Control Point',(447.100046396,820.,88.5)) ;
#974=CARTESIAN_POINT('Control Point',(451.100046396,820.,88.5)) ;
#975=CARTESIAN_POINT('Control Point',(455.100046396,820.,88.5)) ;
#978=CARTESIAN_POINT('Control Point',(454.100046396,820.,103.5)) ;
#979=CARTESIAN_POINT('Control Point',(450.300046396,820.,103.5)) ;
#980=CARTESIAN_POINT('Control Point',(446.500046396,820.,103.5)) ;
#981=CARTESIAN_POINT('Control Point',(442.700046396,820.,103.5)) ;
#982=CARTESIAN_POINT('Control Point',(438.900046396,820.,103.5)) ;
#983=CARTESIAN_POINT('Control Point',(435.100046396,820.,103.5)) ;
#995=CARTESIAN_POINT('Axis2P3D Location',(435.100046396,820.,96.)) ;
#999=CARTESIAN_POINT('Vertex',(432.500046396,820.,96.)) ;
#1001=CARTESIAN_POINT('Vertex',(437.700046396,820.,96.)) ;
#1004=CARTESIAN_POINT('Axis2P3D Location',(435.100046396,820.,96.)) ;
#1014=CARTESIAN_POINT('Axis2P3D Location',(435.100046396,804.,103.5)) ;
#1019=CARTESIAN_POINT('Line Origine',(445.100046396,816.,103.5)) ;
#1033=CARTESIAN_POINT('Axis2P3D Location',(0.,816.,6.03961325396E-15)) ;
#1039=CARTESIAN_POINT('Control Point',(435.100046396,816.,88.5)) ;
#1040=CARTESIAN_POINT('Control Point',(439.100046396,816.,88.5)) ;
#1041=CARTESIAN_POINT('Control Point',(443.100046396,816.,88.5)) ;
#1042=CARTESIAN_POINT('Control Point',(447.100046396,816.,88.5)) ;
#1043=CARTESIAN_POINT('Control Point',(451.100046396,816.,88.5)) ;
#1044=CARTESIAN_POINT('Control Point',(455.100046396,816.,88.5)) ;
#1045=CARTESIAN_POINT('Vertex',(455.100046396,816.,88.5)) ;
#1048=CARTESIAN_POINT('Line Origine',(455.100046396,816.,91.3902277708)) ;
#1062=CARTESIAN_POINT('Axis2P3D Location',(435.100046396,816.,96.)) ;
#1066=CARTESIAN_POINT('Vertex',(437.700046396,816.,96.)) ;
#1068=CARTESIAN_POINT('Vertex',(432.500046396,816.,96.)) ;
#1071=CARTESIAN_POINT('Axis2P3D Location',(435.100046396,816.,96.)) ;
#1081=CARTESIAN_POINT('Axis2P3D Location',(485.100046396,804.,88.5)) ;
#1086=CARTESIAN_POINT('Line Origine',(460.100046396,800.,88.5)) ;
#1090=CARTESIAN_POINT('Vertex',(435.100046396,800.,88.5)) ;
#1092=CARTESIAN_POINT('Vertex',(485.100046396,800.,88.5)) ;
#1095=CARTESIAN_POINT('Line Origine',(435.100046396,802.,88.5)) ;
#1099=CARTESIAN_POINT('Vertex',(435.100046396,804.,88.5)) ;
#1102=CARTESIAN_POINT('Line Origine',(445.100046396,804.,88.5)) ;
#1106=CARTESIAN_POINT('Vertex',(455.100046396,804.,88.5)) ;
#1109=CARTESIAN_POINT('Line Origine',(455.100046396,810.,88.5)) ;
#1114=CARTESIAN_POINT('Line Origine',(485.100046396,810.,88.5)) ;
#1131=CARTESIAN_POINT('Axis2P3D Location',(485.100046396,804.,88.5)) ;
#1136=CARTESIAN_POINT('Line Origine',(485.100046396,800.,92.0313730334)) ;
#1150=CARTESIAN_POINT('Axis2P3D Location',(435.100046396,818.,96.)) ;
#1155=CARTESIAN_POINT('Line Origine',(437.700046396,818.,96.)) ;
#1160=CARTESIAN_POINT('Line Origine',(432.500046396,818.,96.)) ;
#1179=CARTESIAN_POINT('Line Origine',(455.100046396,804.,91.3902277714)) ;
#1191=CARTESIAN_POINT('Axis2P3D Location',(0.,804.,5.95079541199E-15)) ;
#1196=CARTESIAN_POINT('Axis2P3D Location',(435.100046396,804.,96.)) ;
#1200=CARTESIAN_POINT('Vertex',(435.100046396,804.,103.5)) ;
#1203=CARTESIAN_POINT('Line Origine',(445.100046396,804.,103.5)) ;
#1217=CARTESIAN_POINT('Axis2P3D Location',(435.100046396,804.,96.)) ;
#1221=CARTESIAN_POINT('Vertex',(437.700046396,804.,96.)) ;
#1223=CARTESIAN_POINT('Vertex',(432.500046396,804.,96.)) ;
#1226=CARTESIAN_POINT('Axis2P3D Location',(435.100046396,804.,96.)) ;
#1236=CARTESIAN_POINT('Axis2P3D Location',(435.100046396,802.,96.)) ;
#1241=CARTESIAN_POINT('Line Origine',(435.100046396,802.,103.5)) ;
#1245=CARTESIAN_POINT('Vertex',(435.100046396,800.,103.5)) ;
#1248=CARTESIAN_POINT('Axis2P3D Location',(435.100046396,800.,96.)) ;
#1260=CARTESIAN_POINT('Axis2P3D Location',(0.,800.,5.92118946467E-15)) ;
#1265=CARTESIAN_POINT('Line Origine',(444.600046387,800.,103.5)) ;
#1279=CARTESIAN_POINT('Axis2P3D Location',(435.100046396,800.,96.)) ;
#1283=CARTESIAN_POINT('Vertex',(432.500046396,800.,96.)) ;
#1285=CARTESIAN_POINT('Vertex',(437.700046396,800.,96.)) ;
#1288=CARTESIAN_POINT('Axis2P3D Location',(435.100046396,800.,96.)) ;
#1307=CARTESIAN_POINT('Axis2P3D Location',(435.100046396,802.,96.)) ;
#1312=CARTESIAN_POINT('Line Origine',(437.700046396,802.,96.)) ;
#1317=CARTESIAN_POINT('Line Origine',(432.500046396,802.,96.)) ;
#1346=CARTESIAN_POINT('NONE',(0.,0.,0.)) ;
#1347=CARTESIAN_POINT('NONE',(0.,0.255810478531,0.)) ;
#63=DIRECTION('Axis2P3D Direction',(1.,0.,0.)) ;
#64=DIRECTION('Axis2P3D XDirection',(0.,1.,0.)) ;
#68=DIRECTION('Vector Direction',(0.,0.,-1.)) ;
#77=DIRECTION('Vector Direction',(0.,1.,0.)) ;
#84=DIRECTION('Vector Direction',(0.,0.,-1.)) ;
#91=DIRECTION('Axis2P3D Direction',(1.,0.,0.)) ;
#103=DIRECTION('Axis2P3D Direction',(1.,0.,-0.)) ;
#104=DIRECTION('Axis2P3D XDirection',(0.,-0.9,-0.435889894353)) ;
#124=DIRECTION('Axis2P3D Direction',(1.,0.,-0.)) ;
#408=DIRECTION('Axis2P3D Direction',(0.,0.,-1.)) ;
#409=DIRECTION('Axis2P3D XDirection',(1.,1.83697019872E-16,0.)) ;
#413=DIRECTION('Axis2P3D Direction',(0.,0.,-1.)) ;
#424=DIRECTION('Axis2P3D Direction',(1.,0.,0.)) ;
#425=DIRECTION('Axis2P3D XDirection',(0.,1.,0.)) ;
#429=DIRECTION('Vector Direction',(1.,0.,0.)) ;
#438=DIRECTION('Axis2P3D Direction',(1.,0.,0.)) ;
#445=DIRECTION('Vector Direction',(1.,0.,0.)) ;
#452=DIRECTION('Axis2P3D Direction',(1.,0.,0.)) ;
#459=DIRECTION('Vector Direction',(1.,0.,0.)) ;
#464=DIRECTION('Vector Direction',(1.,0.,0.)) ;
#471=DIRECTION('Axis2P3D Direction',(1.,0.,0.)) ;
#487=DIRECTION('Axis2P3D Direction',(-1.,0.,0.)) ;
#488=DIRECTION('Axis2P3D XDirection',(-0.,-0.75,0.661437827766)) ;
#492=DIRECTION('Vector Direction',(-1.,0.,0.)) ;
#501=DIRECTION('Axis2P3D Direction',(-1.,0.,0.)) ;
#506=DIRECTION('Axis2P3D Direction',(-1.,0.,0.)) ;
#518=DIRECTION('Axis2P3D Direction',(1.,0.,0.)) ;
#519=DIRECTION('Axis2P3D XDirection',(-0.,0.75,0.661437827766)) ;
#523=DIRECTION('Vector Direction',(1.,0.,0.)) ;
#530=DIRECTION('Axis2P3D Direction',(1.,0.,0.)) ;
#542=DIRECTION('Axis2P3D Direction',(1.,-0.,0.)) ;
#543=DIRECTION('Axis2P3D XDirection',(0.,1.,0.)) ;
#563=DIRECTION('Axis2P3D Direction',(1.,-0.,0.)) ;
#831=DIRECTION('Vector Direction',(0.,0.,-1.)) ;
#838=DIRECTION('Vector Direction',(0.,1.,0.)) ;
#845=DIRECTION('Vector Direction',(0.,0.,-1.)) ;
#857=DIRECTION('Axis2P3D Direction',(0.,0.,-1.)) ;
#858=DIRECTION('Axis2P3D XDirection',(-1.83697019872E-16,1.,-0.)) ;
#862=DIRECTION('Axis2P3D Direction',(0.,0.,-1.)) ;
#888=DIRECTION('Vector Direction',(0.,1.,7.40148683083E-18)) ;
#892=DIRECTION('Vector Direction',(0.,1.,0.)) ;
#920=DIRECTION('Vector Direction',(0.,1.,0.)) ;
#951=DIRECTION('Axis2P3D Direction',(0.,1.,7.40148683083E-18)) ;
#952=DIRECTION('Axis2P3D XDirection',(-1.,0.,0.)) ;
#956=DIRECTION('Vector Direction',(0.,0.,1.)) ;
#963=DIRECTION('Vector Direction',(-1.,0.,0.)) ;
#996=DIRECTION('Axis2P3D Direction',(0.,1.,7.40148683083E-18)) ;
#1005=DIRECTION('Axis2P3D Direction',(0.,1.,7.40148683083E-18)) ;
#1015=DIRECTION('Axis2P3D Direction',(0.,7.40148683083E-18,-1.)) ;
#1016=DIRECTION('Axis2P3D XDirection',(1.,0.,0.)) ;
#1020=DIRECTION('Vector Direction',(-1.,0.,0.)) ;
#1034=DIRECTION('Axis2P3D Direction',(0.,1.,7.40148683083E-18)) ;
#1035=DIRECTION('Axis2P3D XDirection',(-1.,0.,0.)) ;
#1049=DIRECTION('Vector Direction',(0.,0.,-1.)) ;
#1063=DIRECTION('Axis2P3D Direction',(0.,1.,7.40148683083E-18)) ;
#1072=DIRECTION('Axis2P3D Direction',(0.,1.,7.40148683083E-18)) ;
#1082=DIRECTION('Axis2P3D Direction',(0.,-7.40148683083E-18,1.)) ;
#1083=DIRECTION('Axis2P3D XDirection',(-1.,-0.,0.)) ;
#1087=DIRECTION('Vector Direction',(-1.,0.,0.)) ;
#1096=DIRECTION('Vector Direction',(0.,-1.,0.)) ;
#1103=DIRECTION('Vector Direction',(-1.,0.,0.)) ;
#1110=DIRECTION('Vector Direction',(0.,-1.,0.)) ;
#1115=DIRECTION('Vector Direction',(0.,-1.,0.)) ;
#1132=DIRECTION('Axis2P3D Direction',(1.,0.,0.)) ;
#1133=DIRECTION('Axis2P3D XDirection',(0.,-7.40148683083E-18,1.)) ;
#1137=DIRECTION('Vector Direction',(0.,0.,-1.)) ;
#1151=DIRECTION('Axis2P3D Direction',(0.,1.,7.40148683083E-18)) ;
#1152=DIRECTION('Axis2P3D XDirection',(1.,-1.61965522198E-31,2.18828359626E-14)) ;
#1156=DIRECTION('Vector Direction',(0.,1.,0.)) ;
#1161=DIRECTION('Vector Direction',(0.,1.,0.)) ;
#1180=DIRECTION('Vector Direction',(0.,0.,-1.)) ;
#1192=DIRECTION('Axis2P3D Direction',(0.,-1.,-7.40148683083E-18)) ;
#1193=DIRECTION('Axis2P3D XDirection',(1.,0.,-0.)) ;
#1197=DIRECTION('Axis2P3D Direction',(0.,-1.,-7.40148683083E-18)) ;
#1204=DIRECTION('Vector Direction',(1.,0.,0.)) ;
#1218=DIRECTION('Axis2P3D Direction',(0.,-1.,-7.40148683083E-18)) ;
#1227=DIRECTION('Axis2P3D Direction',(0.,-1.,-7.40148683083E-18)) ;
#1237=DIRECTION('Axis2P3D Direction',(0.,-1.,-7.40148683083E-18)) ;
#1238=DIRECTION('Axis2P3D XDirection',(2.83276944882E-16,-7.40148683083E-18,1.)) ;
#1242=DIRECTION('Vector Direction',(0.,-1.,0.)) ;
#1249=DIRECTION('Axis2P3D Direction',(0.,-1.,-7.40148683083E-18)) ;
#1261=DIRECTION('Axis2P3D Direction',(0.,-1.,-7.40148683083E-18)) ;
#1262=DIRECTION('Axis2P3D XDirection',(1.,0.,-0.)) ;
#1266=DIRECTION('Vector Direction',(-1.,0.,0.)) ;
#1280=DIRECTION('Axis2P3D Direction',(0.,-1.,-7.40148683083E-18)) ;
#1289=DIRECTION('Axis2P3D Direction',(0.,-1.,-7.40148683083E-18)) ;
#1308=DIRECTION('Axis2P3D Direction',(0.,-1.,-7.40148683083E-18)) ;
#1309=DIRECTION('Axis2P3D XDirection',(1.,0.,0.)) ;
#1313=DIRECTION('Vector Direction',(0.,-1.,0.)) ;
#1318=DIRECTION('Vector Direction',(0.,-1.,0.)) ;
#1348=DIRECTION('NONE',(1.,0.,0.)) ;
#1349=DIRECTION('NONE',(0.,0.,1.)) ;
#1350=DIRECTION('NONE',(1.,0.,0.)) ;
#1351=DIRECTION('NONE',(0.,0.,1.)) ;
#65=AXIS2_PLACEMENT_3D('Plane Axis2P3D',#62,#63,#64) ;
#92=AXIS2_PLACEMENT_3D('Circle Axis2P3D',#90,#91,$) ;
#105=AXIS2_PLACEMENT_3D('Torus Axis2P3D',#102,#103,#104) ;
#125=AXIS2_PLACEMENT_3D('Circle Axis2P3D',#123,#124,$) ;
#410=AXIS2_PLACEMENT_3D('Cylinder Axis2P3D',#407,#408,#409) ;
#414=AXIS2_PLACEMENT_3D('Circle Axis2P3D',#412,#413,$) ;
#426=AXIS2_PLACEMENT_3D('Cylinder Axis2P3D',#423,#424,#425) ;
#439=AXIS2_PLACEMENT_3D('Circle Axis2P3D',#437,#438,$) ;
#453=AXIS2_PLACEMENT_3D('Circle Axis2P3D',#451,#452,$) ;
#472=AXIS2_PLACEMENT_3D('Circle Axis2P3D',#470,#471,$) ;
#489=AXIS2_PLACEMENT_3D('Cylinder Axis2P3D',#486,#487,#488) ;
#502=AXIS2_PLACEMENT_3D('Circle Axis2P3D',#500,#501,$) ;
#507=AXIS2_PLACEMENT_3D('Circle Axis2P3D',#505,#506,$) ;
#520=AXIS2_PLACEMENT_3D('Cylinder Axis2P3D',#517,#518,#519) ;
#531=AXIS2_PLACEMENT_3D('Circle Axis2P3D',#529,#530,$) ;
#544=AXIS2_PLACEMENT_3D('Torus Axis2P3D',#541,#542,#543) ;
#564=AXIS2_PLACEMENT_3D('Circle Axis2P3D',#562,#563,$) ;
#859=AXIS2_PLACEMENT_3D('Cylinder Axis2P3D',#856,#857,#858) ;
#863=AXIS2_PLACEMENT_3D('Circle Axis2P3D',#861,#862,$) ;
#953=AXIS2_PLACEMENT_3D('Plane Axis2P3D',#950,#951,#952) ;
#997=AXIS2_PLACEMENT_3D('Circle Axis2P3D',#995,#996,$) ;
#1006=AXIS2_PLACEMENT_3D('Circle Axis2P3D',#1004,#1005,$) ;
#1017=AXIS2_PLACEMENT_3D('Plane Axis2P3D',#1014,#1015,#1016) ;
#1036=AXIS2_PLACEMENT_3D('Plane Axis2P3D',#1033,#1034,#1035) ;
#1064=AXIS2_PLACEMENT_3D('Circle Axis2P3D',#1062,#1063,$) ;
#1073=AXIS2_PLACEMENT_3D('Circle Axis2P3D',#1071,#1072,$) ;
#1084=AXIS2_PLACEMENT_3D('Plane Axis2P3D',#1081,#1082,#1083) ;
#1134=AXIS2_PLACEMENT_3D('Plane Axis2P3D',#1131,#1132,#1133) ;
#1153=AXIS2_PLACEMENT_3D('Cylinder Axis2P3D',#1150,#1151,#1152) ;
#1194=AXIS2_PLACEMENT_3D('Plane Axis2P3D',#1191,#1192,#1193) ;
#1198=AXIS2_PLACEMENT_3D('Circle Axis2P3D',#1196,#1197,$) ;
#1219=AXIS2_PLACEMENT_3D('Circle Axis2P3D',#1217,#1218,$) ;
#1228=AXIS2_PLACEMENT_3D('Circle Axis2P3D',#1226,#1227,$) ;
#1239=AXIS2_PLACEMENT_3D('Cylinder Axis2P3D',#1236,#1237,#1238) ;
#1250=AXIS2_PLACEMENT_3D('Circle Axis2P3D',#1248,#1249,$) ;
#1263=AXIS2_PLACEMENT_3D('Plane Axis2P3D',#1260,#1261,#1262) ;
#1281=AXIS2_PLACEMENT_3D('Circle Axis2P3D',#1279,#1280,$) ;
#1290=AXIS2_PLACEMENT_3D('Circle Axis2P3D',#1288,#1289,$) ;
#1310=AXIS2_PLACEMENT_3D('Cylinder Axis2P3D',#1307,#1308,#1309) ;
#1344=AXIS2_PLACEMENT_3D(' ',#1347,#1351,#1350) ;
#1345=AXIS2_PLACEMENT_3D(' ',#1346,#1349,#1348) ;
#45=PRODUCT_DEFINITION_SHAPE(' ',' ',#17) ;
#60=PRODUCT_DEFINITION_SHAPE(' ',' ',#57) ;
#1340=PRODUCT_DEFINITION_SHAPE(' ',' ',#1339) ;
#34=APPROVAL_PERSON_ORGANIZATION(#28,#24,#22) ;
#28=PERSON_AND_ORGANIZATION(#25,#26) ;
#25=PERSON(' ',' ',' ',$,$,$) ;
#26=ORGANIZATION(' ',' ',' ') ;
#24=APPROVAL(#23,' ') ;
#23=APPROVAL_STATUS('not_yet_approved') ;
#22=APPROVAL_ROLE('APPROVER') ;
#13=DATE_AND_TIME(#11,#12) ;
#12=LOCAL_TIME(15,23,2.,#10) ;
#10=COORDINATED_UNIVERSAL_TIME_OFFSET(0,0,.AHEAD.) ;
#96=ORIENTED_EDGE('',*,*,#75,.F.) ;
#97=ORIENTED_EDGE('',*,*,#82,.F.) ;
#98=ORIENTED_EDGE('',*,*,#89,.T.) ;
#99=ORIENTED_EDGE('',*,*,#94,.F.) ;
#139=ORIENTED_EDGE('',*,*,#122,.T.) ;
#140=ORIENTED_EDGE('',*,*,#129,.F.) ;
#141=ORIENTED_EDGE('',*,*,#137,.F.) ;
#142=ORIENTED_EDGE('',*,*,#94,.T.) ;
#294=ORIENTED_EDGE('',*,*,#262,.T.) ;
#295=ORIENTED_EDGE('',*,*,#284,.T.) ;
#296=ORIENTED_EDGE('',*,*,#292,.F.) ;
#297=ORIENTED_EDGE('',*,*,#122,.F.) ;
#401=ORIENTED_EDGE('',*,*,#373,.T.) ;
#402=ORIENTED_EDGE('',*,*,#262,.F.) ;
#403=ORIENTED_EDGE('',*,*,#392,.F.) ;
#404=ORIENTED_EDGE('',*,*,#399,.T.) ;
#418=ORIENTED_EDGE('',*,*,#89,.F.) ;
#419=ORIENTED_EDGE('',*,*,#416,.T.) ;
#420=ORIENTED_EDGE('',*,*,#392,.T.) ;
#476=ORIENTED_EDGE('',*,*,#436,.T.) ;
#477=ORIENTED_EDGE('',*,*,#443,.T.) ;
#478=ORIENTED_EDGE('',*,*,#450,.T.) ;
#479=ORIENTED_EDGE('',*,*,#457,.F.) ;
#480=ORIENTED_EDGE('',*,*,#462,.T.) ;
#481=ORIENTED_EDGE('',*,*,#129,.T.) ;
#482=ORIENTED_EDGE('',*,*,#469,.T.) ;
#483=ORIENTED_EDGE('',*,*,#474,.T.) ;
#511=ORIENTED_EDGE('',*,*,#499,.T.) ;
#512=ORIENTED_EDGE('',*,*,#504,.F.) ;
#513=ORIENTED_EDGE('',*,*,#436,.F.) ;
#514=ORIENTED_EDGE('',*,*,#509,.T.) ;
#535=ORIENTED_EDGE('',*,*,#469,.F.) ;
#536=ORIENTED_EDGE('',*,*,#292,.T.) ;
#537=ORIENTED_EDGE('',*,*,#528,.T.) ;
#538=ORIENTED_EDGE('',*,*,#533,.T.) ;
#578=ORIENTED_EDGE('',*,*,#561,.T.) ;
#579=ORIENTED_EDGE('',*,*,#568,.T.) ;
#580=ORIENTED_EDGE('',*,*,#576,.F.) ;
#581=ORIENTED_EDGE('',*,*,#443,.F.) ;
#729=ORIENTED_EDGE('',*,*,#504,.T.) ;
#730=ORIENTED_EDGE('',*,*,#720,.T.) ;
#731=ORIENTED_EDGE('',*,*,#727,.F.) ;
#732=ORIENTED_EDGE('',*,*,#561,.F.) ;
#824=ORIENTED_EDGE('',*,*,#727,.T.) ;
#825=ORIENTED_EDGE('',*,*,#802,.T.) ;
#826=ORIENTED_EDGE('',*,*,#811,.T.) ;
#827=ORIENTED_EDGE('',*,*,#822,.F.) ;
#850=ORIENTED_EDGE('',*,*,#836,.F.) ;
#851=ORIENTED_EDGE('',*,*,#843,.F.) ;
#852=ORIENTED_EDGE('',*,*,#848,.T.) ;
#853=ORIENTED_EDGE('',*,*,#568,.F.) ;
#867=ORIENTED_EDGE('',*,*,#865,.T.) ;
#868=ORIENTED_EDGE('',*,*,#836,.T.) ;
#869=ORIENTED_EDGE('',*,*,#822,.T.) ;
#944=ORIENTED_EDGE('',*,*,#899,.F.) ;
#945=ORIENTED_EDGE('',*,*,#918,.T.) ;
#946=ORIENTED_EDGE('',*,*,#925,.T.) ;
#947=ORIENTED_EDGE('',*,*,#942,.F.) ;
#986=ORIENTED_EDGE('',*,*,#961,.F.) ;
#987=ORIENTED_EDGE('',*,*,#968,.T.) ;
#988=ORIENTED_EDGE('',*,*,#976,.T.) ;
#989=ORIENTED_EDGE('',*,*,#942,.T.) ;
#990=ORIENTED_EDGE('',*,*,#984,.F.) ;
#991=ORIENTED_EDGE('',*,*,#802,.F.) ;
#992=ORIENTED_EDGE('',*,*,#720,.F.) ;
#993=ORIENTED_EDGE('',*,*,#499,.F.) ;
#1010=ORIENTED_EDGE('',*,*,#1003,.F.) ;
#1011=ORIENTED_EDGE('',*,*,#1008,.F.) ;
#1025=ORIENTED_EDGE('',*,*,#811,.F.) ;
#1026=ORIENTED_EDGE('',*,*,#984,.T.) ;
#1027=ORIENTED_EDGE('',*,*,#925,.F.) ;
#1028=ORIENTED_EDGE('',*,*,#1023,.T.) ;
#1029=ORIENTED_EDGE('',*,*,#843,.T.) ;
#1030=ORIENTED_EDGE('',*,*,#865,.F.) ;
#1054=ORIENTED_EDGE('',*,*,#848,.F.) ;
#1055=ORIENTED_EDGE('',*,*,#1023,.F.) ;
#1056=ORIENTED_EDGE('',*,*,#918,.F.) ;
#1057=ORIENTED_EDGE('',*,*,#1047,.F.) ;
#1058=ORIENTED_EDGE('',*,*,#1052,.F.) ;
#1059=ORIENTED_EDGE('',*,*,#450,.F.) ;
#1060=ORIENTED_EDGE('',*,*,#576,.T.) ;
#1077=ORIENTED_EDGE('',*,*,#1070,.T.) ;
#1078=ORIENTED_EDGE('',*,*,#1075,.T.) ;
#1120=ORIENTED_EDGE('',*,*,#1094,.F.) ;
#1121=ORIENTED_EDGE('',*,*,#1101,.F.) ;
#1122=ORIENTED_EDGE('',*,*,#1108,.T.) ;
#1123=ORIENTED_EDGE('',*,*,#1113,.T.) ;
#1124=ORIENTED_EDGE('',*,*,#1047,.T.) ;
#1125=ORIENTED_EDGE('',*,*,#899,.T.) ;
#1126=ORIENTED_EDGE('',*,*,#976,.F.) ;
#1127=ORIENTED_EDGE('',*,*,#968,.F.) ;
#1128=ORIENTED_EDGE('',*,*,#1118,.F.) ;
#1142=ORIENTED_EDGE('',*,*,#474,.F.) ;
#1143=ORIENTED_EDGE('',*,*,#533,.F.) ;
#1144=ORIENTED_EDGE('',*,*,#1140,.T.) ;
#1145=ORIENTED_EDGE('',*,*,#1118,.T.) ;
#1146=ORIENTED_EDGE('',*,*,#961,.T.) ;
#1147=ORIENTED_EDGE('',*,*,#509,.F.) ;
#1166=ORIENTED_EDGE('',*,*,#1003,.T.) ;
#1167=ORIENTED_EDGE('',*,*,#1159,.F.) ;
#1168=ORIENTED_EDGE('',*,*,#1075,.F.) ;
#1169=ORIENTED_EDGE('',*,*,#1164,.T.) ;
#1173=ORIENTED_EDGE('',*,*,#1008,.T.) ;
#1174=ORIENTED_EDGE('',*,*,#1164,.F.) ;
#1175=ORIENTED_EDGE('',*,*,#1070,.F.) ;
#1176=ORIENTED_EDGE('',*,*,#1159,.T.) ;
#1185=ORIENTED_EDGE('',*,*,#457,.T.) ;
#1186=ORIENTED_EDGE('',*,*,#1052,.T.) ;
#1187=ORIENTED_EDGE('',*,*,#1113,.F.) ;
#1188=ORIENTED_EDGE('',*,*,#1183,.F.) ;
#1209=ORIENTED_EDGE('',*,*,#1183,.T.) ;
#1210=ORIENTED_EDGE('',*,*,#1108,.F.) ;
#1211=ORIENTED_EDGE('',*,*,#1202,.F.) ;
#1212=ORIENTED_EDGE('',*,*,#1207,.F.) ;
#1213=ORIENTED_EDGE('',*,*,#75,.T.) ;
#1214=ORIENTED_EDGE('',*,*,#137,.T.) ;
#1215=ORIENTED_EDGE('',*,*,#462,.F.) ;
#1232=ORIENTED_EDGE('',*,*,#1225,.T.) ;
#1233=ORIENTED_EDGE('',*,*,#1230,.T.) ;
#1254=ORIENTED_EDGE('',*,*,#1247,.F.) ;
#1255=ORIENTED_EDGE('',*,*,#1202,.T.) ;
#1256=ORIENTED_EDGE('',*,*,#1101,.T.) ;
#1257=ORIENTED_EDGE('',*,*,#1252,.F.) ;
#1271=ORIENTED_EDGE('',*,*,#1269,.F.) ;
#1272=ORIENTED_EDGE('',*,*,#1252,.T.) ;
#1273=ORIENTED_EDGE('',*,*,#1094,.T.) ;
#1274=ORIENTED_EDGE('',*,*,#1140,.F.) ;
#1275=ORIENTED_EDGE('',*,*,#528,.F.) ;
#1276=ORIENTED_EDGE('',*,*,#284,.F.) ;
#1277=ORIENTED_EDGE('',*,*,#373,.F.) ;
#1294=ORIENTED_EDGE('',*,*,#1287,.F.) ;
#1295=ORIENTED_EDGE('',*,*,#1292,.F.) ;
#1299=ORIENTED_EDGE('',*,*,#399,.F.) ;
#1300=ORIENTED_EDGE('',*,*,#416,.F.) ;
#1301=ORIENTED_EDGE('',*,*,#82,.T.) ;
#1302=ORIENTED_EDGE('',*,*,#1207,.T.) ;
#1303=ORIENTED_EDGE('',*,*,#1247,.T.) ;
#1304=ORIENTED_EDGE('',*,*,#1269,.T.) ;
#1323=ORIENTED_EDGE('',*,*,#1287,.T.) ;
#1324=ORIENTED_EDGE('',*,*,#1316,.F.) ;
#1325=ORIENTED_EDGE('',*,*,#1230,.F.) ;
#1326=ORIENTED_EDGE('',*,*,#1321,.T.) ;
#1330=ORIENTED_EDGE('',*,*,#1292,.T.) ;
#1331=ORIENTED_EDGE('',*,*,#1321,.F.) ;
#1332=ORIENTED_EDGE('',*,*,#1225,.F.) ;
#1333=ORIENTED_EDGE('',*,*,#1316,.T.) ;
#1012=FACE_BOUND('',#1009,.T.) ;
#1079=FACE_BOUND('',#1076,.T.) ;
#1234=FACE_BOUND('',#1231,.T.) ;
#1296=FACE_BOUND('',#1293,.T.) ;
#61=CLOSED_SHELL('Closed Shell',(#101,#144,#299,#406,#422,#485,#516,#540,#583,#734,#829,#855,#871,#949,#1013,#1032,#1080,#1130,#1149,#1171,#1178,#1190,#1235,#1259,#1297,#1306,#1328,#1335)) ;
#1343=ITEM_DEFINED_TRANSFORMATION(' ',' ',#1345,#1344) ;
#69=VECTOR('Line Direction',#68,1.) ;
#78=VECTOR('Line Direction',#77,1.) ;
#85=VECTOR('Line Direction',#84,1.) ;
#430=VECTOR('Line Direction',#429,1.) ;
#446=VECTOR('Line Direction',#445,1.) ;
#460=VECTOR('Line Direction',#459,1.) ;
#465=VECTOR('Line Direction',#464,1.) ;
#493=VECTOR('Line Direction',#492,1.) ;
#524=VECTOR('Line Direction',#523,1.) ;
#832=VECTOR('Line Direction',#831,1.) ;
#839=VECTOR('Line Direction',#838,1.) ;
#846=VECTOR('Line Direction',#845,1.) ;
#889=VECTOR('Extrusion Surface Vector',#888,1.) ;
#893=VECTOR('Line Direction',#892,1.) ;
#921=VECTOR('Line Direction',#920,1.) ;
#957=VECTOR('Line Direction',#956,1.) ;
#964=VECTOR('Line Direction',#963,1.) ;
#1021=VECTOR('Line Direction',#1020,1.) ;
#1050=VECTOR('Line Direction',#1049,1.) ;
#1088=VECTOR('Line Direction',#1087,1.) ;
#1097=VECTOR('Line Direction',#1096,1.) ;
#1104=VECTOR('Line Direction',#1103,1.) ;
#1111=VECTOR('Line Direction',#1110,1.) ;
#1116=VECTOR('Line Direction',#1115,1.) ;
#1138=VECTOR('Line Direction',#1137,1.) ;
#1157=VECTOR('Line Direction',#1156,1.) ;
#1162=VECTOR('Line Direction',#1161,1.) ;
#1181=VECTOR('Line Direction',#1180,1.) ;
#1205=VECTOR('Line Direction',#1204,1.) ;
#1243=VECTOR('Line Direction',#1242,1.) ;
#1267=VECTOR('Line Direction',#1266,1.) ;
#1314=VECTOR('Line Direction',#1313,1.) ;
#1319=VECTOR('Line Direction',#1318,1.) ;
#1337=ADVANCED_BREP_SHAPE_REPRESENTATION('NONE',(#1336),#52) ;
#44=SHAPE_REPRESENTATION(' ',(#1344),#50) ;
#53=SHAPE_REPRESENTATION(' ',(#1345),#52) ;
#101=ADVANCED_FACE('\X2\96F64EF651E04F554F53\X0\',(#100),#66,.T.) ;
#144=ADVANCED_FACE('\X2\96F64EF651E04F554F53\X0\',(#143),#106,.F.) ;
#299=ADVANCED_FACE('\X2\96F64EF651E04F554F53\X0\',(#298),#145,.T.) ;
#406=ADVANCED_FACE('\X2\96F64EF651E04F554F53\X0\',(#405),#300,.T.) ;
#422=ADVANCED_FACE('\X2\96F64EF651E04F554F53\X0\',(#421),#411,.T.) ;
#485=ADVANCED_FACE('\X2\96F64EF651E04F554F53\X0\',(#484),#427,.F.) ;
#516=ADVANCED_FACE('\X2\96F64EF651E04F554F53\X0\',(#515),#490,.T.) ;
#540=ADVANCED_FACE('\X2\96F64EF651E04F554F53\X0\',(#539),#521,.T.) ;
#583=ADVANCED_FACE('\X2\96F64EF651E04F554F53\X0\',(#582),#545,.F.) ;
#734=ADVANCED_FACE('\X2\96F64EF651E04F554F53\X0\',(#733),#584,.T.) ;
#829=ADVANCED_FACE('\X2\96F64EF651E04F554F53\X0\',(#828),#735,.T.) ;
#855=ADVANCED_FACE('\X2\96F64EF651E04F554F53\X0\',(#854),#66,.T.) ;
#871=ADVANCED_FACE('\X2\96F64EF651E04F554F53\X0\',(#870),#860,.T.) ;
#949=ADVANCED_FACE('\X2\96F64EF651E04F554F53\X0\',(#948),#890,.F.) ;
#1013=ADVANCED_FACE('\X2\96F64EF651E04F554F53\X0\',(#994,#1012),#954,.T.) ;
#1032=ADVANCED_FACE('\X2\96F64EF651E04F554F53\X0\',(#1031),#1018,.F.) ;
#1080=ADVANCED_FACE('\X2\96F64EF651E04F554F53\X0\',(#1061,#1079),#1037,.F.) ;
#1130=ADVANCED_FACE('\X2\96F64EF651E04F554F53\X0\',(#1129),#1085,.F.) ;
#1149=ADVANCED_FACE('\X2\96F64EF651E04F554F53\X0\',(#1148),#1135,.T.) ;
#1171=ADVANCED_FACE('\X2\96F64EF651E04F554F53\X0\',(#1170),#1154,.F.) ;
#1178=ADVANCED_FACE('\X2\96F64EF651E04F554F53\X0\',(#1177),#1154,.F.) ;
#1190=ADVANCED_FACE('\X2\96F64EF651E04F554F53\X0\',(#1189),#66,.F.) ;
#1235=ADVANCED_FACE('\X2\96F64EF651E04F554F53\X0\',(#1216,#1234),#1195,.F.) ;
#1259=ADVANCED_FACE('\X2\96F64EF651E04F554F53\X0\',(#1258),#1240,.T.) ;
#1297=ADVANCED_FACE('\X2\96F64EF651E04F554F53\X0\',(#1278,#1296),#1264,.T.) ;
#1306=ADVANCED_FACE('\X2\96F64EF651E04F554F53\X0\',(#1305),#1018,.F.) ;
#1328=ADVANCED_FACE('\X2\96F64EF651E04F554F53\X0\',(#1327),#1311,.F.) ;
#1335=ADVANCED_FACE('\X2\96F64EF651E04F554F53\X0\',(#1334),#1311,.F.) ;
#4=APPLICATION_PROTOCOL_DEFINITION('international standard','config_control_design',1994,#1) ;
#35=APPROVAL_DATE_TIME(#13,#24) ;
#107=B_SPLINE_CURVE_WITH_KNOTS('',5,(#108,#109,#110,#111,#112,#113,#114,#115,#116,#117,#118,#119),.UNSPECIFIED.,.F.,.U.,(6,3,3,6),(10.7250041719,13.6444697588,15.3770574823,16.3374168592),.UNSPECIFIED.) ;
#130=B_SPLINE_CURVE_WITH_KNOTS('',5,(#131,#132,#133,#134,#135,#136),.UNSPECIFIED.,.F.,.U.,(6,6),(0.,2.46594291606),.UNSPECIFIED.) ;
#254=B_SPLINE_CURVE_WITH_KNOTS('',4,(#255,#256,#257,#258,#259),.UNSPECIFIED.,.F.,.U.,(5,5),(0.,1.),.UNSPECIFIED.) ;
#263=B_SPLINE_CURVE_WITH_KNOTS('',5,(#264,#265,#266,#267,#268,#269,#270,#271,#272,#273,#274,#275,#276,#277,#278,#279,#280,#281),.UNSPECIFIED.,.F.,.U.,(6,3,3,3,3,6),(10.7250041719,12.2550087657,13.6444697588,15.3770574823,15.9602174593,16.3374166834),.UNSPECIFIED.) ;
#285=B_SPLINE_CURVE_WITH_KNOTS('',5,(#286,#287,#288,#289,#290,#291),.UNSPECIFIED.,.F.,.U.,(6,6),(0.,1.),.UNSPECIFIED.) ;
#355=B_SPLINE_CURVE_WITH_KNOTS('',5,(#356,#357,#358,#359,#360,#361,#362,#363,#364,#365,#366,#367,#368,#369,#370),.UNSPECIFIED.,.F.,.U.,(6,3,3,3,6),(5.41967879485,6.46134596573,9.9323870159,11.6540064862,13.3617345549),.UNSPECIFIED.) ;
#374=B_SPLINE_CURVE_WITH_KNOTS('',5,(#375,#376,#377,#378,#379,#380,#381,#382,#383,#384,#385,#386,#387,#388,#389),.UNSPECIFIED.,.F.,.U.,(6,3,3,3,6),(5.41968405151,6.46134596573,9.9323870159,11.6540064862,13.3617345549),.UNSPECIFIED.) ;
#393=B_SPLINE_CURVE_WITH_KNOTS('',4,(#394,#395,#396,#397,#398),.UNSPECIFIED.,.F.,.U.,(5,5),(0.,1.44698549077),.UNSPECIFIED.) ;
#546=B_SPLINE_CURVE_WITH_KNOTS('',5,(#547,#548,#549,#550,#551,#552,#553,#554,#555,#556,#557,#558),.UNSPECIFIED.,.F.,.U.,(6,3,3,6),(8.86388897611,10.2794966541,11.6562740621,14.4799771449),.UNSPECIFIED.) ;
#569=B_SPLINE_CURVE_WITH_KNOTS('',5,(#570,#571,#572,#573,#574,#575),.UNSPECIFIED.,.F.,.U.,(6,6),(0.,2.46594291647),.UNSPECIFIED.) ;
#693=B_SPLINE_CURVE_WITH_KNOTS('',5,(#694,#695,#696,#697,#698,#699,#700,#701,#702,#703,#704,#705,#706,#707,#708,#709,#710,#711,#712,#713,#714,#715,#716,#717),.UNSPECIFIED.,.F.,.U.,(6,3,3,3,3,3,3,6),(8.86388897611,9.71183824752,10.2794966541,10.9194391029,11.6562740621,12.5130075326,13.5146523428,14.4799771449),.UNSPECIFIED.) ;
#721=B_SPLINE_CURVE_WITH_KNOTS('',4,(#722,#723,#724,#725,#726),.UNSPECIFIED.,.F.,.U.,(5,5),(0.,1.),.UNSPECIFIED.) ;
#790=B_SPLINE_CURVE_WITH_KNOTS('',5,(#791,#792,#793,#794,#795,#796,#797,#798,#799),.UNSPECIFIED.,.F.,.U.,(6,3,6),(2.1043782385,4.93863936368,10.0495471433),.UNSPECIFIED.) ;
#803=B_SPLINE_CURVE_WITH_KNOTS('',4,(#804,#805,#806,#807,#808),.UNSPECIFIED.,.F.,.U.,(5,5),(0.,1.44795027125),.UNSPECIFIED.) ;
#812=B_SPLINE_CURVE_WITH_KNOTS('',5,(#813,#814,#815,#816,#817,#818,#819,#820,#821),.UNSPECIFIED.,.F.,.U.,(6,3,6),(2.1043782385,4.93863936368,10.0495471433),.UNSPECIFIED.) ;
#872=B_SPLINE_CURVE_WITH_KNOTS('',5,(#873,#874,#875,#876,#877,#878,#879,#880,#881,#882,#883,#884,#885,#886,#887),.UNSPECIFIED.,.F.,.U.,(6,3,3,3,6),(0.,6.0006491487,12.0012982974,18.0019474461,24.0025965948),.UNSPECIFIED.) ;
#900=B_SPLINE_CURVE_WITH_KNOTS('',5,(#901,#902,#903,#904,#905,#906,#907,#908,#909,#910,#911,#912,#913,#914,#915),.UNSPECIFIED.,.F.,.U.,(6,3,3,3,6),(0.,5.89048622548,11.780972451,17.6714586764,23.5619449019),.UNSPECIFIED.) ;
#926=B_SPLINE_CURVE_WITH_KNOTS('',5,(#927,#928,#929,#930,#931,#932,#933,#934,#935,#936,#937,#938,#939,#940,#941),.UNSPECIFIED.,.F.,.U.,(6,3,3,3,6),(0.,5.89048622548,11.780972451,17.6714586764,23.5619449019),.UNSPECIFIED.) ;
#969=B_SPLINE_CURVE_WITH_KNOTS('',5,(#970,#971,#972,#973,#974,#975),.UNSPECIFIED.,.F.,.U.,(6,6),(0.,20.),.UNSPECIFIED.) ;
#977=B_SPLINE_CURVE_WITH_KNOTS('',5,(#978,#979,#980,#981,#982,#983),.UNSPECIFIED.,.F.,.U.,(6,6),(999570.658397,999589.658397),.UNSPECIFIED.) ;
#1038=B_SPLINE_CURVE_WITH_KNOTS('',5,(#1039,#1040,#1041,#1042,#1043,#1044),.UNSPECIFIED.,.F.,.U.,(6,6),(0.,20.),.UNSPECIFIED.) ;
#145=B_SPLINE_SURFACE_WITH_KNOTS('',5,5,((#146,#147,#148,#149,#150,#151,#152,#153,#154),(#155,#156,#157,#158,#159,#160,#161,#162,#163),(#164,#165,#166,#167,#168,#169,#170,#171,#172),(#173,#174,#175,#176,#177,#178,#179,#180,#181),(#182,#183,#184,#185,#186,#187,#188,#189,#190),(#191,#192,#193,#194,#195,#196,#197,#198,#199),(#200,#201,#202,#203,#204,#205,#206,#207,#208),(#209,#210,#211,#212,#213,#214,#215,#216,#217),(#218,#219,#220,#221,#222,#223,#224,#225,#226),(#227,#228,#229,#230,#231,#232,#233,#234,#235),(#236,#237,#238,#239,#240,#241,#242,#243,#244),(#245,#246,#247,#248,#249,#250,#251,#252,#253)),.UNSPECIFIED.,.F.,.F.,.U.,(6,3,3,6),(6,3,6),(10.7250041719,13.6444697588,15.3770574823,16.3374166834),(0.,0.5,1.),.UNSPECIFIED.) ;
#300=B_SPLINE_SURFACE_WITH_KNOTS('',5,5,((#301,#302,#303,#304,#305,#306),(#307,#308,#309,#310,#311,#312),(#313,#314,#315,#316,#317,#318),(#319,#320,#321,#322,#323,#324),(#325,#326,#327,#328,#329,#330),(#331,#332,#333,#334,#335,#336),(#337,#338,#339,#340,#341,#342),(#343,#344,#345,#346,#347,#348),(#349,#350,#351,#352,#353,#354)),.UNSPECIFIED.,.F.,.F.,.U.,(6,3,6),(6,6),(5.41967879485,9.9323870159,13.3617345549),(0.,1.),.UNSPECIFIED.) ;
#584=B_SPLINE_SURFACE_WITH_KNOTS('',5,5,((#585,#586,#587,#588,#589,#590,#591,#592,#593),(#594,#595,#596,#597,#598,#599,#600,#601,#602),(#603,#604,#605,#606,#607,#608,#609,#610,#611),(#612,#613,#614,#615,#616,#617,#618,#619,#620),(#621,#622,#623,#624,#625,#626,#627,#628,#629),(#630,#631,#632,#633,#634,#635,#636,#637,#638),(#639,#640,#641,#642,#643,#644,#645,#646,#647),(#648,#649,#650,#651,#652,#653,#654,#655,#656),(#657,#658,#659,#660,#661,#662,#663,#664,#665),(#666,#667,#668,#669,#670,#671,#672,#673,#674),(#675,#676,#677,#678,#679,#680,#681,#682,#683),(#684,#685,#686,#687,#688,#689,#690,#691,#692)),.UNSPECIFIED.,.F.,.F.,.U.,(6,3,3,6),(6,3,6),(8.86388897611,10.2794966541,11.6562740621,14.4799771449),(0.,0.5,1.),.UNSPECIFIED.) ;
#735=B_SPLINE_SURFACE_WITH_KNOTS('',5,5,((#736,#737,#738,#739,#740,#741),(#742,#743,#744,#745,#746,#747),(#748,#749,#750,#751,#752,#753),(#754,#755,#756,#757,#758,#759),(#760,#761,#762,#763,#764,#765),(#766,#767,#768,#769,#770,#771),(#772,#773,#774,#775,#776,#777),(#778,#779,#780,#781,#782,#783),(#784,#785,#786,#787,#788,#789)),.UNSPECIFIED.,.F.,.F.,.U.,(6,3,6),(6,6),(2.1043782385,4.93863936368,10.0495471433),(0.,1.),.UNSPECIFIED.) ;
#1336=MANIFOLD_SOLID_BREP('\X2\96F64EF651E04F554F53\X0\',#61) ;
#11=CALENDAR_DATE(2026,29,7) ;
#33=CC_DESIGN_APPROVAL(#24,(#19,#6,#17)) ;
#21=CC_DESIGN_DATE_AND_TIME_ASSIGNMENT(#13,#20,(#19)) ;
#32=CC_DESIGN_DATE_AND_TIME_ASSIGNMENT(#13,#31,(#17)) ;
#20=DATE_TIME_ROLE('classification_date') ;
#31=DATE_TIME_ROLE('creation_date') ;
#30=CC_DESIGN_PERSON_AND_ORGANIZATION_ASSIGNMENT(#28,#29,(#19)) ;
#36=CC_DESIGN_PERSON_AND_ORGANIZATION_ASSIGNMENT(#28,#37,(#6)) ;
#38=CC_DESIGN_PERSON_AND_ORGANIZATION_ASSIGNMENT(#28,#39,(#6,#17)) ;
#40=CC_DESIGN_PERSON_AND_ORGANIZATION_ASSIGNMENT(#28,#41,(#5)) ;
#29=PERSON_AND_ORGANIZATION_ROLE('classification_officer') ;
#37=PERSON_AND_ORGANIZATION_ROLE('design_supplier') ;
#39=PERSON_AND_ORGANIZATION_ROLE('creator') ;
#41=PERSON_AND_ORGANIZATION_ROLE('design_owner') ;
#42=CC_DESIGN_SECURITY_CLASSIFICATION(#19,(#6,#1339)) ;
#59=DOCUMENT('4','zhijia2.CATPart','CATPart document',#58) ;
#58=DOCUMENT_TYPE('') ;
#93=CIRCLE('generated circle',#92,10.) ;
#126=CIRCLE('generated circle',#125,11.) ;
#415=CIRCLE('generated circle',#414,1.) ;
#440=CIRCLE('generated circle',#439,11.) ;
#454=CIRCLE('generated circle',#453,11.) ;
#473=CIRCLE('generated circle',#472,11.) ;
#503=CIRCLE('generated circle',#502,1.) ;
#508=CIRCLE('generated circle',#507,1.) ;
#532=CIRCLE('generated circle',#531,1.) ;
#565=CIRCLE('generated circle',#564,10.) ;
#864=CIRCLE('generated circle',#863,1.) ;
#998=CIRCLE('generated circle',#997,2.60000000001) ;
#1007=CIRCLE('generated circle',#1006,2.60000000001) ;
#1065=CIRCLE('generated circle',#1064,2.60000000001) ;
#1074=CIRCLE('generated circle',#1073,2.60000000001) ;
#1199=CIRCLE('generated circle',#1198,7.5) ;
#1220=CIRCLE('generated circle',#1219,2.6) ;
#1229=CIRCLE('generated circle',#1228,2.6) ;
#1251=CIRCLE('generated circle',#1250,7.5) ;
#1282=CIRCLE('generated circle',#1281,2.6) ;
#1291=CIRCLE('generated circle',#1290,2.6) ;
#1341=CONTEXT_DEPENDENT_SHAPE_REPRESENTATION(#1342,#1340) ;
#1338=SHAPE_REPRESENTATION_RELATIONSHIP(' ',' ',#53,#1337) ;
#411=CYLINDRICAL_SURFACE('generated cylinder',#410,1.) ;
#427=CYLINDRICAL_SURFACE('generated cylinder',#426,11.) ;
#490=CYLINDRICAL_SURFACE('generated cylinder',#489,1.) ;
#521=CYLINDRICAL_SURFACE('generated cylinder',#520,1.) ;
#860=CYLINDRICAL_SURFACE('generated cylinder',#859,1.) ;
#1154=CYLINDRICAL_SURFACE('generated cylinder',#1153,2.60000000001) ;
#1240=CYLINDRICAL_SURFACE('generated cylinder',#1239,7.5) ;
#1311=CYLINDRICAL_SURFACE('generated cylinder',#1310,2.6) ;
#106=TOROIDAL_SURFACE('homeo Torus',#105,10.,1.) ;
#545=TOROIDAL_SURFACE('homeo Torus',#544,10.,1.) ;
#3=DESIGN_CONTEXT(' ',#1,'design') ;
#75=EDGE_CURVE('',#72,#74,#70,.T.) ;
#82=EDGE_CURVE('',#81,#72,#79,.T.) ;
#89=EDGE_CURVE('',#81,#88,#86,.T.) ;
#94=EDGE_CURVE('',#74,#88,#93,.F.) ;
#122=EDGE_CURVE('',#88,#121,#107,.T.) ;
#129=EDGE_CURVE('',#128,#121,#126,.F.) ;
#137=EDGE_CURVE('',#74,#128,#130,.T.) ;
#262=EDGE_CURVE('',#88,#261,#254,.F.) ;
#284=EDGE_CURVE('',#261,#283,#263,.T.) ;
#292=EDGE_CURVE('',#121,#283,#285,.F.) ;
#373=EDGE_CURVE('',#372,#261,#355,.T.) ;
#392=EDGE_CURVE('',#391,#88,#374,.T.) ;
#399=EDGE_CURVE('',#391,#372,#393,.F.) ;
#416=EDGE_CURVE('',#81,#391,#415,.T.) ;
#436=EDGE_CURVE('',#433,#435,#431,.F.) ;
#443=EDGE_CURVE('',#435,#442,#440,.F.) ;
#450=EDGE_CURVE('',#442,#449,#447,.F.) ;
#457=EDGE_CURVE('',#456,#449,#454,.T.) ;
#462=EDGE_CURVE('',#456,#128,#461,.T.) ;
#469=EDGE_CURVE('',#121,#468,#466,.T.) ;
#474=EDGE_CURVE('',#468,#433,#473,.T.) ;
#499=EDGE_CURVE('',#496,#498,#494,.T.) ;
#504=EDGE_CURVE('',#435,#498,#503,.T.) ;
#509=EDGE_CURVE('',#433,#496,#508,.T.) ;
#528=EDGE_CURVE('',#283,#527,#525,.T.) ;
#533=EDGE_CURVE('',#527,#468,#532,.F.) ;
#561=EDGE_CURVE('',#435,#560,#546,.T.) ;
#568=EDGE_CURVE('',#560,#567,#565,.F.) ;
#576=EDGE_CURVE('',#442,#567,#569,.F.) ;
#720=EDGE_CURVE('',#498,#719,#693,.T.) ;
#727=EDGE_CURVE('',#560,#719,#721,.F.) ;
#802=EDGE_CURVE('',#719,#801,#790,.T.) ;
#811=EDGE_CURVE('',#801,#810,#803,.T.) ;
#822=EDGE_CURVE('',#560,#810,#812,.T.) ;
#836=EDGE_CURVE('',#835,#560,#833,.T.) ;
#843=EDGE_CURVE('',#842,#835,#840,.T.) ;
#848=EDGE_CURVE('',#842,#567,#847,.T.) ;
#865=EDGE_CURVE('',#810,#835,#864,.T.) ;
#899=EDGE_CURVE('',#896,#898,#894,.T.) ;
#918=EDGE_CURVE('',#896,#917,#900,.F.) ;
#925=EDGE_CURVE('',#917,#924,#922,.T.) ;
#942=EDGE_CURVE('',#898,#924,#926,.F.) ;
#961=EDGE_CURVE('',#960,#496,#958,.T.) ;
#968=EDGE_CURVE('',#960,#967,#965,.T.) ;
#976=EDGE_CURVE('',#967,#898,#969,.F.) ;
#984=EDGE_CURVE('',#801,#924,#977,.T.) ;
#1003=EDGE_CURVE('',#1000,#1002,#998,.T.) ;
#1008=EDGE_CURVE('',#1002,#1000,#1007,.T.) ;
#1023=EDGE_CURVE('',#917,#842,#1022,.F.) ;
#1047=EDGE_CURVE('',#1046,#896,#1038,.F.) ;
#1052=EDGE_CURVE('',#449,#1046,#1051,.T.) ;
#1070=EDGE_CURVE('',#1067,#1069,#1065,.T.) ;
#1075=EDGE_CURVE('',#1069,#1067,#1074,.T.) ;
#1094=EDGE_CURVE('',#1091,#1093,#1089,.F.) ;
#1101=EDGE_CURVE('',#1100,#1091,#1098,.T.) ;
#1108=EDGE_CURVE('',#1100,#1107,#1105,.F.) ;
#1113=EDGE_CURVE('',#1107,#1046,#1112,.F.) ;
#1118=EDGE_CURVE('',#1093,#960,#1117,.F.) ;
#1140=EDGE_CURVE('',#527,#1093,#1139,.T.) ;
#1159=EDGE_CURVE('',#1067,#1002,#1158,.T.) ;
#1164=EDGE_CURVE('',#1069,#1000,#1163,.T.) ;
#1183=EDGE_CURVE('',#456,#1107,#1182,.T.) ;
#1202=EDGE_CURVE('',#1201,#1100,#1199,.T.) ;
#1207=EDGE_CURVE('',#72,#1201,#1206,.F.) ;
#1225=EDGE_CURVE('',#1222,#1224,#1220,.T.) ;
#1230=EDGE_CURVE('',#1224,#1222,#1229,.T.) ;
#1247=EDGE_CURVE('',#1201,#1246,#1244,.T.) ;
#1252=EDGE_CURVE('',#1246,#1091,#1251,.T.) ;
#1269=EDGE_CURVE('',#1246,#372,#1268,.F.) ;
#1287=EDGE_CURVE('',#1284,#1286,#1282,.T.) ;
#1292=EDGE_CURVE('',#1286,#1284,#1291,.T.) ;
#1316=EDGE_CURVE('',#1222,#1286,#1315,.T.) ;
#1321=EDGE_CURVE('',#1224,#1284,#1320,.T.) ;
#95=EDGE_LOOP('',(#96,#97,#98,#99)) ;
#138=EDGE_LOOP('',(#139,#140,#141,#142)) ;
#293=EDGE_LOOP('',(#294,#295,#296,#297)) ;
#400=EDGE_LOOP('',(#401,#402,#403,#404)) ;
#417=EDGE_LOOP('',(#418,#419,#420)) ;
#475=EDGE_LOOP('',(#476,#477,#478,#479,#480,#481,#482,#483)) ;
#510=EDGE_LOOP('',(#511,#512,#513,#514)) ;
#534=EDGE_LOOP('',(#535,#536,#537,#538)) ;
#577=EDGE_LOOP('',(#578,#579,#580,#581)) ;
#728=EDGE_LOOP('',(#729,#730,#731,#732)) ;
#823=EDGE_LOOP('',(#824,#825,#826,#827)) ;
#849=EDGE_LOOP('',(#850,#851,#852,#853)) ;
#866=EDGE_LOOP('',(#867,#868,#869)) ;
#943=EDGE_LOOP('',(#944,#945,#946,#947)) ;
#985=EDGE_LOOP('',(#986,#987,#988,#989,#990,#991,#992,#993)) ;
#1009=EDGE_LOOP('',(#1010,#1011)) ;
#1024=EDGE_LOOP('',(#1025,#1026,#1027,#1028,#1029,#1030)) ;
#1053=EDGE_LOOP('',(#1054,#1055,#1056,#1057,#1058,#1059,#1060)) ;
#1076=EDGE_LOOP('',(#1077,#1078)) ;
#1119=EDGE_LOOP('',(#1120,#1121,#1122,#1123,#1124,#1125,#1126,#1127,#1128)) ;
#1141=EDGE_LOOP('',(#1142,#1143,#1144,#1145,#1146,#1147)) ;
#1165=EDGE_LOOP('',(#1166,#1167,#1168,#1169)) ;
#1172=EDGE_LOOP('',(#1173,#1174,#1175,#1176)) ;
#1184=EDGE_LOOP('',(#1185,#1186,#1187,#1188)) ;
#1208=EDGE_LOOP('',(#1209,#1210,#1211,#1212,#1213,#1214,#1215)) ;
#1231=EDGE_LOOP('',(#1232,#1233)) ;
#1253=EDGE_LOOP('',(#1254,#1255,#1256,#1257)) ;
#1270=EDGE_LOOP('',(#1271,#1272,#1273,#1274,#1275,#1276,#1277)) ;
#1293=EDGE_LOOP('',(#1294,#1295)) ;
#1298=EDGE_LOOP('',(#1299,#1300,#1301,#1302,#1303,#1304)) ;
#1322=EDGE_LOOP('',(#1323,#1324,#1325,#1326)) ;
#1329=EDGE_LOOP('',(#1330,#1331,#1332,#1333)) ;
#100=FACE_OUTER_BOUND('',#95,.T.) ;
#143=FACE_OUTER_BOUND('',#138,.T.) ;
#298=FACE_OUTER_BOUND('',#293,.T.) ;
#405=FACE_OUTER_BOUND('',#400,.T.) ;
#421=FACE_OUTER_BOUND('',#417,.T.) ;
#484=FACE_OUTER_BOUND('',#475,.T.) ;
#515=FACE_OUTER_BOUND('',#510,.T.) ;
#539=FACE_OUTER_BOUND('',#534,.T.) ;
#582=FACE_OUTER_BOUND('',#577,.T.) ;
#733=FACE_OUTER_BOUND('',#728,.T.) ;
#828=FACE_OUTER_BOUND('',#823,.T.) ;
#854=FACE_OUTER_BOUND('',#849,.T.) ;
#870=FACE_OUTER_BOUND('',#866,.T.) ;
#948=FACE_OUTER_BOUND('',#943,.T.) ;
#994=FACE_OUTER_BOUND('',#985,.T.) ;
#1031=FACE_OUTER_BOUND('',#1024,.T.) ;
#1061=FACE_OUTER_BOUND('',#1053,.T.) ;
#1129=FACE_OUTER_BOUND('',#1119,.T.) ;
#1148=FACE_OUTER_BOUND('',#1141,.T.) ;
#1170=FACE_OUTER_BOUND('',#1165,.T.) ;
#1177=FACE_OUTER_BOUND('',#1172,.T.) ;
#1189=FACE_OUTER_BOUND('',#1184,.T.) ;
#1216=FACE_OUTER_BOUND('',#1208,.T.) ;
#1258=FACE_OUTER_BOUND('',#1253,.T.) ;
#1278=FACE_OUTER_BOUND('',#1270,.T.) ;
#1305=FACE_OUTER_BOUND('',#1298,.T.) ;
#1327=FACE_OUTER_BOUND('',#1322,.T.) ;
#1334=FACE_OUTER_BOUND('',#1329,.T.) ;
#49=UNCERTAINTY_MEASURE_WITH_UNIT(LENGTH_MEASURE(0.005),#46,'distance_accuracy_value','CONFUSED CURVE UNCERTAINTY') ;
#51=UNCERTAINTY_MEASURE_WITH_UNIT(LENGTH_MEASURE(0.005),#46,'distance_accuracy_value','CONFUSED CURVE UNCERTAINTY') ;
#70=LINE('Line',#67,#69) ;
#79=LINE('Line',#76,#78) ;
#86=LINE('Line',#83,#85) ;
#431=LINE('Line',#428,#430) ;
#447=LINE('Line',#444,#446) ;
#461=LINE('Line',#458,#460) ;
#466=LINE('Line',#463,#465) ;
#494=LINE('Line',#491,#493) ;
#525=LINE('Line',#522,#524) ;
#833=LINE('Line',#830,#832) ;
#840=LINE('Line',#837,#839) ;
#847=LINE('Line',#844,#846) ;
#894=LINE('Line',#891,#893) ;
#922=LINE('Line',#919,#921) ;
#958=LINE('Line',#955,#957) ;
#965=LINE('Line',#962,#964) ;
#1022=LINE('Line',#1019,#1021) ;
#1051=LINE('Line',#1048,#1050) ;
#1089=LINE('Line',#1086,#1088) ;
#1098=LINE('Line',#1095,#1097) ;
#1105=LINE('Line',#1102,#1104) ;
#1112=LINE('Line',#1109,#1111) ;
#1117=LINE('Line',#1114,#1116) ;
#1139=LINE('Line',#1136,#1138) ;
#1158=LINE('Line',#1155,#1157) ;
#1163=LINE('Line',#1160,#1162) ;
#1182=LINE('Line',#1179,#1181) ;
#1206=LINE('Line',#1203,#1205) ;
#1244=LINE('Line',#1241,#1243) ;
#1268=LINE('Line',#1265,#1267) ;
#1315=LINE('Line',#1312,#1314) ;
#1320=LINE('Line',#1317,#1319) ;
#2=MECHANICAL_CONTEXT(' ',#1,'mechanical') ;
#1339=NEXT_ASSEMBLY_USAGE_OCCURRENCE('Part9.1','Part9.1','',#17,#57,'Part9.1') ;
#27=PERSONAL_ADDRESS(' ',' ',' ',' ',' ',' ',' ',' ',' ',' ',' ',' ',(#25),' ') ;
#66=PLANE('',#65) ;
#954=PLANE('',#953) ;
#1018=PLANE('',#1017) ;
#1037=PLANE('',#1036) ;
#1085=PLANE('',#1084) ;
#1135=PLANE('',#1134) ;
#1195=PLANE('',#1194) ;
#1264=PLANE('',#1263) ;
#7=PRODUCT_CATEGORY('part',$) ;
#14=PRODUCT_CATEGORY('part',$) ;
#9=PRODUCT_CATEGORY_RELATIONSHIP(' ',' ',#7,#8) ;
#16=PRODUCT_CATEGORY_RELATIONSHIP(' ',' ',#14,#15) ;
#6=PRODUCT_DEFINITION_FORMATION_WITH_SPECIFIED_SOURCE('',' ',#5,.NOT_KNOWN.) ;
#56=PRODUCT_DEFINITION_FORMATION_WITH_SPECIFIED_SOURCE('',' ',#55,.NOT_KNOWN.) ;
#57=PRODUCT_DEFINITION_WITH_ASSOCIATED_DOCUMENTS('',' ',#56,#3,(#59)) ;
#8=PRODUCT_RELATED_PRODUCT_CATEGORY('detail',$,(#55)) ;
#15=PRODUCT_RELATED_PRODUCT_CATEGORY('part',$,(#5)) ;
#43=SHAPE_DEFINITION_REPRESENTATION(#45,#44) ;
#54=SHAPE_DEFINITION_REPRESENTATION(#60,#53) ;
#890=SURFACE_OF_LINEAR_EXTRUSION('generated tabulated cylinder',#872,#889) ;
#72=VERTEX_POINT('',#71) ;
#74=VERTEX_POINT('',#73) ;
#81=VERTEX_POINT('',#80) ;
#88=VERTEX_POINT('',#87) ;
#121=VERTEX_POINT('',#120) ;
#128=VERTEX_POINT('',#127) ;
#261=VERTEX_POINT('',#260) ;
#283=VERTEX_POINT('',#282) ;
#372=VERTEX_POINT('',#371) ;
#391=VERTEX_POINT('',#390) ;
#433=VERTEX_POINT('',#432) ;
#435=VERTEX_POINT('',#434) ;
#442=VERTEX_POINT('',#441) ;
#449=VERTEX_POINT('',#448) ;
#456=VERTEX_POINT('',#455) ;
#468=VERTEX_POINT('',#467) ;
#496=VERTEX_POINT('',#495) ;
#498=VERTEX_POINT('',#497) ;
#527=VERTEX_POINT('',#526) ;
#560=VERTEX_POINT('',#559) ;
#567=VERTEX_POINT('',#566) ;
#719=VERTEX_POINT('',#718) ;
#801=VERTEX_POINT('',#800) ;
#810=VERTEX_POINT('',#809) ;
#835=VERTEX_POINT('',#834) ;
#842=VERTEX_POINT('',#841) ;
#896=VERTEX_POINT('',#895) ;
#898=VERTEX_POINT('',#897) ;
#917=VERTEX_POINT('',#916) ;
#924=VERTEX_POINT('',#923) ;
#960=VERTEX_POINT('',#959) ;
#967=VERTEX_POINT('',#966) ;
#1000=VERTEX_POINT('',#999) ;
#1002=VERTEX_POINT('',#1001) ;
#1046=VERTEX_POINT('',#1045) ;
#1067=VERTEX_POINT('',#1066) ;
#1069=VERTEX_POINT('',#1068) ;
#1091=VERTEX_POINT('',#1090) ;
#1093=VERTEX_POINT('',#1092) ;
#1100=VERTEX_POINT('',#1099) ;
#1107=VERTEX_POINT('',#1106) ;
#1201=VERTEX_POINT('',#1200) ;
#1222=VERTEX_POINT('',#1221) ;
#1224=VERTEX_POINT('',#1223) ;
#1246=VERTEX_POINT('',#1245) ;
#1284=VERTEX_POINT('',#1283) ;
#1286=VERTEX_POINT('',#1285) ;
#46=(LENGTH_UNIT()NAMED_UNIT(*)SI_UNIT(.MILLI.,.METRE.)) ;
#47=(NAMED_UNIT(*)PLANE_ANGLE_UNIT()SI_UNIT($,.RADIAN.)) ;
#48=(NAMED_UNIT(*)SI_UNIT($,.STERADIAN.)SOLID_ANGLE_UNIT()) ;
#50=(GEOMETRIC_REPRESENTATION_CONTEXT(3)GLOBAL_UNCERTAINTY_ASSIGNED_CONTEXT((#49))GLOBAL_UNIT_ASSIGNED_CONTEXT((#46,#47,#48))REPRESENTATION_CONTEXT(' ',' ')) ;
#52=(GEOMETRIC_REPRESENTATION_CONTEXT(3)GLOBAL_UNCERTAINTY_ASSIGNED_CONTEXT((#51))GLOBAL_UNIT_ASSIGNED_CONTEXT((#46,#47,#48))REPRESENTATION_CONTEXT(' ',' ')) ;
#1342=(REPRESENTATION_RELATIONSHIP(' ',' ',#53,#44)REPRESENTATION_RELATIONSHIP_WITH_TRANSFORMATION(#1343)SHAPE_REPRESENTATION_RELATIONSHIP()) ;
ENDSEC;
END-ISO-10303-21;
