ISO-10303-21;
HEADER;
FILE_DESCRIPTION (( 'STEP AP203' ),
    '1' );
FILE_NAME ('·¨À¼ÅÌ.STEP',
    '2026-07-29T03:18:39',
    ( '' ),
    ( '' ),
    'SwSTEP 2.0',
    'SolidWorks 2025',
    '' );
FILE_SCHEMA (( 'CONFIG_CONTROL_DESIGN' ));
ENDSEC;

DATA;
#1 = APPROVAL_STATUS ( 'not_yet_approved' ) ;
#2 = CARTESIAN_POINT ( 'NONE',  ( -1.303219315895387309, -6.298893360160956689, 2.500000000000043965 ) ) ;
#3 = CARTESIAN_POINT ( 'NONE',  ( 6.696780684104612469, -8.298893360160956689, 4.398493724472981443E-14 ) ) ;
#4 = ORIENTED_EDGE ( 'NONE', *, *, #545, .T. ) ;
#5 = PERSON_AND_ORGANIZATION ( #227, #19 ) ;
#6 = EDGE_CURVE ( 'NONE', #302, #95, #529, .T. ) ;
#7 = DIRECTION ( 'NONE',  ( 0.000000000000000000, 0.000000000000000000, -1.000000000000000000 ) ) ;
#8 = AXIS2_PLACEMENT_3D ( 'NONE', #400, #16, #447 ) ;
#9 = DIRECTION ( 'NONE',  ( -0.000000000000000000, 1.000000000000000000, -0.000000000000000000 ) ) ;
#10 = ORIENTED_EDGE ( 'NONE', *, *, #609, .T. ) ;
#11 = DIRECTION ( 'NONE',  ( 0.000000000000000000, 0.000000000000000000, -1.000000000000000000 ) ) ;
#12 = CARTESIAN_POINT ( 'NONE',  ( -1.303219315895387531, -8.298893360160956689, 8.000000000000044409 ) ) ;
#13 = ORIENTED_EDGE ( 'NONE', *, *, #341, .T. ) ;
#14 = ADVANCED_FACE ( 'NONE', ( #684 ), #674, .F. ) ;
#15 = CARTESIAN_POINT ( 'NONE',  ( -1.303219315895387531, -6.298893360160956689, 1.500000000000044187 ) ) ;
#16 = DIRECTION ( 'NONE',  ( 0.000000000000000000, -1.000000000000000000, 0.000000000000000000 ) ) ;
#17 = AXIS2_PLACEMENT_3D ( 'NONE', #654, #267, #485 ) ;
#18 = VERTEX_POINT ( 'NONE', #678 ) ;
#19 = ORGANIZATION ( 'æœª', 'æœª', '' ) ;
#20 = EDGE_LOOP ( 'NONE', ( #75, #538, #276, #245 ) ) ;
#21 = CYLINDRICAL_SURFACE ( 'NONE', #109, 1.499999999999999556 ) ;
#22 = DIRECTION ( 'NONE',  ( 0.000000000000000000, 0.000000000000000000, 1.000000000000000000 ) ) ;
#23 = EDGE_LOOP ( 'NONE', ( #451, #177, #354, #682 ) ) ;
#24 = CARTESIAN_POINT ( 'NONE',  ( -1.303219315895387531, -6.298893360160956689, -7.999999999999956479 ) ) ;
#25 = DIRECTION ( 'NONE',  ( -0.000000000000000000, 1.000000000000000000, -0.000000000000000000 ) ) ;
#26 = ORIENTED_EDGE ( 'NONE', *, *, #524, .T. ) ;
#27 = DIRECTION ( 'NONE',  ( 0.000000000000000000, 0.000000000000000000, 1.000000000000000000 ) ) ;
#28 = ADVANCED_FACE ( 'NONE', ( #305 ), #476, .F. ) ;
#29 = CARTESIAN_POINT ( 'NONE',  ( -1.303219315895387309, -6.298893360160956689, 6.500000000000043521 ) ) ;
#30 = AXIS2_PLACEMENT_3D ( 'NONE', #600, #45, #258 ) ;
#31 = PRODUCT_DEFINITION ( 'æœ', '', #74, #487 ) ;
#32 = EDGE_LOOP ( 'NONE', ( #379, #26 ) ) ;
#33 = LINE ( 'NONE', #132, #191 ) ;
#34 = CARTESIAN_POINT ( 'NONE',  ( -1.303219315895387531, 3.701106639839043755, -2.499999999999956035 ) ) ;
#35 = CIRCLE ( 'NONE', #648, 4.999999999999999112 ) ;
#36 = EDGE_LOOP ( 'NONE', ( #195, #4, #626, #353 ) ) ;
#37 = CARTESIAN_POINT ( 'NONE',  ( -9.303219315895388419, -6.298893360160956689, 4.398493724472981443E-14 ) ) ;
#38 = FACE_OUTER_BOUND ( 'NONE', #241, .T. ) ;
#39 = EDGE_CURVE ( 'NONE', #566, #333, #303, .T. ) ;
#40 = ORIENTED_EDGE ( 'NONE', *, *, #703, .T. ) ;
#41 = CIRCLE ( 'NONE', #287, 2.500000000000000000 ) ;
#42 = ORIENTED_EDGE ( 'NONE', *, *, #473, .F. ) ;
#43 = CC_DESIGN_PERSON_AND_ORGANIZATION_ASSIGNMENT ( #704, #497, ( #74 ) ) ;
#44 = PLANE ( 'NONE',  #357 ) ;
#45 = DIRECTION ( 'NONE',  ( 0.000000000000000000, 1.000000000000000000, 0.000000000000000000 ) ) ;
#46 = DATE_AND_TIME ( #103, #117 ) ;
#47 = DIRECTION ( 'NONE',  ( -0.000000000000000000, 1.000000000000000000, -0.000000000000000000 ) ) ;
#48 = PERSON_AND_ORGANIZATION ( #227, #19 ) ;
#49 = DIRECTION ( 'NONE',  ( 0.000000000000000000, -1.000000000000000000, 0.000000000000000000 ) ) ;
#50 = MANIFOLD_SOLID_BREP ( '<\X2\6cd5517080548f7456686b658fdb7535673a\X0\5mm>-<\X2\51f853f0\X0\-\X2\62c94f38\X0\2>', #386 ) ;
#51 = VECTOR ( 'NONE', #597, 1000.000000000000000 ) ;
#52 = AXIS2_PLACEMENT_3D ( 'NONE', #12, #450, #664 ) ;
#53 = APPROVAL_ROLE ( '' ) ;
#54 = DIRECTION ( 'NONE',  ( 0.000000000000000000, 0.000000000000000000, 1.000000000000000000 ) ) ;
#55 = APPROVAL_ROLE ( '' ) ;
#56 = CYLINDRICAL_SURFACE ( 'NONE', #17, 1.499999999999999556 ) ;
#57 = EDGE_CURVE ( 'NONE', #113, #422, #499, .T. ) ;
#58 = AXIS2_PLACEMENT_3D ( 'NONE', #512, #343, #615 ) ;
#59 = VERTEX_POINT ( 'NONE', #418 ) ;
#60 = PERSON_AND_ORGANIZATION_ROLE ( 'creator' ) ;
#61 = DIRECTION ( 'NONE',  ( 0.000000000000000000, -1.000000000000000000, 0.000000000000000000 ) ) ;
#62 = PRODUCT_DEFINITION_SHAPE ( 'NONE', 'NONE',  #31 ) ;
#63 = LINE ( 'NONE', #168, #550 ) ;
#64 = DIRECTION ( 'NONE',  ( -0.000000000000000000, -1.000000000000000000, -0.000000000000000000 ) ) ;
#65 = AXIS2_PLACEMENT_3D ( 'NONE', #80, #522, #27 ) ;
#66 = CARTESIAN_POINT ( 'NONE',  ( 6.696780684104612469, -8.298893360160956689, 1.500000000000044631 ) ) ;
#67 = ADVANCED_FACE ( 'NONE', ( #77, #625, #38, #356, #81, #87 ), #420, .T. ) ;
#68 = AXIS2_PLACEMENT_3D ( 'NONE', #24, #661, #616 ) ;
#69 = FACE_OUTER_BOUND ( 'NONE', #20, .T. ) ;
#70 = EDGE_CURVE ( 'NONE', #113, #415, #186, .T. ) ;
#71 = DIRECTION ( 'NONE',  ( 0.000000000000000000, 0.000000000000000000, 1.000000000000000000 ) ) ;
#72 = CIRCLE ( 'NONE', #253, 11.00000000000000000 ) ;
#73 = CARTESIAN_POINT ( 'NONE',  ( -1.303219315895387531, -8.298893360160956689, -7.999999999999956479 ) ) ;
#74 = PRODUCT_DEFINITION_FORMATION_WITH_SPECIFIED_SOURCE ( 'ä»', '', #603, .NOT_KNOWN. ) ;
#75 = ORIENTED_EDGE ( 'NONE', *, *, #345, .F. ) ;
#76 = CARTESIAN_POINT ( 'NONE',  ( -1.303219315895387309, -8.298893360160956689, -9.499999999999955591 ) ) ;
#77 = FACE_BOUND ( 'NONE', #480, .T. ) ;
#78 = ORIENTED_EDGE ( 'NONE', *, *, #416, .T. ) ;
#79 = CIRCLE ( 'NONE', #68, 1.500000000000000444 ) ;
#80 = CARTESIAN_POINT ( 'NONE',  ( -1.303219315895387531, -6.298893360160956689, 4.398493724472981443E-14 ) ) ;
#81 = FACE_BOUND ( 'NONE', #456, .T. ) ;
#82 = EDGE_LOOP ( 'NONE', ( #78, #338 ) ) ;
#83 = CARTESIAN_POINT ( 'NONE',  ( -1.303219315895387531, 3.701106639839043755, 4.398493724472981443E-14 ) ) ;
#84 = CIRCLE ( 'NONE', #65, 4.999999999999999112 ) ;
#85 = ORIENTED_EDGE ( 'NONE', *, *, #178, .F. ) ;
#86 = FACE_OUTER_BOUND ( 'NONE', #570, .T. ) ;
#87 = FACE_BOUND ( 'NONE', #230, .T. ) ;
#88 = ADVANCED_FACE ( 'NONE', ( #639 ), #463, .F. ) ;
#89 = DIRECTION ( 'NONE',  ( -0.000000000000000000, 1.000000000000000000, -0.000000000000000000 ) ) ;
#90 = DIRECTION ( 'NONE',  ( -0.000000000000000000, 1.000000000000000000, -0.000000000000000000 ) ) ;
#91 = PRODUCT_RELATED_PRODUCT_CATEGORY ( 'detail', '', ( #603 ) ) ;
#92 = DIRECTION ( 'NONE',  ( -0.000000000000000000, -1.000000000000000000, -0.000000000000000000 ) ) ;
#93 = DIRECTION ( 'NONE',  ( 0.000000000000000000, 1.000000000000000000, 0.000000000000000000 ) ) ;
#94 = AXIS2_PLACEMENT_3D ( 'NONE', #574, #90, #523 ) ;
#95 = VERTEX_POINT ( 'NONE', #29 ) ;
#96 = CC_DESIGN_APPROVAL ( #166, ( #74 ) ) ;
#97 = DATE_AND_TIME ( #262, #406 ) ;
#98 = CARTESIAN_POINT ( 'NONE',  ( -1.303219315895387531, -6.298893360160956689, 4.398493724472981443E-14 ) ) ;
#99 = ORIENTED_EDGE ( 'NONE', *, *, #515, .F. ) ;
#100 = CALENDAR_DATE ( 2026, 29, 7 ) ;
#101 = FACE_OUTER_BOUND ( 'NONE', #158, .T. ) ;
#102 = ORIENTED_EDGE ( 'NONE', *, *, #448, .T. ) ;
#103 = CALENDAR_DATE ( 2026, 29, 7 ) ;
#104 = CARTESIAN_POINT ( 'NONE',  ( 6.696780684104612469, -8.298893360160956689, -1.499999999999956701 ) ) ;
#105 = AXIS2_PLACEMENT_3D ( 'NONE', #438, #93, #325 ) ;
#106 = CARTESIAN_POINT ( 'NONE',  ( -1.303219315895387531, -8.298893360160956689, -7.999999999999956479 ) ) ;
#107 = EDGE_CURVE ( 'NONE', #302, #431, #465, .T. ) ;
#108 = CARTESIAN_POINT ( 'NONE',  ( -1.303219315895387309, 3.701106639839043755, 2.500000000000043965 ) ) ;
#109 = AXIS2_PLACEMENT_3D ( 'NONE', #290, #507, #330 ) ;
#110 = ORIENTED_EDGE ( 'NONE', *, *, #609, .F. ) ;
#111 = CARTESIAN_POINT ( 'NONE',  ( -1.303219315895386199, -6.298893360160956689, -10.99999999999995559 ) ) ;
#112 = VERTEX_POINT ( 'NONE', #472 ) ;
#113 = VERTEX_POINT ( 'NONE', #244 ) ;
#114 = EDGE_CURVE ( 'NONE', #59, #613, #700, .T. ) ;
#115 = CYLINDRICAL_SURFACE ( 'NONE', #58, 1.500000000000000222 ) ;
#116 = CARTESIAN_POINT ( 'NONE',  ( -1.303219315895387531, -6.298893360160956689, 11.00000000000004263 ) ) ;
#117 = LOCAL_TIME ( 11, 18, 39.00000000000000000, #433 ) ;
#118 = EDGE_LOOP ( 'NONE', ( #506, #280, #658, #699 ) ) ;
#119 = CARTESIAN_POINT ( 'NONE',  ( -9.303219315895388419, -8.298893360160956689, 4.398493724472981443E-14 ) ) ;
#120 = LINE ( 'NONE', #337, #387 ) ;
#121 = CC_DESIGN_PERSON_AND_ORGANIZATION_ASSIGNMENT ( #48, #644, ( #603 ) ) ;
#122 = CARTESIAN_POINT ( 'NONE',  ( 6.696780684104612469, -6.298893360160956689, 4.398493724472981443E-14 ) ) ;
#123 = CYLINDRICAL_SURFACE ( 'NONE', #52, 1.499999999999999556 ) ;
#124 = EDGE_LOOP ( 'NONE', ( #235, #181, #662, #668 ) ) ;
#125 = ORIENTED_EDGE ( 'NONE', *, *, #688, .F. ) ;
#126 = DIRECTION ( 'NONE',  ( 0.000000000000000000, 0.000000000000000000, 1.000000000000000000 ) ) ;
#127 = ADVANCED_FACE ( 'NONE', ( #632 ), #583, .F. ) ;
#128 = ORIENTED_EDGE ( 'NONE', *, *, #256, .T. ) ;
#129 = DIRECTION ( 'NONE',  ( 0.000000000000000000, 1.000000000000000000, 0.000000000000000000 ) ) ;
#130 = DIRECTION ( 'NONE',  ( 0.000000000000000000, 1.000000000000000000, 0.000000000000000000 ) ) ;
#131 = ORIENTED_EDGE ( 'NONE', *, *, #160, .F. ) ;
#132 = CARTESIAN_POINT ( 'NONE',  ( -1.303219315895387531, -8.298893360160956689, 9.500000000000042633 ) ) ;
#133 = DIRECTION ( 'NONE',  ( 0.000000000000000000, 0.000000000000000000, -1.000000000000000000 ) ) ;
#134 = VERTEX_POINT ( 'NONE', #313 ) ;
#135 = ADVANCED_FACE ( 'NONE', ( #101 ), #56, .F. ) ;
#136 = DIRECTION ( 'NONE',  ( -0.000000000000000000, 1.000000000000000000, -0.000000000000000000 ) ) ;
#137 = DIRECTION ( 'NONE',  ( 0.000000000000000000, 0.000000000000000000, -1.000000000000000000 ) ) ;
#138 = CIRCLE ( 'NONE', #180, 2.500000000000000000 ) ;
#139 = APPROVAL_PERSON_ORGANIZATION ( #260, #580, #55 ) ;
#140 = ORIENTED_EDGE ( 'NONE', *, *, #572, .F. ) ;
#141 = VERTEX_POINT ( 'NONE', #434 ) ;
#142 = CARTESIAN_POINT ( 'NONE',  ( -1.303219315895387531, -6.298893360160956689, 4.398493724472981443E-14 ) ) ;
#143 = DIRECTION ( 'NONE',  ( -0.000000000000000000, -1.000000000000000000, -0.000000000000000000 ) ) ;
#144 = EDGE_LOOP ( 'NONE', ( #630, #571, #207, #249 ) ) ;
#145 = EDGE_LOOP ( 'NONE', ( #606, #516 ) ) ;
#146 = VECTOR ( 'NONE', #336, 1000.000000000000000 ) ;
#147 = ORIENTED_EDGE ( 'NONE', *, *, #394, .F. ) ;
#148 = CALENDAR_DATE ( 2026, 29, 7 ) ;
#149 = DIRECTION ( 'NONE',  ( 0.000000000000000000, 0.000000000000000000, 1.000000000000000000 ) ) ;
#150 = AXIS2_PLACEMENT_3D ( 'NONE', #527, #360, #133 ) ;
#151 = EDGE_CURVE ( 'NONE', #530, #213, #156, .T. ) ;
#152 = ORIENTED_EDGE ( 'NONE', *, *, #107, .T. ) ;
#153 = DATE_AND_TIME ( #148, #335 ) ;
#154 = CARTESIAN_POINT ( 'NONE',  ( -1.303219315895387309, -8.298893360160956689, 6.500000000000043521 ) ) ;
#155 = EDGE_LOOP ( 'NONE', ( #13, #348 ) ) ;
#156 = LINE ( 'NONE', #435, #490 ) ;
#157 = DIRECTION ( 'NONE',  ( 0.000000000000000000, 0.000000000000000000, -1.000000000000000000 ) ) ;
#158 = EDGE_LOOP ( 'NONE', ( #320, #315, #579, #147 ) ) ;
#159 = PERSON_AND_ORGANIZATION ( #227, #19 ) ;
#160 = EDGE_CURVE ( 'NONE', #18, #351, #491, .T. ) ;
#161 = DIRECTION ( 'NONE',  ( 0.000000000000000000, 0.000000000000000000, 1.000000000000000000 ) ) ;
#162 = AXIS2_PLACEMENT_3D ( 'NONE', #83, #143, #479 ) ;
#163 = VECTOR ( 'NONE', #283, 1000.000000000000000 ) ;
#164 = DATE_TIME_ROLE ( 'creation_date' ) ;
#165 = DIRECTION ( 'NONE',  ( 0.000000000000000000, 0.000000000000000000, 1.000000000000000000 ) ) ;
#166 = APPROVAL ( #270, 'æœª' ) ;
#167 = ORIENTED_EDGE ( 'NONE', *, *, #390, .F. ) ;
#168 = CARTESIAN_POINT ( 'NONE',  ( -1.303219315895387531, -8.298893360160956689, -6.499999999999956479 ) ) ;
#169 = ORIENTED_EDGE ( 'NONE', *, *, #473, .T. ) ;
#170 = CARTESIAN_POINT ( 'NONE',  ( 6.696780684104612469, -6.298893360160956689, 4.398493724472981443E-14 ) ) ;
#171 = CYLINDRICAL_SURFACE ( 'NONE', #601, 1.500000000000000444 ) ;
#172 = CC_DESIGN_PERSON_AND_ORGANIZATION_ASSIGNMENT ( #159, #383, ( #74 ) ) ;
#173 = DIRECTION ( 'NONE',  ( -0.000000000000000000, 1.000000000000000000, -0.000000000000000000 ) ) ;
#174 = CARTESIAN_POINT ( 'NONE',  ( 6.696780684104612469, -8.298893360160956689, 4.398493724472981443E-14 ) ) ;
#175 = DIRECTION ( 'NONE',  ( 0.000000000000000000, -1.000000000000000000, 0.000000000000000000 ) ) ;
#176 = CARTESIAN_POINT ( 'NONE',  ( 6.696780684104612469, -8.298893360160956689, 1.500000000000044631 ) ) ;
#177 = ORIENTED_EDGE ( 'NONE', *, *, #432, .T. ) ;
#178 = EDGE_CURVE ( 'NONE', #695, #530, #264, .T. ) ;
#179 = ORIENTED_EDGE ( 'NONE', *, *, #524, .F. ) ;
#180 = AXIS2_PLACEMENT_3D ( 'NONE', #98, #533, #161 ) ;
#181 = ORIENTED_EDGE ( 'NONE', *, *, #6, .T. ) ;
#182 = ORIENTED_EDGE ( 'NONE', *, *, #6, .F. ) ;
#183 = DIRECTION ( 'NONE',  ( -0.000000000000000000, -1.000000000000000000, -0.000000000000000000 ) ) ;
#184 = EDGE_CURVE ( 'NONE', #530, #695, #510, .T. ) ;
#185 = VERTEX_POINT ( 'NONE', #2 ) ;
#186 = LINE ( 'NONE', #34, #289 ) ;
#187 = ORIENTED_EDGE ( 'NONE', *, *, #494, .T. ) ;
#188 = FACE_OUTER_BOUND ( 'NONE', #144, .T. ) ;
#189 = CARTESIAN_POINT ( 'NONE',  ( -1.303219315895387531, 3.701106639839043755, 4.398493724472981443E-14 ) ) ;
#190 = AXIS2_PLACEMENT_3D ( 'NONE', #296, #411, #350 ) ;
#191 = VECTOR ( 'NONE', #89, 1000.000000000000000 ) ;
#192 = EDGE_LOOP ( 'NONE', ( #405, #610, #367, #236 ) ) ;
#193 =( LENGTH_UNIT ( ) NAMED_UNIT ( * ) SI_UNIT ( .MILLI., .METRE. ) );
#194 = AXIS2_PLACEMENT_3D ( 'NONE', #279, #64, #503 ) ;
#195 = ORIENTED_EDGE ( 'NONE', *, *, #57, .T. ) ;
#196 = ORIENTED_EDGE ( 'NONE', *, *, #184, .T. ) ;
#197 = DIRECTION ( 'NONE',  ( 0.000000000000000000, -1.000000000000000000, 0.000000000000000000 ) ) ;
#198 = CARTESIAN_POINT ( 'NONE',  ( -9.303219315895388419, -8.298893360160956689, 1.500000000000043521 ) ) ;
#199 = EDGE_CURVE ( 'NONE', #273, #18, #242, .T. ) ;
#200 = CIRCLE ( 'NONE', #298, 1.500000000000000222 ) ;
#201 = APPLICATION_PROTOCOL_DEFINITION ( 'international standard', 'config_control_design', 1994, #301 ) ;
#202 = CARTESIAN_POINT ( 'NONE',  ( -1.303219315895387531, -8.298893360160956689, 4.398493724472981443E-14 ) ) ;
#203 = ORIENTED_EDGE ( 'NONE', *, *, #462, .F. ) ;
#204 = CC_DESIGN_SECURITY_CLASSIFICATION ( #306, ( #74 ) ) ;
#205 = MECHANICAL_CONTEXT ( 'NONE', #301, 'mechanical' ) ;
#206 = CARTESIAN_POINT ( 'NONE',  ( -1.303219315895387531, -8.298893360160956689, 4.398493724472981443E-14 ) ) ;
#207 = ORIENTED_EDGE ( 'NONE', *, *, #688, .T. ) ;
#208 = EDGE_CURVE ( 'NONE', #613, #333, #380, .T. ) ;
#209 = DIRECTION ( 'NONE',  ( 0.000000000000000000, 0.000000000000000000, -1.000000000000000000 ) ) ;
#210 = CARTESIAN_POINT ( 'NONE',  ( -1.303219315895387309, -6.298893360160956689, -9.499999999999955591 ) ) ;
#211 = EDGE_CURVE ( 'NONE', #255, #293, #585, .T. ) ;
#212 = CIRCLE ( 'NONE', #308, 1.500000000000000666 ) ;
#213 = VERTEX_POINT ( 'NONE', #210 ) ;
#214 = COORDINATED_UNIVERSAL_TIME_OFFSET ( 8, 0, .AHEAD. ) ;
#215 = DIRECTION ( 'NONE',  ( -0.000000000000000000, 1.000000000000000000, -0.000000000000000000 ) ) ;
#216 = DIRECTION ( 'NONE',  ( 0.000000000000000000, -1.000000000000000000, 0.000000000000000000 ) ) ;
#217 = VERTEX_POINT ( 'NONE', #328 ) ;
#218 = VERTEX_POINT ( 'NONE', #104 ) ;
#219 = CARTESIAN_POINT ( 'NONE',  ( -1.303219315895387531, -6.298893360160956689, 4.398493724472981443E-14 ) ) ;
#220 = DIRECTION ( 'NONE',  ( -0.000000000000000000, 1.000000000000000000, -0.000000000000000000 ) ) ;
#221 = ORIENTED_EDGE ( 'NONE', *, *, #151, .T. ) ;
#222 = VECTOR ( 'NONE', #425, 1000.000000000000000 ) ;
#223 = DIRECTION ( 'NONE',  ( 0.000000000000000000, -1.000000000000000000, 0.000000000000000000 ) ) ;
#224 = CARTESIAN_POINT ( 'NONE',  ( -9.303219315895388419, -6.298893360160956689, 1.500000000000043521 ) ) ;
#225 = CIRCLE ( 'NONE', #30, 4.999999999999999112 ) ;
#226 = CARTESIAN_POINT ( 'NONE',  ( -1.303219315895386865, 3.701106639839043755, 5.000000000000043521 ) ) ;
#227 = PERSON ( 'æœª', 'æœª', 'æœª', ('æœª'), ('æœª'), ('æœª') ) ;
#228 = FACE_OUTER_BOUND ( 'NONE', #124, .T. ) ;
#229 = CIRCLE ( 'NONE', #521, 1.499999999999999556 ) ;
#230 = EDGE_LOOP ( 'NONE', ( #167, #561 ) ) ;
#231 = EDGE_LOOP ( 'NONE', ( #362, #655 ) ) ;
#232 = EDGE_CURVE ( 'NONE', #255, #426, #452, .T. ) ;
#233 = CARTESIAN_POINT ( 'NONE',  ( -9.303219315895388419, -6.298893360160956689, 4.398493724472981443E-14 ) ) ;
#234 = FACE_OUTER_BOUND ( 'NONE', #517, .T. ) ;
#235 = ORIENTED_EDGE ( 'NONE', *, *, #265, .T. ) ;
#236 = ORIENTED_EDGE ( 'NONE', *, *, #277, .F. ) ;
#237 = CIRCLE ( 'NONE', #641, 1.500000000000000666 ) ;
#238 = CARTESIAN_POINT ( 'NONE',  ( -9.303219315895388419, -8.298893360160956689, 4.398493724472981443E-14 ) ) ;
#239 = CC_DESIGN_DATE_AND_TIME_ASSIGNMENT ( #539, #495, ( #306 ) ) ;
#240 = CARTESIAN_POINT ( 'NONE',  ( -1.303219315895387531, -6.298893360160956689, 4.398493724472981443E-14 ) ) ;
#241 = EDGE_LOOP ( 'NONE', ( #474, #102 ) ) ;
#242 = CIRCLE ( 'NONE', #665, 1.500000000000000222 ) ;
#243 = FACE_OUTER_BOUND ( 'NONE', #82, .T. ) ;
#244 = CARTESIAN_POINT ( 'NONE',  ( -1.303219315895387531, 3.701106639839043755, -2.499999999999956035 ) ) ;
#245 = ORIENTED_EDGE ( 'NONE', *, *, #464, .F. ) ;
#246 = FACE_BOUND ( 'NONE', #32, .T. ) ;
#247 = CARTESIAN_POINT ( 'NONE',  ( -1.303219315895387309, -8.298893360160956689, 6.500000000000043521 ) ) ;
#248 = EDGE_CURVE ( 'NONE', #185, #415, #138, .T. ) ;
#249 = ORIENTED_EDGE ( 'NONE', *, *, #211, .F. ) ;
#250 = FACE_OUTER_BOUND ( 'NONE', #231, .T. ) ;
#251 = LINE ( 'NONE', #198, #222 ) ;
#252 = DIRECTION ( 'NONE',  ( 0.000000000000000000, -0.000000000000000000, -1.000000000000000000 ) ) ;
#253 = AXIS2_PLACEMENT_3D ( 'NONE', #453, #551, #502 ) ;
#254 = CARTESIAN_POINT ( 'NONE',  ( -1.303219315895387531, 3.701106639839043755, 4.398493724472981443E-14 ) ) ;
#255 = VERTEX_POINT ( 'NONE', #694 ) ;
#256 = EDGE_CURVE ( 'NONE', #426, #255, #225, .T. ) ;
#257 =( NAMED_UNIT ( * ) SI_UNIT ( $, .STERADIAN. ) SOLID_ANGLE_UNIT ( ) );
#258 = DIRECTION ( 'NONE',  ( 0.000000000000000000, 0.000000000000000000, 1.000000000000000000 ) ) ;
#259 = EDGE_LOOP ( 'NONE', ( #673, #281, #621, #576 ) ) ;
#260 = PERSON_AND_ORGANIZATION ( #227, #19 ) ;
#261 = CARTESIAN_POINT ( 'NONE',  ( -1.303219315895387531, -6.298893360160956689, -4.999999999999954703 ) ) ;
#262 = CALENDAR_DATE ( 2026, 29, 7 ) ;
#263 = DIRECTION ( 'NONE',  ( -0.000000000000000000, 1.000000000000000000, -0.000000000000000000 ) ) ;
#264 = CIRCLE ( 'NONE', #553, 1.500000000000000444 ) ;
#265 = EDGE_CURVE ( 'NONE', #431, #302, #428, .T. ) ;
#266 = AXIS2_PLACEMENT_3D ( 'NONE', #690, #475, #252 ) ;
#267 = DIRECTION ( 'NONE',  ( -0.000000000000000000, 1.000000000000000000, -0.000000000000000000 ) ) ;
#268 = SECURITY_CLASSIFICATION_LEVEL ( 'unclassified' ) ;
#269 = DIRECTION ( 'NONE',  ( -0.000000000000000000, 1.000000000000000000, -0.000000000000000000 ) ) ;
#270 = APPROVAL_STATUS ( 'not_yet_approved' ) ;
#271 = LINE ( 'NONE', #498, #653 ) ;
#272 = DIRECTION ( 'NONE',  ( 0.000000000000000000, -1.000000000000000000, 0.000000000000000000 ) ) ;
#273 = VERTEX_POINT ( 'NONE', #537 ) ;
#274 = AXIS2_PLACEMENT_3D ( 'NONE', #449, #669, #396 ) ;
#275 = AXIS2_PLACEMENT_3D ( 'NONE', #240, #637, #137 ) ;
#276 = ORIENTED_EDGE ( 'NONE', *, *, #160, .T. ) ;
#277 = EDGE_CURVE ( 'NONE', #141, #581, #251, .T. ) ;
#278 = CARTESIAN_POINT ( 'NONE',  ( -9.303219315895388419, -8.298893360160956689, -1.499999999999955591 ) ) ;
#279 = CARTESIAN_POINT ( 'NONE',  ( -1.303219315895387531, 3.701106639839043755, 4.398493724472981443E-14 ) ) ;
#280 = ORIENTED_EDGE ( 'NONE', *, *, #114, .F. ) ;
#281 = ORIENTED_EDGE ( 'NONE', *, *, #486, .T. ) ;
#282 = CARTESIAN_POINT ( 'NONE',  ( -1.303219315895387531, 3.701106639839043755, 4.398493724472981443E-14 ) ) ;
#283 = DIRECTION ( 'NONE',  ( -0.000000000000000000, 1.000000000000000000, -0.000000000000000000 ) ) ;
#284 = CARTESIAN_POINT ( 'NONE',  ( -1.303219315895387309, -8.298893360160956689, -1.499999999999956257 ) ) ;
#285 = LINE ( 'NONE', #618, #163 ) ;
#286 = ADVANCED_FACE ( 'NONE', ( #540 ), #643, .F. ) ;
#287 = AXIS2_PLACEMENT_3D ( 'NONE', #282, #549, #331 ) ;
#288 = EDGE_LOOP ( 'NONE', ( #514, #441, #410, #131 ) ) ;
#289 = VECTOR ( 'NONE', #300, 1000.000000000000000 ) ;
#290 = CARTESIAN_POINT ( 'NONE',  ( -9.303219315895388419, -8.298893360160956689, 4.398493724472981443E-14 ) ) ;
#291 = CARTESIAN_POINT ( 'NONE',  ( -1.303219315895386199, -8.298893360160956689, -10.99999999999995559 ) ) ;
#292 = LOCAL_TIME ( 11, 18, 39.00000000000000000, #589 ) ;
#293 = VERTEX_POINT ( 'NONE', #261 ) ;
#294 = ADVANCED_BREP_SHAPE_REPRESENTATION ( '\X2\6cd5517076d8\X0\', ( #50, #492 ), #395 ) ;
#295 = ADVANCED_FACE ( 'NONE', ( #705 ), #697, .T. ) ;
#296 = CARTESIAN_POINT ( 'NONE',  ( -1.303219315895387531, -8.298893360160956689, 4.398493724472981443E-14 ) ) ;
#297 = ORIENTED_EDGE ( 'NONE', *, *, #409, .T. ) ;
#298 = AXIS2_PLACEMENT_3D ( 'NONE', #562, #223, #11 ) ;
#299 = DIRECTION ( 'NONE',  ( 0.000000000000000000, 0.000000000000000000, 1.000000000000000000 ) ) ;
#300 = DIRECTION ( 'NONE',  ( -0.000000000000000000, -1.000000000000000000, -0.000000000000000000 ) ) ;
#301 = APPLICATION_CONTEXT ( 'configuration controlled 3d designs of mechanical parts and assemblies' ) ;
#302 = VERTEX_POINT ( 'NONE', #154 ) ;
#303 = CIRCLE ( 'NONE', #275, 11.00000000000000000 ) ;
#304 = CARTESIAN_POINT ( 'NONE',  ( -1.303219315895387531, 3.701106639839043755, 4.398493724472981443E-14 ) ) ;
#305 = FACE_OUTER_BOUND ( 'NONE', #36, .T. ) ;
#306 = SECURITY_CLASSIFICATION ( '', '', #268 ) ;
#307 = ORIENTED_EDGE ( 'NONE', *, *, #486, .F. ) ;
#308 = AXIS2_PLACEMENT_3D ( 'NONE', #170, #216, #157 ) ;
#309 = CARTESIAN_POINT ( 'NONE',  ( -1.303219315895387531, 3.701106639839043755, 4.398493724472981443E-14 ) ) ;
#310 = DIRECTION ( 'NONE',  ( 0.000000000000000000, 0.000000000000000000, 1.000000000000000000 ) ) ;
#311 = CIRCLE ( 'NONE', #584, 1.499999999999999556 ) ;
#312 = ORIENTED_EDGE ( 'NONE', *, *, #232, .F. ) ;
#313 = CARTESIAN_POINT ( 'NONE',  ( -9.303219315895388419, -6.298893360160956689, -1.499999999999955591 ) ) ;
#314 = ADVANCED_FACE ( 'NONE', ( #702 ), #376, .F. ) ;
#315 = ORIENTED_EDGE ( 'NONE', *, *, #421, .T. ) ;
#316 = DIRECTION ( 'NONE',  ( 0.000000000000000000, 0.000000000000000000, -1.000000000000000000 ) ) ;
#317 = CARTESIAN_POINT ( 'NONE',  ( -1.303219315895387531, -8.298893360160956689, -7.999999999999956479 ) ) ;
#318 = ORIENTED_EDGE ( 'NONE', *, *, #57, .F. ) ;
#319 = DIRECTION ( 'NONE',  ( -0.000000000000000000, 1.000000000000000000, -0.000000000000000000 ) ) ;
#320 = ORIENTED_EDGE ( 'NONE', *, *, #586, .F. ) ;
#321 = DIRECTION ( 'NONE',  ( 0.000000000000000000, 0.000000000000000000, 1.000000000000000000 ) ) ;
#322 = ADVANCED_FACE ( 'NONE', ( #69 ), #115, .F. ) ;
#323 = CARTESIAN_POINT ( 'NONE',  ( -1.303219315895387531, 3.701106639839043755, -4.999999999999954703 ) ) ;
#324 = CALENDAR_DATE ( 2026, 29, 7 ) ;
#325 = DIRECTION ( 'NONE',  ( 0.000000000000000000, 0.000000000000000000, 1.000000000000000000 ) ) ;
#326 = CC_DESIGN_APPROVAL ( #440, ( #306 ) ) ;
#327 = PERSON_AND_ORGANIZATION ( #227, #19 ) ;
#328 = CARTESIAN_POINT ( 'NONE',  ( -1.303219315895386865, -6.298893360160956689, 5.000000000000043521 ) ) ;
#329 = VECTOR ( 'NONE', #560, 1000.000000000000000 ) ;
#330 = DIRECTION ( 'NONE',  ( 0.000000000000000000, 0.000000000000000000, 1.000000000000000000 ) ) ;
#331 = DIRECTION ( 'NONE',  ( 0.000000000000000000, 0.000000000000000000, 1.000000000000000000 ) ) ;
#332 = DIRECTION ( 'NONE',  ( 0.000000000000000000, 0.000000000000000000, 1.000000000000000000 ) ) ;
#333 = VERTEX_POINT ( 'NONE', #111 ) ;
#334 = VECTOR ( 'NONE', #47, 1000.000000000000000 ) ;
#335 = LOCAL_TIME ( 11, 18, 39.00000000000000000, #214 ) ;
#336 = DIRECTION ( 'NONE',  ( -0.000000000000000000, 1.000000000000000000, -0.000000000000000000 ) ) ;
#337 = CARTESIAN_POINT ( 'NONE',  ( -1.303219315895386865, 3.701106639839043755, 5.000000000000043521 ) ) ;
#338 = ORIENTED_EDGE ( 'NONE', *, *, #248, .T. ) ;
#339 = CARTESIAN_POINT ( 'NONE',  ( -1.303219315895387531, -8.298893360160956689, 9.500000000000042633 ) ) ;
#340 = CARTESIAN_POINT ( 'NONE',  ( -1.303219315895387309, 3.701106639839043755, 2.500000000000043965 ) ) ;
#341 = EDGE_CURVE ( 'NONE', #593, #95, #594, .T. ) ;
#342 = ORIENTED_EDGE ( 'NONE', *, *, #448, .F. ) ;
#343 = DIRECTION ( 'NONE',  ( -0.000000000000000000, 1.000000000000000000, -0.000000000000000000 ) ) ;
#344 = DIRECTION ( 'NONE',  ( 0.000000000000000000, 0.000000000000000000, -1.000000000000000000 ) ) ;
#345 = EDGE_CURVE ( 'NONE', #273, #683, #617, .T. ) ;
#346 = AXIS2_PLACEMENT_3D ( 'NONE', #607, #457, #611 ) ;
#347 = ORIENTED_EDGE ( 'NONE', *, *, #640, .T. ) ;
#348 = ORIENTED_EDGE ( 'NONE', *, *, #647, .T. ) ;
#349 = FACE_BOUND ( 'NONE', #402, .T. ) ;
#350 = DIRECTION ( 'NONE',  ( 0.000000000000000000, -0.000000000000000000, -1.000000000000000000 ) ) ;
#351 = VERTEX_POINT ( 'NONE', #15 ) ;
#352 = EDGE_CURVE ( 'NONE', #695, #488, #63, .T. ) ;
#353 = ORIENTED_EDGE ( 'NONE', *, *, #70, .F. ) ;
#354 = ORIENTED_EDGE ( 'NONE', *, *, #70, .T. ) ;
#355 = DIRECTION ( 'NONE',  ( 0.000000000000000000, -1.000000000000000000, 0.000000000000000000 ) ) ;
#356 = FACE_BOUND ( 'NONE', #145, .T. ) ;
#357 = AXIS2_PLACEMENT_3D ( 'NONE', #142, #359, #582 ) ;
#358 = ORIENTED_EDGE ( 'NONE', *, *, #361, .T. ) ;
#359 = DIRECTION ( 'NONE',  ( 0.000000000000000000, -1.000000000000000000, 0.000000000000000000 ) ) ;
#360 = DIRECTION ( 'NONE',  ( 0.000000000000000000, -1.000000000000000000, 0.000000000000000000 ) ) ;
#361 = EDGE_CURVE ( 'NONE', #460, #112, #237, .T. ) ;
#362 = ORIENTED_EDGE ( 'NONE', *, *, #39, .F. ) ;
#363 = AXIS2_PLACEMENT_3D ( 'NONE', #206, #544, #54 ) ;
#364 = PLANE ( 'NONE',  #701 ) ;
#365 = DIRECTION ( 'NONE',  ( 0.000000000000000000, 0.000000000000000000, 1.000000000000000000 ) ) ;
#366 = ADVANCED_FACE ( 'NONE', ( #442 ), #21, .F. ) ;
#367 = ORIENTED_EDGE ( 'NONE', *, *, #640, .F. ) ;
#368 = PERSON_AND_ORGANIZATION ( #227, #19 ) ;
#369 = AXIS2_PLACEMENT_3D ( 'NONE', #519, #628, #310 ) ;
#370 = CARTESIAN_POINT ( 'NONE',  ( -1.303219315895387531, -8.298893360160956689, 1.500000000000044187 ) ) ;
#371 = CIRCLE ( 'NONE', #388, 1.499999999999999556 ) ;
#372 = ORIENTED_EDGE ( 'NONE', *, *, #464, .T. ) ;
#373 = APPLICATION_CONTEXT ( 'configuration controlled 3d designs of mechanical parts and assemblies' ) ;
#374 = EDGE_CURVE ( 'NONE', #511, #112, #391, .T. ) ;
#375 = PERSON_AND_ORGANIZATION ( #227, #19 ) ;
#376 = CYLINDRICAL_SURFACE ( 'NONE', #363, 1.500000000000000222 ) ;
#377 = CIRCLE ( 'NONE', #8, 1.500000000000000444 ) ;
#378 = UNCERTAINTY_MEASURE_WITH_UNIT (LENGTH_MEASURE( 1.000000000000000082E-05 ), #193, 'distance_accuracy_value', 'NONE');
#379 = ORIENTED_EDGE ( 'NONE', *, *, #515, .T. ) ;
#380 = LINE ( 'NONE', #496, #633 ) ;
#381 = CC_DESIGN_DATE_AND_TIME_ASSIGNMENT ( #153, #164, ( #31 ) ) ;
#382 = ORIENTED_EDGE ( 'NONE', *, *, #494, .F. ) ;
#383 = PERSON_AND_ORGANIZATION_ROLE ( 'design_supplier' ) ;
#384 = DIRECTION ( 'NONE',  ( 0.000000000000000000, -1.000000000000000000, 0.000000000000000000 ) ) ;
#385 = VECTOR ( 'NONE', #399, 1000.000000000000000 ) ;
#386 = CLOSED_SHELL ( 'NONE', ( #314, #88, #366, #127, #596, #504, #28, #659, #666, #547, #14, #698, #67, #672, #295, #619, #286, #135, #565, #322 ) ) ;
#387 = VECTOR ( 'NONE', #556, 1000.000000000000000 ) ;
#388 = AXIS2_PLACEMENT_3D ( 'NONE', #37, #197, #481 ) ;
#389 = DIRECTION ( 'NONE',  ( 0.000000000000000000, -1.000000000000000000, 0.000000000000000000 ) ) ;
#390 = EDGE_CURVE ( 'NONE', #18, #273, #200, .T. ) ;
#391 = LINE ( 'NONE', #66, #423 ) ;
#392 = CARTESIAN_POINT ( 'NONE',  ( 6.696780684104612469, -8.298893360160956689, -1.499999999999956701 ) ) ;
#393 = DIRECTION ( 'NONE',  ( -0.000000000000000000, 1.000000000000000000, -0.000000000000000000 ) ) ;
#394 = EDGE_CURVE ( 'NONE', #134, #581, #564, .T. ) ;
#395 =( GEOMETRIC_REPRESENTATION_CONTEXT ( 3 ) GLOBAL_UNCERTAINTY_ASSIGNED_CONTEXT ( ( #378 ) ) GLOBAL_UNIT_ASSIGNED_CONTEXT ( ( #193, #677, #257 ) ) REPRESENTATION_CONTEXT ( 'NONE', 'WORKASPACE' ) );
#396 = DIRECTION ( 'NONE',  ( 0.000000000000000000, 0.000000000000000000, 1.000000000000000000 ) ) ;
#397 = DIRECTION ( 'NONE',  ( 0.000000000000000000, -1.000000000000000000, 0.000000000000000000 ) ) ;
#398 = CIRCLE ( 'NONE', #679, 1.500000000000000666 ) ;
#399 = DIRECTION ( 'NONE',  ( -0.000000000000000000, 1.000000000000000000, -0.000000000000000000 ) ) ;
#400 = CARTESIAN_POINT ( 'NONE',  ( -1.303219315895387531, -6.298893360160956689, -7.999999999999956479 ) ) ;
#401 = ORIENTED_EDGE ( 'NONE', *, *, #680, .T. ) ;
#402 = EDGE_LOOP ( 'NONE', ( #169, #358 ) ) ;
#403 = CIRCLE ( 'NONE', #274, 2.500000000000000000 ) ;
#404 = AXIS2_PLACEMENT_3D ( 'NONE', #106, #384, #165 ) ;
#405 = ORIENTED_EDGE ( 'NONE', *, *, #535, .T. ) ;
#406 = LOCAL_TIME ( 11, 18, 39.00000000000000000, #436 ) ;
#407 = DIRECTION ( 'NONE',  ( 0.000000000000000000, -1.000000000000000000, 0.000000000000000000 ) ) ;
#408 = DIRECTION ( 'NONE',  ( 0.000000000000000000, 0.000000000000000000, -1.000000000000000000 ) ) ;
#409 = EDGE_CURVE ( 'NONE', #333, #566, #587, .T. ) ;
#410 = ORIENTED_EDGE ( 'NONE', *, *, #680, .F. ) ;
#411 = DIRECTION ( 'NONE',  ( 0.000000000000000000, -1.000000000000000000, 0.000000000000000000 ) ) ;
#412 = EDGE_LOOP ( 'NONE', ( #318, #567 ) ) ;
#413 = FACE_BOUND ( 'NONE', #155, .T. ) ;
#414 = CARTESIAN_POINT ( 'NONE',  ( -1.303219315895387531, -8.298893360160956689, 4.398493724472981443E-14 ) ) ;
#415 = VERTEX_POINT ( 'NONE', #656 ) ;
#416 = EDGE_CURVE ( 'NONE', #415, #185, #403, .T. ) ;
#417 = CARTESIAN_POINT ( 'NONE',  ( -1.303219315895387531, -8.298893360160956689, -6.499999999999956479 ) ) ;
#418 = CARTESIAN_POINT ( 'NONE',  ( -1.303219315895387531, -8.298893360160956689, 11.00000000000004263 ) ) ;
#419 = CIRCLE ( 'NONE', #652, 1.500000000000000666 ) ;
#420 = PLANE ( 'NONE',  #190 ) ;
#421 = EDGE_CURVE ( 'NONE', #455, #141, #598, .T. ) ;
#422 = VERTEX_POINT ( 'NONE', #108 ) ;
#423 = VECTOR ( 'NONE', #9, 1000.000000000000000 ) ;
#424 = DIRECTION ( 'NONE',  ( 0.000000000000000000, 0.000000000000000000, -1.000000000000000000 ) ) ;
#425 = DIRECTION ( 'NONE',  ( -0.000000000000000000, 1.000000000000000000, -0.000000000000000000 ) ) ;
#426 = VERTEX_POINT ( 'NONE', #226 ) ;
#427 = CARTESIAN_POINT ( 'NONE',  ( 0.000000000000000000, 0.000000000000000000, 0.000000000000000000 ) ) ;
#428 = CIRCLE ( 'NONE', #543, 1.499999999999999556 ) ;
#429 = DIRECTION ( 'NONE',  ( -0.000000000000000000, 1.000000000000000000, -0.000000000000000000 ) ) ;
#430 = AXIS2_PLACEMENT_3D ( 'NONE', #309, #92, #316 ) ;
#431 = VERTEX_POINT ( 'NONE', #339 ) ;
#432 = EDGE_CURVE ( 'NONE', #422, #113, #41, .T. ) ;
#433 = COORDINATED_UNIVERSAL_TIME_OFFSET ( 8, 0, .AHEAD. ) ;
#434 = CARTESIAN_POINT ( 'NONE',  ( -9.303219315895388419, -8.298893360160956689, 1.500000000000043521 ) ) ;
#435 = CARTESIAN_POINT ( 'NONE',  ( -1.303219315895387309, -8.298893360160956689, -9.499999999999955591 ) ) ;
#436 = COORDINATED_UNIVERSAL_TIME_OFFSET ( 8, 0, .AHEAD. ) ;
#437 = EDGE_CURVE ( 'NONE', #218, #460, #559, .T. ) ;
#438 = CARTESIAN_POINT ( 'NONE',  ( -1.303219315895387531, 3.701106639839043755, 4.398493724472981443E-14 ) ) ;
#439 = CIRCLE ( 'NONE', #531, 1.500000000000000222 ) ;
#440 = APPROVAL ( #1, 'æœª' ) ;
#441 = ORIENTED_EDGE ( 'NONE', *, *, #345, .T. ) ;
#442 = FACE_OUTER_BOUND ( 'NONE', #192, .T. ) ;
#443 = CARTESIAN_POINT ( 'NONE',  ( -1.303219315895387531, -6.298893360160956689, -6.499999999999956479 ) ) ;
#444 = EDGE_LOOP ( 'NONE', ( #342, #646, #297, #203 ) ) ;
#445 = EDGE_LOOP ( 'NONE', ( #382, #125 ) ) ;
#446 = DIRECTION ( 'NONE',  ( 0.000000000000000000, -1.000000000000000000, 0.000000000000000000 ) ) ;
#447 = DIRECTION ( 'NONE',  ( 0.000000000000000000, 0.000000000000000000, 1.000000000000000000 ) ) ;
#448 = EDGE_CURVE ( 'NONE', #613, #59, #72, .T. ) ;
#449 = CARTESIAN_POINT ( 'NONE',  ( -1.303219315895387531, -6.298893360160956689, 4.398493724472981443E-14 ) ) ;
#450 = DIRECTION ( 'NONE',  ( -0.000000000000000000, 1.000000000000000000, -0.000000000000000000 ) ) ;
#451 = ORIENTED_EDGE ( 'NONE', *, *, #545, .F. ) ;
#452 = CIRCLE ( 'NONE', #105, 4.999999999999999112 ) ;
#453 = CARTESIAN_POINT ( 'NONE',  ( -1.303219315895387531, -8.298893360160956689, 4.398493724472981443E-14 ) ) ;
#454 = FACE_OUTER_BOUND ( 'NONE', #444, .T. ) ;
#455 = VERTEX_POINT ( 'NONE', #278 ) ;
#456 = EDGE_LOOP ( 'NONE', ( #483, #568 ) ) ;
#457 = DIRECTION ( 'NONE',  ( 0.000000000000000000, -1.000000000000000000, 0.000000000000000000 ) ) ;
#458 = CYLINDRICAL_SURFACE ( 'NONE', #675, 1.499999999999999556 ) ;
#459 = AXIS2_PLACEMENT_3D ( 'NONE', #663, #61, #7 ) ;
#460 = VERTEX_POINT ( 'NONE', #667 ) ;
#461 = FACE_OUTER_BOUND ( 'NONE', #620, .T. ) ;
#462 = EDGE_CURVE ( 'NONE', #59, #566, #271, .T. ) ;
#463 = CYLINDRICAL_SURFACE ( 'NONE', #369, 1.500000000000000444 ) ;
#464 = EDGE_CURVE ( 'NONE', #683, #351, #439, .T. ) ;
#465 = CIRCLE ( 'NONE', #150, 1.499999999999999556 ) ;
#466 = ORIENTED_EDGE ( 'NONE', *, *, #184, .F. ) ;
#467 = APPROVAL_PERSON_ORGANIZATION ( #327, #166, #53 ) ;
#468 = FACE_BOUND ( 'NONE', #692, .T. ) ;
#469 = DIRECTION ( 'NONE',  ( 0.000000000000000000, 0.000000000000000000, -1.000000000000000000 ) ) ;
#470 = ORIENTED_EDGE ( 'NONE', *, *, #437, .T. ) ;
#471 = PLANE ( 'NONE',  #266 ) ;
#472 = CARTESIAN_POINT ( 'NONE',  ( 6.696780684104612469, -6.298893360160956689, 1.500000000000044631 ) ) ;
#473 = EDGE_CURVE ( 'NONE', #112, #460, #212, .T. ) ;
#474 = ORIENTED_EDGE ( 'NONE', *, *, #114, .T. ) ;
#475 = DIRECTION ( 'NONE',  ( 0.000000000000000000, -1.000000000000000000, 0.000000000000000000 ) ) ;
#476 = CYLINDRICAL_SURFACE ( 'NONE', #162, 2.500000000000000000 ) ;
#477 = AXIS2_PLACEMENT_3D ( 'NONE', #233, #509, #71 ) ;
#478 = AXIS2_PLACEMENT_3D ( 'NONE', #254, #183, #408 ) ;
#479 = DIRECTION ( 'NONE',  ( 0.000000000000000000, 0.000000000000000000, -1.000000000000000000 ) ) ;
#480 = EDGE_LOOP ( 'NONE', ( #85, #466 ) ) ;
#481 = DIRECTION ( 'NONE',  ( 0.000000000000000000, 0.000000000000000000, 1.000000000000000000 ) ) ;
#482 = DIRECTION ( 'NONE',  ( 0.000000000000000000, 0.000000000000000000, -1.000000000000000000 ) ) ;
#483 = ORIENTED_EDGE ( 'NONE', *, *, #535, .F. ) ;
#484 = APPROVAL_STATUS ( 'not_yet_approved' ) ;
#485 = DIRECTION ( 'NONE',  ( 0.000000000000000000, 0.000000000000000000, 1.000000000000000000 ) ) ;
#486 = EDGE_CURVE ( 'NONE', #218, #511, #398, .T. ) ;
#487 = DESIGN_CONTEXT ( 'detailed design', #373, 'design' ) ;
#488 = VERTEX_POINT ( 'NONE', #443 ) ;
#489 = SHAPE_DEFINITION_REPRESENTATION ( #62, #294 ) ;
#490 = VECTOR ( 'NONE', #269, 1000.000000000000000 ) ;
#491 = LINE ( 'NONE', #370, #334 ) ;
#492 = AXIS2_PLACEMENT_3D ( 'NONE', #427, #321, #604 ) ;
#493 = CARTESIAN_POINT ( 'NONE',  ( 6.696780684104612469, -8.298893360160956689, 4.398493724472981443E-14 ) ) ;
#494 = EDGE_CURVE ( 'NONE', #293, #217, #35, .T. ) ;
#495 = DATE_TIME_ROLE ( 'classification_date' ) ;
#496 = CARTESIAN_POINT ( 'NONE',  ( -1.303219315895386199, -8.298893360160956689, -10.99999999999995559 ) ) ;
#497 = PERSON_AND_ORGANIZATION_ROLE ( 'creator' ) ;
#498 = CARTESIAN_POINT ( 'NONE',  ( -1.303219315895387531, -8.298893360160956689, 11.00000000000004263 ) ) ;
#499 = CIRCLE ( 'NONE', #575, 2.500000000000000000 ) ;
#500 = ORIENTED_EDGE ( 'NONE', *, *, #352, .F. ) ;
#501 = APPROVAL_PERSON_ORGANIZATION ( #368, #440, #696 ) ;
#502 = DIRECTION ( 'NONE',  ( 0.000000000000000000, 0.000000000000000000, -1.000000000000000000 ) ) ;
#503 = DIRECTION ( 'NONE',  ( 0.000000000000000000, 0.000000000000000000, -1.000000000000000000 ) ) ;
#504 = ADVANCED_FACE ( 'NONE', ( #454 ), #622, .T. ) ;
#505 = AXIS2_PLACEMENT_3D ( 'NONE', #670, #220, #126 ) ;
#506 = ORIENTED_EDGE ( 'NONE', *, *, #208, .F. ) ;
#507 = DIRECTION ( 'NONE',  ( -0.000000000000000000, 1.000000000000000000, -0.000000000000000000 ) ) ;
#508 = CARTESIAN_POINT ( 'NONE',  ( -1.303219315895387531, -6.298893360160956689, 9.500000000000042633 ) ) ;
#509 = DIRECTION ( 'NONE',  ( 0.000000000000000000, -1.000000000000000000, 0.000000000000000000 ) ) ;
#510 = CIRCLE ( 'NONE', #404, 1.500000000000000444 ) ;
#511 = VERTEX_POINT ( 'NONE', #176 ) ;
#512 = CARTESIAN_POINT ( 'NONE',  ( -1.303219315895387531, -8.298893360160956689, 4.398493724472981443E-14 ) ) ;
#513 = FACE_OUTER_BOUND ( 'NONE', #541, .T. ) ;
#514 = ORIENTED_EDGE ( 'NONE', *, *, #390, .T. ) ;
#515 = EDGE_CURVE ( 'NONE', #488, #213, #377, .T. ) ;
#516 = ORIENTED_EDGE ( 'NONE', *, *, #107, .F. ) ;
#517 = EDGE_LOOP ( 'NONE', ( #182, #152, #40, #591 ) ) ;
#518 = FACE_BOUND ( 'NONE', #681, .T. ) ;
#519 = CARTESIAN_POINT ( 'NONE',  ( -1.303219315895387531, -8.298893360160956689, -7.999999999999956479 ) ) ;
#520 = EDGE_LOOP ( 'NONE', ( #10, #470, #42, #554 ) ) ;
#521 = AXIS2_PLACEMENT_3D ( 'NONE', #693, #355, #424 ) ;
#522 = DIRECTION ( 'NONE',  ( 0.000000000000000000, 1.000000000000000000, 0.000000000000000000 ) ) ;
#523 = DIRECTION ( 'NONE',  ( 0.000000000000000000, 0.000000000000000000, 1.000000000000000000 ) ) ;
#524 = EDGE_CURVE ( 'NONE', #213, #488, #79, .T. ) ;
#525 = ORIENTED_EDGE ( 'NONE', *, *, #232, .T. ) ;
#526 = FACE_BOUND ( 'NONE', #445, .T. ) ;
#527 = CARTESIAN_POINT ( 'NONE',  ( -1.303219315895387531, -8.298893360160956689, 8.000000000000044409 ) ) ;
#528 = DIRECTION ( 'NONE',  ( 0.000000000000000000, -0.000000000000000000, 1.000000000000000000 ) ) ;
#529 = LINE ( 'NONE', #247, #588 ) ;
#530 = VERTEX_POINT ( 'NONE', #76 ) ;
#531 = AXIS2_PLACEMENT_3D ( 'NONE', #219, #446, #660 ) ;
#532 = CARTESIAN_POINT ( 'NONE',  ( -1.303219315895387309, -6.298893360160956689, -1.499999999999956257 ) ) ;
#533 = DIRECTION ( 'NONE',  ( 0.000000000000000000, 1.000000000000000000, 0.000000000000000000 ) ) ;
#534 = EDGE_LOOP ( 'NONE', ( #634, #221, #99, #500 ) ) ;
#535 = EDGE_CURVE ( 'NONE', #141, #455, #311, .T. ) ;
#536 = APPROVAL_DATE_TIME ( #649, #166 ) ;
#537 = CARTESIAN_POINT ( 'NONE',  ( -1.303219315895387309, -8.298893360160956689, -1.499999999999956257 ) ) ;
#538 = ORIENTED_EDGE ( 'NONE', *, *, #199, .T. ) ;
#539 = DATE_AND_TIME ( #100, #689 ) ;
#540 = FACE_OUTER_BOUND ( 'NONE', #259, .T. ) ;
#541 = EDGE_LOOP ( 'NONE', ( #140, #312, #676, #187 ) ) ;
#542 = PERSON_AND_ORGANIZATION_ROLE ( 'classification_officer' ) ;
#543 = AXIS2_PLACEMENT_3D ( 'NONE', #592, #49, #209 ) ;
#544 = DIRECTION ( 'NONE',  ( -0.000000000000000000, 1.000000000000000000, -0.000000000000000000 ) ) ;
#545 = EDGE_CURVE ( 'NONE', #422, #185, #624, .T. ) ;
#546 = DIRECTION ( 'NONE',  ( 0.000000000000000000, -1.000000000000000000, 0.000000000000000000 ) ) ;
#547 = ADVANCED_FACE ( 'NONE', ( #513 ), #552, .T. ) ;
#548 = APPROVAL_DATE_TIME ( #46, #580 ) ;
#549 = DIRECTION ( 'NONE',  ( 0.000000000000000000, 1.000000000000000000, 0.000000000000000000 ) ) ;
#550 = VECTOR ( 'NONE', #173, 1000.000000000000000 ) ;
#551 = DIRECTION ( 'NONE',  ( 0.000000000000000000, -1.000000000000000000, 0.000000000000000000 ) ) ;
#552 = CYLINDRICAL_SURFACE ( 'NONE', #194, 4.999999999999999112 ) ;
#553 = AXIS2_PLACEMENT_3D ( 'NONE', #317, #651, #650 ) ;
#554 = ORIENTED_EDGE ( 'NONE', *, *, #374, .F. ) ;
#555 = DIRECTION ( 'NONE',  ( 0.000000000000000000, 0.000000000000000000, -1.000000000000000000 ) ) ;
#556 = DIRECTION ( 'NONE',  ( -0.000000000000000000, -1.000000000000000000, -0.000000000000000000 ) ) ;
#557 = CC_DESIGN_PERSON_AND_ORGANIZATION_ASSIGNMENT ( #5, #542, ( #306 ) ) ;
#558 = ORIENTED_EDGE ( 'NONE', *, *, #352, .T. ) ;
#559 = LINE ( 'NONE', #392, #385 ) ;
#560 = DIRECTION ( 'NONE',  ( -0.000000000000000000, -1.000000000000000000, -0.000000000000000000 ) ) ;
#561 = ORIENTED_EDGE ( 'NONE', *, *, #199, .F. ) ;
#562 = CARTESIAN_POINT ( 'NONE',  ( -1.303219315895387531, -8.298893360160956689, 4.398493724472981443E-14 ) ) ;
#563 = DIRECTION ( 'NONE',  ( 0.000000000000000000, 1.000000000000000000, 0.000000000000000000 ) ) ;
#564 = CIRCLE ( 'NONE', #477, 1.499999999999999556 ) ;
#565 = ADVANCED_FACE ( 'NONE', ( #461 ), #171, .F. ) ;
#566 = VERTEX_POINT ( 'NONE', #116 ) ;
#567 = ORIENTED_EDGE ( 'NONE', *, *, #432, .F. ) ;
#568 = ORIENTED_EDGE ( 'NONE', *, *, #421, .F. ) ;
#569 = DIRECTION ( 'NONE',  ( 0.000000000000000000, -1.000000000000000000, 0.000000000000000000 ) ) ;
#570 = EDGE_LOOP ( 'NONE', ( #525, #128 ) ) ;
#571 = ORIENTED_EDGE ( 'NONE', *, *, #572, .T. ) ;
#572 = EDGE_CURVE ( 'NONE', #426, #217, #120, .T. ) ;
#573 = CARTESIAN_POINT ( 'NONE',  ( -1.303219315895387531, -8.298893360160956689, 8.000000000000044409 ) ) ;
#574 = CARTESIAN_POINT ( 'NONE',  ( 6.696780684104612469, -8.298893360160956689, 4.398493724472981443E-14 ) ) ;
#575 = AXIS2_PLACEMENT_3D ( 'NONE', #189, #130, #365 ) ;
#576 = ORIENTED_EDGE ( 'NONE', *, *, #361, .F. ) ;
#577 = CC_DESIGN_APPROVAL ( #580, ( #31 ) ) ;
#578 = CARTESIAN_POINT ( 'NONE',  ( -1.303219315895387531, -6.298893360160956689, 4.398493724472981443E-14 ) ) ;
#579 = ORIENTED_EDGE ( 'NONE', *, *, #277, .T. ) ;
#580 = APPROVAL ( #484, 'æœª' ) ;
#581 = VERTEX_POINT ( 'NONE', #224 ) ;
#582 = DIRECTION ( 'NONE',  ( 0.000000000000000000, -0.000000000000000000, -1.000000000000000000 ) ) ;
#583 = CYLINDRICAL_SURFACE ( 'NONE', #94, 1.500000000000000666 ) ;
#584 = AXIS2_PLACEMENT_3D ( 'NONE', #238, #407, #22 ) ;
#585 = LINE ( 'NONE', #323, #51 ) ;
#586 = EDGE_CURVE ( 'NONE', #455, #134, #285, .T. ) ;
#587 = CIRCLE ( 'NONE', #346, 11.00000000000000000 ) ;
#588 = VECTOR ( 'NONE', #25, 1000.000000000000000 ) ;
#589 = COORDINATED_UNIVERSAL_TIME_OFFSET ( 8, 0, .AHEAD. ) ;
#590 = CARTESIAN_POINT ( 'NONE',  ( -1.303219315895387531, -8.298893360160956689, 4.398493724472981443E-14 ) ) ;
#591 = ORIENTED_EDGE ( 'NONE', *, *, #647, .F. ) ;
#592 = CARTESIAN_POINT ( 'NONE',  ( -1.303219315895387531, -8.298893360160956689, 8.000000000000044409 ) ) ;
#593 = VERTEX_POINT ( 'NONE', #508 ) ;
#594 = CIRCLE ( 'NONE', #459, 1.499999999999999556 ) ;
#595 = APPROVAL_DATE_TIME ( #97, #440 ) ;
#596 = ADVANCED_FACE ( 'NONE', ( #228 ), #123, .F. ) ;
#597 = DIRECTION ( 'NONE',  ( -0.000000000000000000, -1.000000000000000000, -0.000000000000000000 ) ) ;
#598 = CIRCLE ( 'NONE', #685, 1.499999999999999556 ) ;
#599 = COORDINATED_UNIVERSAL_TIME_OFFSET ( 8, 0, .AHEAD. ) ;
#600 = CARTESIAN_POINT ( 'NONE',  ( -1.303219315895387531, 3.701106639839043755, 4.398493724472981443E-14 ) ) ;
#601 = AXIS2_PLACEMENT_3D ( 'NONE', #73, #393, #612 ) ;
#602 = CC_DESIGN_PERSON_AND_ORGANIZATION_ASSIGNMENT ( #375, #60, ( #31 ) ) ;
#603 = PRODUCT ( '\X2\6cd5517076d8\X0\', '\X2\6cd5517076d8\X0\', '', ( #205 ) ) ;
#604 = DIRECTION ( 'NONE',  ( 1.000000000000000000, 0.000000000000000000, 0.000000000000000000 ) ) ;
#605 = DIRECTION ( 'NONE',  ( 0.000000000000000000, 0.000000000000000000, 1.000000000000000000 ) ) ;
#606 = ORIENTED_EDGE ( 'NONE', *, *, #265, .F. ) ;
#607 = CARTESIAN_POINT ( 'NONE',  ( -1.303219315895387531, -6.298893360160956689, 4.398493724472981443E-14 ) ) ;
#608 = CARTESIAN_POINT ( 'NONE',  ( -1.303219315895387531, -6.298893360160956689, 4.398493724472981443E-14 ) ) ;
#609 = EDGE_CURVE ( 'NONE', #511, #218, #419, .T. ) ;
#610 = ORIENTED_EDGE ( 'NONE', *, *, #586, .T. ) ;
#611 = DIRECTION ( 'NONE',  ( 0.000000000000000000, 0.000000000000000000, -1.000000000000000000 ) ) ;
#612 = DIRECTION ( 'NONE',  ( 0.000000000000000000, 0.000000000000000000, 1.000000000000000000 ) ) ;
#613 = VERTEX_POINT ( 'NONE', #291 ) ;
#614 = CIRCLE ( 'NONE', #635, 1.500000000000000222 ) ;
#615 = DIRECTION ( 'NONE',  ( 0.000000000000000000, 0.000000000000000000, 1.000000000000000000 ) ) ;
#616 = DIRECTION ( 'NONE',  ( 0.000000000000000000, 0.000000000000000000, 1.000000000000000000 ) ) ;
#617 = LINE ( 'NONE', #284, #146 ) ;
#618 = CARTESIAN_POINT ( 'NONE',  ( -9.303219315895388419, -8.298893360160956689, -1.499999999999955591 ) ) ;
#619 = ADVANCED_FACE ( 'NONE', ( #234 ), #458, .F. ) ;
#620 = EDGE_LOOP ( 'NONE', ( #638, #196, #558, #179 ) ) ;
#621 = ORIENTED_EDGE ( 'NONE', *, *, #374, .T. ) ;
#622 = CYLINDRICAL_SURFACE ( 'NONE', #505, 11.00000000000000000 ) ;
#623 = ORIENTED_EDGE ( 'NONE', *, *, #394, .T. ) ;
#624 = LINE ( 'NONE', #340, #329 ) ;
#625 = FACE_BOUND ( 'NONE', #687, .T. ) ;
#626 = ORIENTED_EDGE ( 'NONE', *, *, #416, .F. ) ;
#627 = DIRECTION ( 'NONE',  ( 0.000000000000000000, 0.000000000000000000, -1.000000000000000000 ) ) ;
#628 = DIRECTION ( 'NONE',  ( -0.000000000000000000, 1.000000000000000000, -0.000000000000000000 ) ) ;
#629 = AXIS2_PLACEMENT_3D ( 'NONE', #493, #263, #149 ) ;
#630 = ORIENTED_EDGE ( 'NONE', *, *, #256, .F. ) ;
#631 = CYLINDRICAL_SURFACE ( 'NONE', #430, 4.999999999999999112 ) ;
#632 = FACE_OUTER_BOUND ( 'NONE', #520, .T. ) ;
#633 = VECTOR ( 'NONE', #319, 1000.000000000000000 ) ;
#634 = ORIENTED_EDGE ( 'NONE', *, *, #178, .T. ) ;
#635 = AXIS2_PLACEMENT_3D ( 'NONE', #578, #569, #627 ) ;
#636 = FACE_BOUND ( 'NONE', #412, .T. ) ;
#637 = DIRECTION ( 'NONE',  ( 0.000000000000000000, -1.000000000000000000, 0.000000000000000000 ) ) ;
#638 = ORIENTED_EDGE ( 'NONE', *, *, #151, .F. ) ;
#639 = FACE_OUTER_BOUND ( 'NONE', #534, .T. ) ;
#640 = EDGE_CURVE ( 'NONE', #581, #134, #371, .T. ) ;
#641 = AXIS2_PLACEMENT_3D ( 'NONE', #122, #175, #555 ) ;
#642 = APPLICATION_PROTOCOL_DEFINITION ( 'international standard', 'config_control_design', 1994, #373 ) ;
#643 = CYLINDRICAL_SURFACE ( 'NONE', #629, 1.500000000000000666 ) ;
#644 = PERSON_AND_ORGANIZATION_ROLE ( 'design_owner' ) ;
#645 = DIRECTION ( 'NONE',  ( 0.000000000000000000, 0.000000000000000000, 1.000000000000000000 ) ) ;
#646 = ORIENTED_EDGE ( 'NONE', *, *, #208, .T. ) ;
#647 = EDGE_CURVE ( 'NONE', #95, #593, #229, .T. ) ;
#648 = AXIS2_PLACEMENT_3D ( 'NONE', #608, #563, #332 ) ;
#649 = DATE_AND_TIME ( #324, #292 ) ;
#650 = DIRECTION ( 'NONE',  ( 0.000000000000000000, 0.000000000000000000, 1.000000000000000000 ) ) ;
#651 = DIRECTION ( 'NONE',  ( 0.000000000000000000, -1.000000000000000000, 0.000000000000000000 ) ) ;
#652 = AXIS2_PLACEMENT_3D ( 'NONE', #174, #397, #344 ) ;
#653 = VECTOR ( 'NONE', #215, 1000.000000000000000 ) ;
#654 = CARTESIAN_POINT ( 'NONE',  ( -9.303219315895388419, -8.298893360160956689, 4.398493724472981443E-14 ) ) ;
#655 = ORIENTED_EDGE ( 'NONE', *, *, #409, .F. ) ;
#656 = CARTESIAN_POINT ( 'NONE',  ( -1.303219315895387531, -6.298893360160956689, -2.499999999999956035 ) ) ;
#657 = DIRECTION ( 'NONE',  ( 0.000000000000000000, 0.000000000000000000, -1.000000000000000000 ) ) ;
#658 = ORIENTED_EDGE ( 'NONE', *, *, #462, .T. ) ;
#659 = ADVANCED_FACE ( 'NONE', ( #188 ), #631, .T. ) ;
#660 = DIRECTION ( 'NONE',  ( 0.000000000000000000, 0.000000000000000000, -1.000000000000000000 ) ) ;
#661 = DIRECTION ( 'NONE',  ( 0.000000000000000000, -1.000000000000000000, 0.000000000000000000 ) ) ;
#662 = ORIENTED_EDGE ( 'NONE', *, *, #341, .F. ) ;
#663 = CARTESIAN_POINT ( 'NONE',  ( -1.303219315895387531, -6.298893360160956689, 8.000000000000044409 ) ) ;
#664 = DIRECTION ( 'NONE',  ( 0.000000000000000000, 0.000000000000000000, 1.000000000000000000 ) ) ;
#665 = AXIS2_PLACEMENT_3D ( 'NONE', #590, #546, #482 ) ;
#666 = ADVANCED_FACE ( 'NONE', ( #86, #636 ), #364, .T. ) ;
#667 = CARTESIAN_POINT ( 'NONE',  ( 6.696780684104612469, -6.298893360160956689, -1.499999999999956701 ) ) ;
#668 = ORIENTED_EDGE ( 'NONE', *, *, #703, .F. ) ;
#669 = DIRECTION ( 'NONE',  ( 0.000000000000000000, 1.000000000000000000, 0.000000000000000000 ) ) ;
#670 = CARTESIAN_POINT ( 'NONE',  ( -1.303219315895387531, -8.298893360160956689, 4.398493724472981443E-14 ) ) ;
#671 = AXIS2_PLACEMENT_3D ( 'NONE', #202, #429, #645 ) ;
#672 = ADVANCED_FACE ( 'NONE', ( #526, #250, #413, #349, #468, #246 ), #471, .F. ) ;
#673 = ORIENTED_EDGE ( 'NONE', *, *, #437, .F. ) ;
#674 = CYLINDRICAL_SURFACE ( 'NONE', #478, 2.500000000000000000 ) ;
#675 = AXIS2_PLACEMENT_3D ( 'NONE', #573, #136, #299 ) ;
#676 = ORIENTED_EDGE ( 'NONE', *, *, #211, .T. ) ;
#677 =( NAMED_UNIT ( * ) PLANE_ANGLE_UNIT ( ) SI_UNIT ( $, .RADIAN. ) );
#678 = CARTESIAN_POINT ( 'NONE',  ( -1.303219315895387531, -8.298893360160956689, 1.500000000000044187 ) ) ;
#679 = AXIS2_PLACEMENT_3D ( 'NONE', #3, #272, #657 ) ;
#680 = EDGE_CURVE ( 'NONE', #351, #683, #614, .T. ) ;
#681 = EDGE_LOOP ( 'NONE', ( #401, #372 ) ) ;
#682 = ORIENTED_EDGE ( 'NONE', *, *, #248, .F. ) ;
#683 = VERTEX_POINT ( 'NONE', #532 ) ;
#684 = FACE_OUTER_BOUND ( 'NONE', #23, .T. ) ;
#685 = AXIS2_PLACEMENT_3D ( 'NONE', #119, #389, #605 ) ;
#686 = AXIS2_PLACEMENT_3D ( 'NONE', #414, #691, #469 ) ;
#687 = EDGE_LOOP ( 'NONE', ( #110, #307 ) ) ;
#688 = EDGE_CURVE ( 'NONE', #217, #293, #84, .T. ) ;
#689 = LOCAL_TIME ( 11, 18, 39.00000000000000000, #599 ) ;
#690 = CARTESIAN_POINT ( 'NONE',  ( -1.303219315895387531, -6.298893360160956689, 4.398493724472981443E-14 ) ) ;
#691 = DIRECTION ( 'NONE',  ( 0.000000000000000000, -1.000000000000000000, 0.000000000000000000 ) ) ;
#692 = EDGE_LOOP ( 'NONE', ( #347, #623 ) ) ;
#693 = CARTESIAN_POINT ( 'NONE',  ( -1.303219315895387531, -6.298893360160956689, 8.000000000000044409 ) ) ;
#694 = CARTESIAN_POINT ( 'NONE',  ( -1.303219315895387531, 3.701106639839043755, -4.999999999999954703 ) ) ;
#695 = VERTEX_POINT ( 'NONE', #417 ) ;
#696 = APPROVAL_ROLE ( '' ) ;
#697 = CYLINDRICAL_SURFACE ( 'NONE', #671, 11.00000000000000000 ) ;
#698 = ADVANCED_FACE ( 'NONE', ( #518, #243 ), #44, .F. ) ;
#699 = ORIENTED_EDGE ( 'NONE', *, *, #39, .T. ) ;
#700 = CIRCLE ( 'NONE', #686, 11.00000000000000000 ) ;
#701 = AXIS2_PLACEMENT_3D ( 'NONE', #304, #129, #528 ) ;
#702 = FACE_OUTER_BOUND ( 'NONE', #288, .T. ) ;
#703 = EDGE_CURVE ( 'NONE', #431, #593, #33, .T. ) ;
#704 = PERSON_AND_ORGANIZATION ( #227, #19 ) ;
#705 = FACE_OUTER_BOUND ( 'NONE', #118, .T. ) ;
ENDSEC;
END-ISO-10303-21;
