ISO-10303-21;
HEADER;
FILE_DESCRIPTION(('CATIA V5 STEP Exchange','CAx-IF Rec.Pracs.--- Composite Materials ---3.4---2017-06-13'),'2;1');

FILE_NAME('C:\\Users\\PH\\Desktop\\\X2\75358D5B\X0\\\\X2\94FE63A5\X0\2.stp','2026-07-29T07:49:18+00:00',('none'),('none'),'CATIA Version 5-6 Release 2021 SP7','CATIA V5 STEP AP203 v2','none');

FILE_SCHEMA(('CONFIG_CONTROL_DESIGN'));

ENDSEC;
DATA;
#5=PRODUCT('Product5','','',(#2)) ;
#55=PRODUCT('Part5','','',(#2)) ;
#291=PRODUCT('Part7','','',(#2)) ;
#1=APPLICATION_CONTEXT('configuration controlled 3D design of mechanical parts and assemblies') ;
#17=PRODUCT_DEFINITION('',' ',#6,#3) ;
#19=SECURITY_CLASSIFICATION(' ',' ',#18) ;
#18=SECURITY_CLASSIFICATION_LEVEL('unclassified') ;
#62=CARTESIAN_POINT('Axis2P3D Location',(30.,4.70110663984,-24.3930254191)) ;
#67=CARTESIAN_POINT('Line Origine',(31.5,4.70110663984,-24.3930254191)) ;
#71=CARTESIAN_POINT('Vertex',(31.5,-3.16227766017,-24.3930254191)) ;
#73=CARTESIAN_POINT('Vertex',(31.5,3.16227766017,-24.3930254191)) ;
#77=CARTESIAN_POINT('Control Point',(28.5,3.16228305563,-24.3930254191)) ;
#78=CARTESIAN_POINT('Control Point',(28.5,3.16227659662,-24.5517221779)) ;
#79=CARTESIAN_POINT('Control Point',(28.5209872177,3.17222336718,-24.7105286079)) ;
#80=CARTESIAN_POINT('Control Point',(28.5630587545,3.19221912401,-24.8647160424)) ;
#81=CARTESIAN_POINT('Control Point',(28.7024133938,3.2540712118,-25.1973157973)) ;
#82=CARTESIAN_POINT('Control Point',(28.9308856309,3.33732123691,-25.4733295505)) ;
#83=CARTESIAN_POINT('Control Point',(29.084053846,3.38469947223,-25.6062754664)) ;
#84=CARTESIAN_POINT('Control Point',(29.3957491686,3.45820388644,-25.7960809812)) ;
#85=CARTESIAN_POINT('Control Point',(29.7528399977,3.49687085159,-25.8859671296)) ;
#86=CARTESIAN_POINT('Control Point',(29.9165603781,3.504863564,-25.9041294202)) ;
#87=CARTESIAN_POINT('Control Point',(30.3259766812,3.49959301626,-25.8928740266)) ;
#88=CARTESIAN_POINT('Control Point',(30.7097538911,3.43879297306,-25.747727552)) ;
#89=CARTESIAN_POINT('Control Point',(30.9150869036,3.3864077012,-25.6169483246)) ;
#90=CARTESIAN_POINT('Control Point',(31.2229336317,3.28562051813,-25.3240132084)) ;
#91=CARTESIAN_POINT('Control Point',(31.4134730559,3.20336751003,-24.9434957545)) ;
#92=CARTESIAN_POINT('Control Point',(31.4711557019,3.17595971207,-24.7651175003)) ;
#93=CARTESIAN_POINT('Control Point',(31.5,3.16227766017,-24.5790715362)) ;
#94=CARTESIAN_POINT('Control Point',(31.5,3.16227766017,-24.3930254191)) ;
#95=CARTESIAN_POINT('Vertex',(28.5,3.16228305563,-24.3930254191)) ;
#98=CARTESIAN_POINT('Line Origine',(28.5,4.70110663984,-24.3930254191)) ;
#102=CARTESIAN_POINT('Vertex',(28.5,-3.16228305563,-24.3930254191)) ;
#106=CARTESIAN_POINT('Control Point',(28.5,-3.16228305563,-24.3930254191)) ;
#107=CARTESIAN_POINT('Control Point',(28.5,-3.16227659662,-24.5517221779)) ;
#108=CARTESIAN_POINT('Control Point',(28.5209872177,-3.17222336718,-24.7105286079)) ;
#109=CARTESIAN_POINT('Control Point',(28.5630587545,-3.19221912401,-24.8647160424)) ;
#110=CARTESIAN_POINT('Control Point',(28.7024133938,-3.2540712118,-25.1973157972)) ;
#111=CARTESIAN_POINT('Control Point',(28.9308856309,-3.33732123691,-25.4733295505)) ;
#112=CARTESIAN_POINT('Control Point',(29.084053846,-3.38469947223,-25.6062754664)) ;
#113=CARTESIAN_POINT('Control Point',(29.3957491686,-3.45820388644,-25.7960809812)) ;
#114=CARTESIAN_POINT('Control Point',(29.7528399977,-3.49687085159,-25.8859671296)) ;
#115=CARTESIAN_POINT('Control Point',(29.9165603781,-3.504863564,-25.9041294202)) ;
#116=CARTESIAN_POINT('Control Point',(30.3259766812,-3.49959301626,-25.8928740266)) ;
#117=CARTESIAN_POINT('Control Point',(30.7097538911,-3.43879297306,-25.747727552)) ;
#118=CARTESIAN_POINT('Control Point',(30.9150869036,-3.3864077012,-25.6169483246)) ;
#119=CARTESIAN_POINT('Control Point',(31.2229336317,-3.28562051813,-25.3240132084)) ;
#120=CARTESIAN_POINT('Control Point',(31.4134730559,-3.20336751003,-24.9434957545)) ;
#121=CARTESIAN_POINT('Control Point',(31.4711557019,-3.17595971207,-24.7651175003)) ;
#122=CARTESIAN_POINT('Control Point',(31.5,-3.16227766017,-24.5790715362)) ;
#123=CARTESIAN_POINT('Control Point',(31.5,-3.16227766017,-24.3930254191)) ;
#133=CARTESIAN_POINT('Control Point',(31.5,3.16227766017,-24.3930254191)) ;
#134=CARTESIAN_POINT('Control Point',(31.5,3.16227766017,-24.2053545413)) ;
#135=CARTESIAN_POINT('Control Point',(31.4706497013,3.17619972922,-24.0176838191)) ;
#136=CARTESIAN_POINT('Control Point',(31.4119367003,3.20409562632,-23.837835264)) ;
#137=CARTESIAN_POINT('Control Point',(31.1984468936,3.2960872878,-23.4157625975)) ;
#138=CARTESIAN_POINT('Control Point',(30.8405482238,3.41012890942,-23.1025025092)) ;
#139=CARTESIAN_POINT('Control Point',(30.5807847509,3.46965679597,-22.9638266423)) ;
#140=CARTESIAN_POINT('Control Point',(30.0942961129,3.52033315945,-22.8455810989)) ;
#141=CARTESIAN_POINT('Control Point',(29.6072878336,3.48637729749,-22.9248119164)) ;
#142=CARTESIAN_POINT('Control Point',(29.4179370597,3.45848862911,-22.9897854642)) ;
#143=CARTESIAN_POINT('Control Point',(28.9990092571,3.36842691375,-23.2144620348)) ;
#144=CARTESIAN_POINT('Control Point',(28.6944758874,3.25440543741,-23.5806881955)) ;
#145=CARTESIAN_POINT('Control Point',(28.5651633008,3.19320964266,-23.8340951233)) ;
#146=CARTESIAN_POINT('Control Point',(28.5,3.16229443688,-24.1133900118)) ;
#147=CARTESIAN_POINT('Control Point',(28.5,3.16228305563,-24.3930254191)) ;
#150=CARTESIAN_POINT('Control Point',(31.5,-3.16227766017,-24.3930254191)) ;
#151=CARTESIAN_POINT('Control Point',(31.5,-3.16227766017,-24.2053545413)) ;
#152=CARTESIAN_POINT('Control Point',(31.4706497013,-3.17619972922,-24.0176838191)) ;
#153=CARTESIAN_POINT('Control Point',(31.4119367003,-3.20409562632,-23.8378352639)) ;
#154=CARTESIAN_POINT('Control Point',(31.1984468936,-3.2960872878,-23.4157625975)) ;
#155=CARTESIAN_POINT('Control Point',(30.8405482238,-3.41012890942,-23.1025025092)) ;
#156=CARTESIAN_POINT('Control Point',(30.5807847509,-3.46965679597,-22.9638266423)) ;
#157=CARTESIAN_POINT('Control Point',(30.0942961128,-3.52033315945,-22.8455810989)) ;
#158=CARTESIAN_POINT('Control Point',(29.6072878336,-3.48637729749,-22.9248119164)) ;
#159=CARTESIAN_POINT('Control Point',(29.4179370597,-3.45848862911,-22.9897854642)) ;
#160=CARTESIAN_POINT('Control Point',(28.9990092571,-3.36842691375,-23.2144620348)) ;
#161=CARTESIAN_POINT('Control Point',(28.6944758874,-3.25440543741,-23.5806881955)) ;
#162=CARTESIAN_POINT('Control Point',(28.5651633008,-3.19320964266,-23.8340951233)) ;
#163=CARTESIAN_POINT('Control Point',(28.5,-3.16229443688,-24.1133900118)) ;
#164=CARTESIAN_POINT('Control Point',(28.5,-3.16228305563,-24.3930254191)) ;
#173=CARTESIAN_POINT('Axis2P3D Location',(30.,0.,-12.3930254191)) ;
#178=CARTESIAN_POINT('Axis2P3D Location',(30.,0.,-27.3930254191)) ;
#182=CARTESIAN_POINT('Vertex',(28.3220106149,-3.07153896662,-27.3930254191)) ;
#184=CARTESIAN_POINT('Vertex',(31.6779893851,3.07153896662,-27.3930254191)) ;
#187=CARTESIAN_POINT('Line Origine',(28.3220106149,-3.07153896662,-12.3930254191)) ;
#191=CARTESIAN_POINT('Vertex',(28.3220106149,-3.07153896662,2.60697458089)) ;
#194=CARTESIAN_POINT('Axis2P3D Location',(30.,0.,2.60697458089)) ;
#198=CARTESIAN_POINT('Vertex',(31.6779893851,3.07153896662,2.60697458089)) ;
#201=CARTESIAN_POINT('Line Origine',(31.6779893851,3.07153896662,-12.3930254191)) ;
#217=CARTESIAN_POINT('Axis2P3D Location',(30.,0.,-27.3930254191)) ;
#222=CARTESIAN_POINT('Axis2P3D Location',(30.,0.,2.60697458089)) ;
#238=CARTESIAN_POINT('Axis2P3D Location',(30.,0.,2.60697458089)) ;
#248=CARTESIAN_POINT('Axis2P3D Location',(30.,3.5,-27.3930254191)) ;
#268=CARTESIAN_POINT('NONE',(0.,0.,0.)) ;
#269=CARTESIAN_POINT('NONE',(-1.3032193159,-3.29889336016,24.3930254191)) ;
#281=CARTESIAN_POINT('NONE',(0.,0.,0.)) ;
#282=CARTESIAN_POINT('NONE',(-1.3032193159,-17.2988933602,24.3930254191)) ;
#298=CARTESIAN_POINT('Axis2P3D Location',(28.6967806841,-3.29889336016,29.)) ;
#303=CARTESIAN_POINT('Line Origine',(30.1967806841,-3.29889336016,29.)) ;
#307=CARTESIAN_POINT('Vertex',(30.1967806841,-3.29889336016,31.)) ;
#309=CARTESIAN_POINT('Vertex',(30.1967806841,-3.29889336016,27.)) ;
#312=CARTESIAN_POINT('Axis2P3D Location',(28.6967806841,-3.29889336016,31.)) ;
#316=CARTESIAN_POINT('Vertex',(27.1967806841,-3.29889336016,31.)) ;
#319=CARTESIAN_POINT('Line Origine',(27.1967806841,-3.29889336016,29.)) ;
#323=CARTESIAN_POINT('Vertex',(27.1967806841,-3.29889336016,27.)) ;
#326=CARTESIAN_POINT('Axis2P3D Location',(28.6967806841,-3.29889336016,27.)) ;
#338=CARTESIAN_POINT('Axis2P3D Location',(28.6967806841,-3.29889336016,31.)) ;
#343=CARTESIAN_POINT('Axis2P3D Location',(28.6967806841,-3.29889336016,27.)) ;
#355=CARTESIAN_POINT('Axis2P3D Location',(28.6967435479,-10.2988933602,29.)) ;
#360=CARTESIAN_POINT('Line Origine',(30.1967435479,-10.2988933602,29.)) ;
#364=CARTESIAN_POINT('Vertex',(30.1967435479,-10.2988933602,31.)) ;
#366=CARTESIAN_POINT('Vertex',(30.1967435479,-10.2988933602,27.)) ;
#369=CARTESIAN_POINT('Axis2P3D Location',(28.6967435479,-10.2988933602,31.)) ;
#373=CARTESIAN_POINT('Vertex',(27.1967435479,-10.2988933602,31.)) ;
#376=CARTESIAN_POINT('Line Origine',(27.1967435479,-10.2988933602,29.)) ;
#380=CARTESIAN_POINT('Vertex',(27.1967435479,-10.2988933602,27.)) ;
#383=CARTESIAN_POINT('Axis2P3D Location',(28.6967435479,-10.2988933602,27.)) ;
#395=CARTESIAN_POINT('Axis2P3D Location',(28.6967435479,-10.2988933602,31.)) ;
#400=CARTESIAN_POINT('Axis2P3D Location',(28.6967435479,-10.2988933602,27.)) ;
#412=CARTESIAN_POINT('Axis2P3D Location',(28.6967806841,-17.2988933602,29.)) ;
#417=CARTESIAN_POINT('Line Origine',(30.1967806841,-17.2988933602,29.)) ;
#421=CARTESIAN_POINT('Vertex',(30.1967806841,-17.2988933602,31.)) ;
#423=CARTESIAN_POINT('Vertex',(30.1967806841,-17.2988933602,27.)) ;
#426=CARTESIAN_POINT('Axis2P3D Location',(28.6967806841,-17.2988933602,31.)) ;
#430=CARTESIAN_POINT('Vertex',(27.1967806841,-17.2988933602,31.)) ;
#433=CARTESIAN_POINT('Line Origine',(27.1967806841,-17.2988933602,29.)) ;
#437=CARTESIAN_POINT('Vertex',(27.1967806841,-17.2988933602,27.)) ;
#440=CARTESIAN_POINT('Axis2P3D Location',(28.6967806841,-17.2988933602,27.)) ;
#452=CARTESIAN_POINT('Axis2P3D Location',(28.6967806841,-17.2988933602,31.)) ;
#457=CARTESIAN_POINT('Axis2P3D Location',(28.6967806841,-17.2988933602,27.)) ;
#469=CARTESIAN_POINT('Axis2P3D Location',(0.,0.,31.)) ;
#474=CARTESIAN_POINT('Line Origine',(32.6967806841,-10.2988933602,31.)) ;
#478=CARTESIAN_POINT('Vertex',(32.6967806841,-3.29889336016,31.)) ;
#480=CARTESIAN_POINT('Vertex',(32.6967806841,-17.2988933602,31.)) ;
#483=CARTESIAN_POINT('Axis2P3D Location',(28.6967806841,-3.29889336016,31.)) ;
#487=CARTESIAN_POINT('Vertex',(24.6967806841,-3.29889336016,31.)) ;
#490=CARTESIAN_POINT('Line Origine',(24.6967806841,-10.2988933602,31.)) ;
#494=CARTESIAN_POINT('Vertex',(24.6967806841,-17.2988933602,31.)) ;
#497=CARTESIAN_POINT('Axis2P3D Location',(28.6967806841,-17.2988933602,31.)) ;
#521=CARTESIAN_POINT('Axis2P3D Location',(0.,0.,27.)) ;
#526=CARTESIAN_POINT('Axis2P3D Location',(28.6967806841,-17.2988933602,27.)) ;
#530=CARTESIAN_POINT('Vertex',(32.6967806841,-17.2988933602,27.)) ;
#532=CARTESIAN_POINT('Vertex',(24.6967806841,-17.2988933602,27.)) ;
#535=CARTESIAN_POINT('Line Origine',(24.6967806841,-10.2988933602,27.)) ;
#539=CARTESIAN_POINT('Vertex',(24.6967806841,-3.29889336016,27.)) ;
#542=CARTESIAN_POINT('Axis2P3D Location',(28.6967806841,-3.29889336016,27.)) ;
#546=CARTESIAN_POINT('Vertex',(32.6967806841,-3.29889336016,27.)) ;
#549=CARTESIAN_POINT('Line Origine',(32.6967806841,-10.2988933602,27.)) ;
#573=CARTESIAN_POINT('Axis2P3D Location',(32.6967806841,-17.2988933602,27.)) ;
#578=CARTESIAN_POINT('Line Origine',(32.6967806841,-17.2988933602,29.)) ;
#583=CARTESIAN_POINT('Line Origine',(32.6967806841,-3.29889336016,29.)) ;
#595=CARTESIAN_POINT('Axis2P3D Location',(28.6967806841,-3.29889336016,29.)) ;
#600=CARTESIAN_POINT('Line Origine',(24.6967806841,-3.29889336016,29.)) ;
#612=CARTESIAN_POINT('Axis2P3D Location',(24.6967806841,-3.29889336016,27.)) ;
#617=CARTESIAN_POINT('Line Origine',(24.6967806841,-17.2988933602,29.)) ;
#629=CARTESIAN_POINT('Axis2P3D Location',(28.6967806841,-17.2988933602,29.)) ;
#651=CARTESIAN_POINT('NONE',(0.,0.,0.)) ;
#652=CARTESIAN_POINT('NONE',(0.,0.,0.)) ;
#664=CARTESIAN_POINT('NONE',(0.,0.,0.)) ;
#665=CARTESIAN_POINT('NONE',(58.6903820759,-10.9166699018,33.6069745809)) ;
#63=DIRECTION('Axis2P3D Direction',(0.,-1.,0.)) ;
#64=DIRECTION('Axis2P3D XDirection',(1.,0.,-3.79764303863E-15)) ;
#68=DIRECTION('Vector Direction',(0.,-1.,0.)) ;
#99=DIRECTION('Vector Direction',(0.,-1.,0.)) ;
#174=DIRECTION('Axis2P3D Direction',(0.,0.,-1.)) ;
#175=DIRECTION('Axis2P3D XDirection',(0.479425538604,0.87758256189,0.)) ;
#179=DIRECTION('Axis2P3D Direction',(0.,0.,-1.)) ;
#188=DIRECTION('Vector Direction',(0.,0.,-1.)) ;
#195=DIRECTION('Axis2P3D Direction',(0.,0.,-1.)) ;
#202=DIRECTION('Vector Direction',(0.,0.,-1.)) ;
#218=DIRECTION('Axis2P3D Direction',(0.,0.,-1.)) ;
#223=DIRECTION('Axis2P3D Direction',(0.,0.,-1.)) ;
#239=DIRECTION('Axis2P3D Direction',(0.,0.,-1.)) ;
#240=DIRECTION('Axis2P3D XDirection',(1.,0.,0.)) ;
#249=DIRECTION('Axis2P3D Direction',(0.,0.,-1.)) ;
#250=DIRECTION('Axis2P3D XDirection',(1.,0.,0.)) ;
#270=DIRECTION('NONE',(1.,0.,0.)) ;
#271=DIRECTION('NONE',(0.,0.,1.)) ;
#272=DIRECTION('NONE',(1.,0.,0.)) ;
#273=DIRECTION('NONE',(0.,0.,1.)) ;
#283=DIRECTION('NONE',(1.,0.,0.)) ;
#284=DIRECTION('NONE',(0.,0.,1.)) ;
#285=DIRECTION('NONE',(1.,0.,0.)) ;
#286=DIRECTION('NONE',(0.,0.,1.)) ;
#299=DIRECTION('Axis2P3D Direction',(0.,-0.,1.)) ;
#300=DIRECTION('Axis2P3D XDirection',(1.,0.,0.)) ;
#304=DIRECTION('Vector Direction',(0.,0.,1.)) ;
#313=DIRECTION('Axis2P3D Direction',(0.,-0.,1.)) ;
#320=DIRECTION('Vector Direction',(0.,0.,1.)) ;
#327=DIRECTION('Axis2P3D Direction',(0.,-0.,1.)) ;
#339=DIRECTION('Axis2P3D Direction',(0.,-0.,1.)) ;
#344=DIRECTION('Axis2P3D Direction',(0.,-0.,1.)) ;
#356=DIRECTION('Axis2P3D Direction',(0.,-0.,1.)) ;
#357=DIRECTION('Axis2P3D XDirection',(1.,0.,0.)) ;
#361=DIRECTION('Vector Direction',(0.,0.,1.)) ;
#370=DIRECTION('Axis2P3D Direction',(0.,-0.,1.)) ;
#377=DIRECTION('Vector Direction',(0.,0.,1.)) ;
#384=DIRECTION('Axis2P3D Direction',(0.,-0.,1.)) ;
#396=DIRECTION('Axis2P3D Direction',(0.,-0.,1.)) ;
#401=DIRECTION('Axis2P3D Direction',(0.,-0.,1.)) ;
#413=DIRECTION('Axis2P3D Direction',(0.,-0.,1.)) ;
#414=DIRECTION('Axis2P3D XDirection',(1.,0.,0.)) ;
#418=DIRECTION('Vector Direction',(0.,0.,1.)) ;
#427=DIRECTION('Axis2P3D Direction',(0.,-0.,1.)) ;
#434=DIRECTION('Vector Direction',(0.,0.,1.)) ;
#441=DIRECTION('Axis2P3D Direction',(0.,-0.,1.)) ;
#453=DIRECTION('Axis2P3D Direction',(0.,-0.,1.)) ;
#458=DIRECTION('Axis2P3D Direction',(0.,-0.,1.)) ;
#470=DIRECTION('Axis2P3D Direction',(0.,0.,-1.)) ;
#471=DIRECTION('Axis2P3D XDirection',(1.,0.,0.)) ;
#475=DIRECTION('Vector Direction',(0.,1.,0.)) ;
#484=DIRECTION('Axis2P3D Direction',(0.,0.,-1.)) ;
#491=DIRECTION('Vector Direction',(0.,-1.,0.)) ;
#498=DIRECTION('Axis2P3D Direction',(0.,0.,-1.)) ;
#522=DIRECTION('Axis2P3D Direction',(0.,0.,-1.)) ;
#523=DIRECTION('Axis2P3D XDirection',(1.,0.,0.)) ;
#527=DIRECTION('Axis2P3D Direction',(0.,0.,-1.)) ;
#536=DIRECTION('Vector Direction',(0.,-1.,0.)) ;
#543=DIRECTION('Axis2P3D Direction',(0.,0.,-1.)) ;
#550=DIRECTION('Vector Direction',(0.,1.,0.)) ;
#574=DIRECTION('Axis2P3D Direction',(1.,0.,0.)) ;
#575=DIRECTION('Axis2P3D XDirection',(0.,1.,0.)) ;
#579=DIRECTION('Vector Direction',(0.,0.,1.)) ;
#584=DIRECTION('Vector Direction',(0.,0.,1.)) ;
#596=DIRECTION('Axis2P3D Direction',(0.,0.,-1.)) ;
#597=DIRECTION('Axis2P3D XDirection',(-1.,-5.66553889765E-16,0.)) ;
#601=DIRECTION('Vector Direction',(0.,0.,-1.)) ;
#613=DIRECTION('Axis2P3D Direction',(-1.,0.,0.)) ;
#614=DIRECTION('Axis2P3D XDirection',(0.,-1.,0.)) ;
#618=DIRECTION('Vector Direction',(0.,0.,1.)) ;
#630=DIRECTION('Axis2P3D Direction',(0.,0.,-1.)) ;
#631=DIRECTION('Axis2P3D XDirection',(1.,1.13310777953E-15,0.)) ;
#653=DIRECTION('NONE',(1.,0.,0.)) ;
#654=DIRECTION('NONE',(0.,0.,1.)) ;
#655=DIRECTION('NONE',(1.,0.,0.)) ;
#656=DIRECTION('NONE',(0.,0.,1.)) ;
#666=DIRECTION('NONE',(1.,0.,0.)) ;
#667=DIRECTION('NONE',(0.,0.,1.)) ;
#668=DIRECTION('NONE',(-0.999787950931,0.0205925513895,0.)) ;
#669=DIRECTION('NONE',(-8.32667268469E-16,2.77555756156E-17,-1.)) ;
#65=AXIS2_PLACEMENT_3D('Cylinder Axis2P3D',#62,#63,#64) ;
#176=AXIS2_PLACEMENT_3D('Cylinder Axis2P3D',#173,#174,#175) ;
#180=AXIS2_PLACEMENT_3D('Circle Axis2P3D',#178,#179,$) ;
#196=AXIS2_PLACEMENT_3D('Circle Axis2P3D',#194,#195,$) ;
#219=AXIS2_PLACEMENT_3D('Circle Axis2P3D',#217,#218,$) ;
#224=AXIS2_PLACEMENT_3D('Circle Axis2P3D',#222,#223,$) ;
#241=AXIS2_PLACEMENT_3D('Plane Axis2P3D',#238,#239,#240) ;
#251=AXIS2_PLACEMENT_3D('Plane Axis2P3D',#248,#249,#250) ;
#266=AXIS2_PLACEMENT_3D(' ',#269,#273,#272) ;
#267=AXIS2_PLACEMENT_3D(' ',#268,#271,#270) ;
#279=AXIS2_PLACEMENT_3D(' ',#282,#286,#285) ;
#280=AXIS2_PLACEMENT_3D(' ',#281,#284,#283) ;
#301=AXIS2_PLACEMENT_3D('Cylinder Axis2P3D',#298,#299,#300) ;
#314=AXIS2_PLACEMENT_3D('Circle Axis2P3D',#312,#313,$) ;
#328=AXIS2_PLACEMENT_3D('Circle Axis2P3D',#326,#327,$) ;
#340=AXIS2_PLACEMENT_3D('Circle Axis2P3D',#338,#339,$) ;
#345=AXIS2_PLACEMENT_3D('Circle Axis2P3D',#343,#344,$) ;
#358=AXIS2_PLACEMENT_3D('Cylinder Axis2P3D',#355,#356,#357) ;
#371=AXIS2_PLACEMENT_3D('Circle Axis2P3D',#369,#370,$) ;
#385=AXIS2_PLACEMENT_3D('Circle Axis2P3D',#383,#384,$) ;
#397=AXIS2_PLACEMENT_3D('Circle Axis2P3D',#395,#396,$) ;
#402=AXIS2_PLACEMENT_3D('Circle Axis2P3D',#400,#401,$) ;
#415=AXIS2_PLACEMENT_3D('Cylinder Axis2P3D',#412,#413,#414) ;
#428=AXIS2_PLACEMENT_3D('Circle Axis2P3D',#426,#427,$) ;
#442=AXIS2_PLACEMENT_3D('Circle Axis2P3D',#440,#441,$) ;
#454=AXIS2_PLACEMENT_3D('Circle Axis2P3D',#452,#453,$) ;
#459=AXIS2_PLACEMENT_3D('Circle Axis2P3D',#457,#458,$) ;
#472=AXIS2_PLACEMENT_3D('Plane Axis2P3D',#469,#470,#471) ;
#485=AXIS2_PLACEMENT_3D('Circle Axis2P3D',#483,#484,$) ;
#499=AXIS2_PLACEMENT_3D('Circle Axis2P3D',#497,#498,$) ;
#524=AXIS2_PLACEMENT_3D('Plane Axis2P3D',#521,#522,#523) ;
#528=AXIS2_PLACEMENT_3D('Circle Axis2P3D',#526,#527,$) ;
#544=AXIS2_PLACEMENT_3D('Circle Axis2P3D',#542,#543,$) ;
#576=AXIS2_PLACEMENT_3D('Plane Axis2P3D',#573,#574,#575) ;
#598=AXIS2_PLACEMENT_3D('Cylinder Axis2P3D',#595,#596,#597) ;
#615=AXIS2_PLACEMENT_3D('Plane Axis2P3D',#612,#613,#614) ;
#632=AXIS2_PLACEMENT_3D('Cylinder Axis2P3D',#629,#630,#631) ;
#649=AXIS2_PLACEMENT_3D(' ',#652,#656,#655) ;
#650=AXIS2_PLACEMENT_3D(' ',#651,#654,#653) ;
#662=AXIS2_PLACEMENT_3D(' ',#665,#669,#668) ;
#663=AXIS2_PLACEMENT_3D(' ',#664,#667,#666) ;
#45=PRODUCT_DEFINITION_SHAPE(' ',' ',#17) ;
#60=PRODUCT_DEFINITION_SHAPE(' ',' ',#57) ;
#262=PRODUCT_DEFINITION_SHAPE(' ',' ',#261) ;
#275=PRODUCT_DEFINITION_SHAPE(' ',' ',#274) ;
#296=PRODUCT_DEFINITION_SHAPE(' ',' ',#293) ;
#645=PRODUCT_DEFINITION_SHAPE(' ',' ',#644) ;
#658=PRODUCT_DEFINITION_SHAPE(' ',' ',#657) ;
#34=APPROVAL_PERSON_ORGANIZATION(#28,#24,#22) ;
#28=PERSON_AND_ORGANIZATION(#25,#26) ;
#25=PERSON(' ',' ',' ',$,$,$) ;
#26=ORGANIZATION(' ',' ',' ') ;
#24=APPROVAL(#23,' ') ;
#23=APPROVAL_STATUS('not_yet_approved') ;
#22=APPROVAL_ROLE('APPROVER') ;
#13=DATE_AND_TIME(#11,#12) ;
#12=LOCAL_TIME(15,49,18.,#10) ;
#10=COORDINATED_UNIVERSAL_TIME_OFFSET(0,0,.AHEAD.) ;
#126=ORIENTED_EDGE('',*,*,#75,.T.) ;
#127=ORIENTED_EDGE('',*,*,#97,.F.) ;
#128=ORIENTED_EDGE('',*,*,#104,.F.) ;
#129=ORIENTED_EDGE('',*,*,#124,.T.) ;
#167=ORIENTED_EDGE('',*,*,#104,.T.) ;
#168=ORIENTED_EDGE('',*,*,#148,.F.) ;
#169=ORIENTED_EDGE('',*,*,#75,.F.) ;
#170=ORIENTED_EDGE('',*,*,#165,.T.) ;
#207=ORIENTED_EDGE('',*,*,#186,.F.) ;
#208=ORIENTED_EDGE('',*,*,#193,.T.) ;
#209=ORIENTED_EDGE('',*,*,#200,.T.) ;
#210=ORIENTED_EDGE('',*,*,#205,.F.) ;
#213=ORIENTED_EDGE('',*,*,#97,.T.) ;
#214=ORIENTED_EDGE('',*,*,#148,.T.) ;
#228=ORIENTED_EDGE('',*,*,#221,.F.) ;
#229=ORIENTED_EDGE('',*,*,#205,.T.) ;
#230=ORIENTED_EDGE('',*,*,#226,.T.) ;
#231=ORIENTED_EDGE('',*,*,#193,.F.) ;
#234=ORIENTED_EDGE('',*,*,#165,.F.) ;
#235=ORIENTED_EDGE('',*,*,#124,.F.) ;
#244=ORIENTED_EDGE('',*,*,#226,.F.) ;
#245=ORIENTED_EDGE('',*,*,#200,.F.) ;
#254=ORIENTED_EDGE('',*,*,#221,.T.) ;
#255=ORIENTED_EDGE('',*,*,#186,.T.) ;
#332=ORIENTED_EDGE('',*,*,#311,.F.) ;
#333=ORIENTED_EDGE('',*,*,#318,.T.) ;
#334=ORIENTED_EDGE('',*,*,#325,.T.) ;
#335=ORIENTED_EDGE('',*,*,#330,.F.) ;
#349=ORIENTED_EDGE('',*,*,#325,.F.) ;
#350=ORIENTED_EDGE('',*,*,#342,.T.) ;
#351=ORIENTED_EDGE('',*,*,#311,.T.) ;
#352=ORIENTED_EDGE('',*,*,#347,.F.) ;
#389=ORIENTED_EDGE('',*,*,#368,.F.) ;
#390=ORIENTED_EDGE('',*,*,#375,.T.) ;
#391=ORIENTED_EDGE('',*,*,#382,.T.) ;
#392=ORIENTED_EDGE('',*,*,#387,.F.) ;
#406=ORIENTED_EDGE('',*,*,#382,.F.) ;
#407=ORIENTED_EDGE('',*,*,#399,.T.) ;
#408=ORIENTED_EDGE('',*,*,#368,.T.) ;
#409=ORIENTED_EDGE('',*,*,#404,.F.) ;
#446=ORIENTED_EDGE('',*,*,#425,.F.) ;
#447=ORIENTED_EDGE('',*,*,#432,.T.) ;
#448=ORIENTED_EDGE('',*,*,#439,.T.) ;
#449=ORIENTED_EDGE('',*,*,#444,.F.) ;
#463=ORIENTED_EDGE('',*,*,#439,.F.) ;
#464=ORIENTED_EDGE('',*,*,#456,.T.) ;
#465=ORIENTED_EDGE('',*,*,#425,.T.) ;
#466=ORIENTED_EDGE('',*,*,#461,.F.) ;
#503=ORIENTED_EDGE('',*,*,#482,.F.) ;
#504=ORIENTED_EDGE('',*,*,#489,.F.) ;
#505=ORIENTED_EDGE('',*,*,#496,.F.) ;
#506=ORIENTED_EDGE('',*,*,#501,.F.) ;
#509=ORIENTED_EDGE('',*,*,#342,.F.) ;
#510=ORIENTED_EDGE('',*,*,#318,.F.) ;
#513=ORIENTED_EDGE('',*,*,#399,.F.) ;
#514=ORIENTED_EDGE('',*,*,#375,.F.) ;
#517=ORIENTED_EDGE('',*,*,#456,.F.) ;
#518=ORIENTED_EDGE('',*,*,#432,.F.) ;
#555=ORIENTED_EDGE('',*,*,#534,.T.) ;
#556=ORIENTED_EDGE('',*,*,#541,.T.) ;
#557=ORIENTED_EDGE('',*,*,#548,.T.) ;
#558=ORIENTED_EDGE('',*,*,#553,.T.) ;
#561=ORIENTED_EDGE('',*,*,#330,.T.) ;
#562=ORIENTED_EDGE('',*,*,#347,.T.) ;
#565=ORIENTED_EDGE('',*,*,#387,.T.) ;
#566=ORIENTED_EDGE('',*,*,#404,.T.) ;
#569=ORIENTED_EDGE('',*,*,#444,.T.) ;
#570=ORIENTED_EDGE('',*,*,#461,.T.) ;
#589=ORIENTED_EDGE('',*,*,#482,.T.) ;
#590=ORIENTED_EDGE('',*,*,#582,.F.) ;
#591=ORIENTED_EDGE('',*,*,#553,.F.) ;
#592=ORIENTED_EDGE('',*,*,#587,.T.) ;
#606=ORIENTED_EDGE('',*,*,#489,.T.) ;
#607=ORIENTED_EDGE('',*,*,#587,.F.) ;
#608=ORIENTED_EDGE('',*,*,#548,.F.) ;
#609=ORIENTED_EDGE('',*,*,#604,.T.) ;
#623=ORIENTED_EDGE('',*,*,#496,.T.) ;
#624=ORIENTED_EDGE('',*,*,#604,.F.) ;
#625=ORIENTED_EDGE('',*,*,#541,.F.) ;
#626=ORIENTED_EDGE('',*,*,#621,.T.) ;
#635=ORIENTED_EDGE('',*,*,#501,.T.) ;
#636=ORIENTED_EDGE('',*,*,#621,.F.) ;
#637=ORIENTED_EDGE('',*,*,#534,.F.) ;
#638=ORIENTED_EDGE('',*,*,#582,.T.) ;
#215=FACE_BOUND('',#212,.T.) ;
#236=FACE_BOUND('',#233,.T.) ;
#511=FACE_BOUND('',#508,.T.) ;
#515=FACE_BOUND('',#512,.T.) ;
#519=FACE_BOUND('',#516,.T.) ;
#563=FACE_BOUND('',#560,.T.) ;
#567=FACE_BOUND('',#564,.T.) ;
#571=FACE_BOUND('',#568,.T.) ;
#61=CLOSED_SHELL('Closed Shell',(#131,#172,#216,#237,#247,#257)) ;
#297=CLOSED_SHELL('Closed Shell',(#337,#354,#394,#411,#451,#468,#520,#572,#594,#611,#628,#640)) ;
#265=ITEM_DEFINED_TRANSFORMATION(' ',' ',#267,#266) ;
#278=ITEM_DEFINED_TRANSFORMATION(' ',' ',#280,#279) ;
#648=ITEM_DEFINED_TRANSFORMATION(' ',' ',#650,#649) ;
#661=ITEM_DEFINED_TRANSFORMATION(' ',' ',#663,#662) ;
#69=VECTOR('Line Direction',#68,1.) ;
#100=VECTOR('Line Direction',#99,1.) ;
#189=VECTOR('Line Direction',#188,1.) ;
#203=VECTOR('Line Direction',#202,1.) ;
#305=VECTOR('Line Direction',#304,1.) ;
#321=VECTOR('Line Direction',#320,1.) ;
#362=VECTOR('Line Direction',#361,1.) ;
#378=VECTOR('Line Direction',#377,1.) ;
#419=VECTOR('Line Direction',#418,1.) ;
#435=VECTOR('Line Direction',#434,1.) ;
#476=VECTOR('Line Direction',#475,1.) ;
#492=VECTOR('Line Direction',#491,1.) ;
#537=VECTOR('Line Direction',#536,1.) ;
#551=VECTOR('Line Direction',#550,1.) ;
#580=VECTOR('Line Direction',#579,1.) ;
#585=VECTOR('Line Direction',#584,1.) ;
#602=VECTOR('Line Direction',#601,1.) ;
#619=VECTOR('Line Direction',#618,1.) ;
#259=ADVANCED_BREP_SHAPE_REPRESENTATION('NONE',(#258),#52) ;
#642=ADVANCED_BREP_SHAPE_REPRESENTATION('NONE',(#641),#288) ;
#44=SHAPE_REPRESENTATION(' ',(#266,#279,#649,#662),#50) ;
#53=SHAPE_REPRESENTATION(' ',(#267,#280,#663),#52) ;
#289=SHAPE_REPRESENTATION(' ',(#650),#288) ;
#131=ADVANCED_FACE('\X2\96F64EF651E04F554F53\X0\',(#130),#66,.F.) ;
#172=ADVANCED_FACE('\X2\96F64EF651E04F554F53\X0\',(#171),#66,.F.) ;
#216=ADVANCED_FACE('\X2\96F64EF651E04F554F53\X0\',(#211,#215),#177,.T.) ;
#237=ADVANCED_FACE('\X2\96F64EF651E04F554F53\X0\',(#232,#236),#177,.T.) ;
#247=ADVANCED_FACE('\X2\96F64EF651E04F554F53\X0\',(#246),#242,.F.) ;
#257=ADVANCED_FACE('\X2\96F64EF651E04F554F53\X0\',(#256),#252,.T.) ;
#337=ADVANCED_FACE('\X2\96F64EF651E04F554F53\X0\',(#336),#302,.F.) ;
#354=ADVANCED_FACE('\X2\96F64EF651E04F554F53\X0\',(#353),#302,.F.) ;
#394=ADVANCED_FACE('\X2\96F64EF651E04F554F53\X0\',(#393),#359,.F.) ;
#411=ADVANCED_FACE('\X2\96F64EF651E04F554F53\X0\',(#410),#359,.F.) ;
#451=ADVANCED_FACE('\X2\96F64EF651E04F554F53\X0\',(#450),#416,.F.) ;
#468=ADVANCED_FACE('\X2\96F64EF651E04F554F53\X0\',(#467),#416,.F.) ;
#520=ADVANCED_FACE('\X2\96F64EF651E04F554F53\X0\',(#507,#511,#515,#519),#473,.F.) ;
#572=ADVANCED_FACE('\X2\96F64EF651E04F554F53\X0\',(#559,#563,#567,#571),#525,.T.) ;
#594=ADVANCED_FACE('\X2\96F64EF651E04F554F53\X0\',(#593),#577,.T.) ;
#611=ADVANCED_FACE('\X2\96F64EF651E04F554F53\X0\',(#610),#599,.T.) ;
#628=ADVANCED_FACE('\X2\96F64EF651E04F554F53\X0\',(#627),#616,.T.) ;
#640=ADVANCED_FACE('\X2\96F64EF651E04F554F53\X0\',(#639),#633,.T.) ;
#4=APPLICATION_PROTOCOL_DEFINITION('international standard','config_control_design',1994,#1) ;
#35=APPROVAL_DATE_TIME(#13,#24) ;
#76=B_SPLINE_CURVE_WITH_KNOTS('',5,(#77,#78,#79,#80,#81,#82,#83,#84,#85,#86,#87,#88,#89,#90,#91,#92,#93,#94),.UNSPECIFIED.,.F.,.U.,(6,3,3,3,3,6),(6.74791372149,7.87084961113,9.31350692894,10.4639083749,12.1795586282,13.4951033381),.UNSPECIFIED.) ;
#105=B_SPLINE_CURVE_WITH_KNOTS('',5,(#106,#107,#108,#109,#110,#111,#112,#113,#114,#115,#116,#117,#118,#119,#120,#121,#122,#123),.UNSPECIFIED.,.F.,.U.,(6,3,3,3,3,6),(6.74791372148,7.87084961111,9.3135069289,10.4639083748,12.1795586282,13.495103338),.UNSPECIFIED.) ;
#132=B_SPLINE_CURVE_WITH_KNOTS('',5,(#133,#134,#135,#136,#137,#138,#139,#140,#141,#142,#143,#144,#145,#146,#147),.UNSPECIFIED.,.F.,.U.,(6,3,3,3,6),(0.,1.3270335035,3.36926128667,4.76921776514,6.74791372149),.UNSPECIFIED.) ;
#149=B_SPLINE_CURVE_WITH_KNOTS('',5,(#150,#151,#152,#153,#154,#155,#156,#157,#158,#159,#160,#161,#162,#163,#164),.UNSPECIFIED.,.F.,.U.,(6,3,3,3,6),(0.,1.32703350346,3.36926128661,4.7692177651,6.74791372148),.UNSPECIFIED.) ;
#258=MANIFOLD_SOLID_BREP('\X2\96F64EF651E04F554F53\X0\',#61) ;
#641=MANIFOLD_SOLID_BREP('\X2\96F64EF651E04F554F53\X0\',#297) ;
#11=CALENDAR_DATE(2026,29,7) ;
#33=CC_DESIGN_APPROVAL(#24,(#19,#6,#17)) ;
#21=CC_DESIGN_DATE_AND_TIME_ASSIGNMENT(#13,#20,(#19)) ;
#32=CC_DESIGN_DATE_AND_TIME_ASSIGNMENT(#13,#31,(#17)) ;
#20=DATE_TIME_ROLE('classification_date') ;
#31=DATE_TIME_ROLE('creation_date') ;
#30=CC_DESIGN_PERSON_AND_ORGANIZATION_ASSIGNMENT(#28,#29,(#19)) ;
#36=CC_DESIGN_PERSON_AND_ORGANIZATION_ASSIGNMENT(#28,#37,(#6)) ;
#38=CC_DESIGN_PERSON_AND_ORGANIZATION_ASSIGNMENT(#28,#39,(#6,#17)) ;
#40=CC_DESIGN_PERSON_AND_ORGANIZATION_ASSIGNMENT(#28,#41,(#5)) ;
#29=PERSON_AND_ORGANIZATION_ROLE('classification_officer') ;
#37=PERSON_AND_ORGANIZATION_ROLE('design_supplier') ;
#39=PERSON_AND_ORGANIZATION_ROLE('creator') ;
#41=PERSON_AND_ORGANIZATION_ROLE('design_owner') ;
#42=CC_DESIGN_SECURITY_CLASSIFICATION(#19,(#6,#261,#274,#644,#657)) ;
#59=DOCUMENT('6','Part5.CATPart','CATPart document',#58) ;
#295=DOCUMENT('7','Part7.CATPart','CATPart document',#294) ;
#58=DOCUMENT_TYPE('') ;
#294=DOCUMENT_TYPE('') ;
#181=CIRCLE('generated circle',#180,3.5) ;
#197=CIRCLE('generated circle',#196,3.5) ;
#220=CIRCLE('generated circle',#219,3.5) ;
#225=CIRCLE('generated circle',#224,3.5) ;
#315=CIRCLE('generated circle',#314,1.5) ;
#329=CIRCLE('generated circle',#328,1.5) ;
#341=CIRCLE('generated circle',#340,1.5) ;
#346=CIRCLE('generated circle',#345,1.5) ;
#372=CIRCLE('generated circle',#371,1.5) ;
#386=CIRCLE('generated circle',#385,1.5) ;
#398=CIRCLE('generated circle',#397,1.5) ;
#403=CIRCLE('generated circle',#402,1.5) ;
#429=CIRCLE('generated circle',#428,1.5) ;
#443=CIRCLE('generated circle',#442,1.5) ;
#455=CIRCLE('generated circle',#454,1.5) ;
#460=CIRCLE('generated circle',#459,1.5) ;
#486=CIRCLE('generated circle',#485,4.) ;
#500=CIRCLE('generated circle',#499,4.) ;
#529=CIRCLE('generated circle',#528,4.) ;
#545=CIRCLE('generated circle',#544,4.) ;
#263=CONTEXT_DEPENDENT_SHAPE_REPRESENTATION(#264,#262) ;
#276=CONTEXT_DEPENDENT_SHAPE_REPRESENTATION(#277,#275) ;
#646=CONTEXT_DEPENDENT_SHAPE_REPRESENTATION(#647,#645) ;
#659=CONTEXT_DEPENDENT_SHAPE_REPRESENTATION(#660,#658) ;
#260=SHAPE_REPRESENTATION_RELATIONSHIP(' ',' ',#53,#259) ;
#643=SHAPE_REPRESENTATION_RELATIONSHIP(' ',' ',#289,#642) ;
#66=CYLINDRICAL_SURFACE('generated cylinder',#65,1.5) ;
#177=CYLINDRICAL_SURFACE('generated cylinder',#176,3.5) ;
#302=CYLINDRICAL_SURFACE('generated cylinder',#301,1.5) ;
#359=CYLINDRICAL_SURFACE('generated cylinder',#358,1.5) ;
#416=CYLINDRICAL_SURFACE('generated cylinder',#415,1.5) ;
#599=CYLINDRICAL_SURFACE('generated cylinder',#598,4.) ;
#633=CYLINDRICAL_SURFACE('generated cylinder',#632,4.) ;
#3=DESIGN_CONTEXT(' ',#1,'design') ;
#75=EDGE_CURVE('',#72,#74,#70,.F.) ;
#97=EDGE_CURVE('',#96,#74,#76,.T.) ;
#104=EDGE_CURVE('',#103,#96,#101,.F.) ;
#124=EDGE_CURVE('',#103,#72,#105,.T.) ;
#148=EDGE_CURVE('',#74,#96,#132,.T.) ;
#165=EDGE_CURVE('',#72,#103,#149,.T.) ;
#186=EDGE_CURVE('',#183,#185,#181,.T.) ;
#193=EDGE_CURVE('',#183,#192,#190,.F.) ;
#200=EDGE_CURVE('',#192,#199,#197,.T.) ;
#205=EDGE_CURVE('',#185,#199,#204,.F.) ;
#221=EDGE_CURVE('',#185,#183,#220,.T.) ;
#226=EDGE_CURVE('',#199,#192,#225,.T.) ;
#311=EDGE_CURVE('',#308,#310,#306,.F.) ;
#318=EDGE_CURVE('',#308,#317,#315,.T.) ;
#325=EDGE_CURVE('',#317,#324,#322,.F.) ;
#330=EDGE_CURVE('',#310,#324,#329,.T.) ;
#342=EDGE_CURVE('',#317,#308,#341,.T.) ;
#347=EDGE_CURVE('',#324,#310,#346,.T.) ;
#368=EDGE_CURVE('',#365,#367,#363,.F.) ;
#375=EDGE_CURVE('',#365,#374,#372,.T.) ;
#382=EDGE_CURVE('',#374,#381,#379,.F.) ;
#387=EDGE_CURVE('',#367,#381,#386,.T.) ;
#399=EDGE_CURVE('',#374,#365,#398,.T.) ;
#404=EDGE_CURVE('',#381,#367,#403,.T.) ;
#425=EDGE_CURVE('',#422,#424,#420,.F.) ;
#432=EDGE_CURVE('',#422,#431,#429,.T.) ;
#439=EDGE_CURVE('',#431,#438,#436,.F.) ;
#444=EDGE_CURVE('',#424,#438,#443,.T.) ;
#456=EDGE_CURVE('',#431,#422,#455,.T.) ;
#461=EDGE_CURVE('',#438,#424,#460,.T.) ;
#482=EDGE_CURVE('',#479,#481,#477,.F.) ;
#489=EDGE_CURVE('',#488,#479,#486,.T.) ;
#496=EDGE_CURVE('',#495,#488,#493,.F.) ;
#501=EDGE_CURVE('',#481,#495,#500,.T.) ;
#534=EDGE_CURVE('',#531,#533,#529,.T.) ;
#541=EDGE_CURVE('',#533,#540,#538,.F.) ;
#548=EDGE_CURVE('',#540,#547,#545,.T.) ;
#553=EDGE_CURVE('',#547,#531,#552,.F.) ;
#582=EDGE_CURVE('',#531,#481,#581,.T.) ;
#587=EDGE_CURVE('',#547,#479,#586,.T.) ;
#604=EDGE_CURVE('',#540,#488,#603,.F.) ;
#621=EDGE_CURVE('',#533,#495,#620,.T.) ;
#125=EDGE_LOOP('',(#126,#127,#128,#129)) ;
#166=EDGE_LOOP('',(#167,#168,#169,#170)) ;
#206=EDGE_LOOP('',(#207,#208,#209,#210)) ;
#212=EDGE_LOOP('',(#213,#214)) ;
#227=EDGE_LOOP('',(#228,#229,#230,#231)) ;
#233=EDGE_LOOP('',(#234,#235)) ;
#243=EDGE_LOOP('',(#244,#245)) ;
#253=EDGE_LOOP('',(#254,#255)) ;
#331=EDGE_LOOP('',(#332,#333,#334,#335)) ;
#348=EDGE_LOOP('',(#349,#350,#351,#352)) ;
#388=EDGE_LOOP('',(#389,#390,#391,#392)) ;
#405=EDGE_LOOP('',(#406,#407,#408,#409)) ;
#445=EDGE_LOOP('',(#446,#447,#448,#449)) ;
#462=EDGE_LOOP('',(#463,#464,#465,#466)) ;
#502=EDGE_LOOP('',(#503,#504,#505,#506)) ;
#508=EDGE_LOOP('',(#509,#510)) ;
#512=EDGE_LOOP('',(#513,#514)) ;
#516=EDGE_LOOP('',(#517,#518)) ;
#554=EDGE_LOOP('',(#555,#556,#557,#558)) ;
#560=EDGE_LOOP('',(#561,#562)) ;
#564=EDGE_LOOP('',(#565,#566)) ;
#568=EDGE_LOOP('',(#569,#570)) ;
#588=EDGE_LOOP('',(#589,#590,#591,#592)) ;
#605=EDGE_LOOP('',(#606,#607,#608,#609)) ;
#622=EDGE_LOOP('',(#623,#624,#625,#626)) ;
#634=EDGE_LOOP('',(#635,#636,#637,#638)) ;
#130=FACE_OUTER_BOUND('',#125,.T.) ;
#171=FACE_OUTER_BOUND('',#166,.T.) ;
#211=FACE_OUTER_BOUND('',#206,.T.) ;
#232=FACE_OUTER_BOUND('',#227,.T.) ;
#246=FACE_OUTER_BOUND('',#243,.T.) ;
#256=FACE_OUTER_BOUND('',#253,.T.) ;
#336=FACE_OUTER_BOUND('',#331,.T.) ;
#353=FACE_OUTER_BOUND('',#348,.T.) ;
#393=FACE_OUTER_BOUND('',#388,.T.) ;
#410=FACE_OUTER_BOUND('',#405,.T.) ;
#450=FACE_OUTER_BOUND('',#445,.T.) ;
#467=FACE_OUTER_BOUND('',#462,.T.) ;
#507=FACE_OUTER_BOUND('',#502,.T.) ;
#559=FACE_OUTER_BOUND('',#554,.T.) ;
#593=FACE_OUTER_BOUND('',#588,.T.) ;
#610=FACE_OUTER_BOUND('',#605,.T.) ;
#627=FACE_OUTER_BOUND('',#622,.T.) ;
#639=FACE_OUTER_BOUND('',#634,.T.) ;
#49=UNCERTAINTY_MEASURE_WITH_UNIT(LENGTH_MEASURE(0.005),#46,'distance_accuracy_value','CONFUSED CURVE UNCERTAINTY') ;
#51=UNCERTAINTY_MEASURE_WITH_UNIT(LENGTH_MEASURE(0.005),#46,'distance_accuracy_value','CONFUSED CURVE UNCERTAINTY') ;
#287=UNCERTAINTY_MEASURE_WITH_UNIT(LENGTH_MEASURE(0.005),#46,'distance_accuracy_value','CONFUSED CURVE UNCERTAINTY') ;
#70=LINE('Line',#67,#69) ;
#101=LINE('Line',#98,#100) ;
#190=LINE('Line',#187,#189) ;
#204=LINE('Line',#201,#203) ;
#306=LINE('Line',#303,#305) ;
#322=LINE('Line',#319,#321) ;
#363=LINE('Line',#360,#362) ;
#379=LINE('Line',#376,#378) ;
#420=LINE('Line',#417,#419) ;
#436=LINE('Line',#433,#435) ;
#477=LINE('Line',#474,#476) ;
#493=LINE('Line',#490,#492) ;
#538=LINE('Line',#535,#537) ;
#552=LINE('Line',#549,#551) ;
#581=LINE('Line',#578,#580) ;
#586=LINE('Line',#583,#585) ;
#603=LINE('Line',#600,#602) ;
#620=LINE('Line',#617,#619) ;
#2=MECHANICAL_CONTEXT(' ',#1,'mechanical') ;
#261=NEXT_ASSEMBLY_USAGE_OCCURRENCE('Part5.1','Part5.1','',#17,#57,'Part5.1') ;
#274=NEXT_ASSEMBLY_USAGE_OCCURRENCE('Part5.2','Part5.2','',#17,#57,'Part5.2') ;
#644=NEXT_ASSEMBLY_USAGE_OCCURRENCE('Part7.1','Part7.1','',#17,#293,'Part7.1') ;
#657=NEXT_ASSEMBLY_USAGE_OCCURRENCE('Part5.3','Part5.3','',#17,#57,'Part5.3') ;
#27=PERSONAL_ADDRESS(' ',' ',' ',' ',' ',' ',' ',' ',' ',' ',' ',' ',(#25),' ') ;
#242=PLANE('',#241) ;
#252=PLANE('',#251) ;
#473=PLANE('',#472) ;
#525=PLANE('',#524) ;
#577=PLANE('',#576) ;
#616=PLANE('',#615) ;
#7=PRODUCT_CATEGORY('part',$) ;
#14=PRODUCT_CATEGORY('part',$) ;
#9=PRODUCT_CATEGORY_RELATIONSHIP(' ',' ',#7,#8) ;
#16=PRODUCT_CATEGORY_RELATIONSHIP(' ',' ',#14,#15) ;
#6=PRODUCT_DEFINITION_FORMATION_WITH_SPECIFIED_SOURCE('',' ',#5,.NOT_KNOWN.) ;
#56=PRODUCT_DEFINITION_FORMATION_WITH_SPECIFIED_SOURCE('',' ',#55,.NOT_KNOWN.) ;
#292=PRODUCT_DEFINITION_FORMATION_WITH_SPECIFIED_SOURCE('',' ',#291,.NOT_KNOWN.) ;
#57=PRODUCT_DEFINITION_WITH_ASSOCIATED_DOCUMENTS('',' ',#56,#3,(#59)) ;
#293=PRODUCT_DEFINITION_WITH_ASSOCIATED_DOCUMENTS('',' ',#292,#3,(#295)) ;
#8=PRODUCT_RELATED_PRODUCT_CATEGORY('detail',$,(#55,#291)) ;
#15=PRODUCT_RELATED_PRODUCT_CATEGORY('part',$,(#5)) ;
#43=SHAPE_DEFINITION_REPRESENTATION(#45,#44) ;
#54=SHAPE_DEFINITION_REPRESENTATION(#60,#53) ;
#290=SHAPE_DEFINITION_REPRESENTATION(#296,#289) ;
#72=VERTEX_POINT('',#71) ;
#74=VERTEX_POINT('',#73) ;
#96=VERTEX_POINT('',#95) ;
#103=VERTEX_POINT('',#102) ;
#183=VERTEX_POINT('',#182) ;
#185=VERTEX_POINT('',#184) ;
#192=VERTEX_POINT('',#191) ;
#199=VERTEX_POINT('',#198) ;
#308=VERTEX_POINT('',#307) ;
#310=VERTEX_POINT('',#309) ;
#317=VERTEX_POINT('',#316) ;
#324=VERTEX_POINT('',#323) ;
#365=VERTEX_POINT('',#364) ;
#367=VERTEX_POINT('',#366) ;
#374=VERTEX_POINT('',#373) ;
#381=VERTEX_POINT('',#380) ;
#422=VERTEX_POINT('',#421) ;
#424=VERTEX_POINT('',#423) ;
#431=VERTEX_POINT('',#430) ;
#438=VERTEX_POINT('',#437) ;
#479=VERTEX_POINT('',#478) ;
#481=VERTEX_POINT('',#480) ;
#488=VERTEX_POINT('',#487) ;
#495=VERTEX_POINT('',#494) ;
#531=VERTEX_POINT('',#530) ;
#533=VERTEX_POINT('',#532) ;
#540=VERTEX_POINT('',#539) ;
#547=VERTEX_POINT('',#546) ;
#46=(LENGTH_UNIT()NAMED_UNIT(*)SI_UNIT(.MILLI.,.METRE.)) ;
#47=(NAMED_UNIT(*)PLANE_ANGLE_UNIT()SI_UNIT($,.RADIAN.)) ;
#48=(NAMED_UNIT(*)SI_UNIT($,.STERADIAN.)SOLID_ANGLE_UNIT()) ;
#50=(GEOMETRIC_REPRESENTATION_CONTEXT(3)GLOBAL_UNCERTAINTY_ASSIGNED_CONTEXT((#49))GLOBAL_UNIT_ASSIGNED_CONTEXT((#46,#47,#48))REPRESENTATION_CONTEXT(' ',' ')) ;
#52=(GEOMETRIC_REPRESENTATION_CONTEXT(3)GLOBAL_UNCERTAINTY_ASSIGNED_CONTEXT((#51))GLOBAL_UNIT_ASSIGNED_CONTEXT((#46,#47,#48))REPRESENTATION_CONTEXT(' ',' ')) ;
#288=(GEOMETRIC_REPRESENTATION_CONTEXT(3)GLOBAL_UNCERTAINTY_ASSIGNED_CONTEXT((#287))GLOBAL_UNIT_ASSIGNED_CONTEXT((#46,#47,#48))REPRESENTATION_CONTEXT(' ',' ')) ;
#264=(REPRESENTATION_RELATIONSHIP(' ',' ',#53,#44)REPRESENTATION_RELATIONSHIP_WITH_TRANSFORMATION(#265)SHAPE_REPRESENTATION_RELATIONSHIP()) ;
#277=(REPRESENTATION_RELATIONSHIP(' ',' ',#53,#44)REPRESENTATION_RELATIONSHIP_WITH_TRANSFORMATION(#278)SHAPE_REPRESENTATION_RELATIONSHIP()) ;
#647=(REPRESENTATION_RELATIONSHIP(' ',' ',#289,#44)REPRESENTATION_RELATIONSHIP_WITH_TRANSFORMATION(#648)SHAPE_REPRESENTATION_RELATIONSHIP()) ;
#660=(REPRESENTATION_RELATIONSHIP(' ',' ',#53,#44)REPRESENTATION_RELATIONSHIP_WITH_TRANSFORMATION(#661)SHAPE_REPRESENTATION_RELATIONSHIP()) ;
ENDSEC;
END-ISO-10303-21;
